<svg width="534" height="704" viewBox="0 0 534 704" fill="none" xmlns="http://www.w3.org/2000/svg">
<g id="logo22 1" clip-path="url(#clip0)">
<g id="g3102">
<g id="g4959">
<path id="path2987" d="M281.512 275.158C284.567 274.905 291.771 274.4 297.522 274.036C312.717 273.074 319.082 271.337 322.817 267.134C327.464 261.903 324.855 249.891 317.549 242.886C314.443 239.907 308.24 236.489 303.415 235.096C295.633 232.85 284.519 233.959 278.441 237.588C275.685 239.234 275.522 240.595 275.763 260.005L275.958 275.618L281.512 275.158V275.158Z" fill="#262F41"/>
<path id="path2989" fill-rule="evenodd" clip-rule="evenodd" d="M264.524 279.814C266.282 264.024 265.475 253.134 262.159 247.884C258.908 242.738 251.927 240.199 244.411 241.43C231.11 243.608 216.67 258.595 216.538 270.361C216.483 275.255 217.459 277.318 220.936 279.657C224.991 282.385 226.755 282.723 239.69 283.246C250.543 283.684 252.281 283.92 256.68 285.552C259.376 286.552 262.039 287.511 262.597 287.683C263.446 287.944 263.763 286.649 264.524 279.814V279.814Z" fill="#262F41"/>
<path id="path2991" fill-rule="evenodd" clip-rule="evenodd" d="M305.478 326.457C321.99 322.871 330.863 305.681 323.661 291.23C320.576 285.041 314.132 280.856 306.583 280.139C299.215 279.44 288.243 283.027 279.055 289.141L275.618 291.427L275.989 297.807C276.883 313.206 277.682 324.098 277.935 324.356C279.746 326.198 299.673 327.718 305.478 326.457V326.457Z" fill="#262F41"/>
<path id="path2993" fill-rule="evenodd" clip-rule="evenodd" d="M251.64 336.66C265.273 333.306 270.957 319.001 264.149 305.183C260.764 298.312 253.329 293.408 243.371 291.477C238.363 290.506 236.988 290.469 233.242 291.207C224.462 292.936 218.697 297.161 215.456 304.242C213.208 309.151 213.289 318.051 215.627 323.2C218.767 330.116 224.273 334.875 231.349 336.79C235.688 337.965 246.621 337.894 251.64 336.66Z" fill="#262F41"/>
<path id="path2995" fill-rule="evenodd" clip-rule="evenodd" d="M184.678 290.739C184.362 281.222 183.076 278.024 176.738 270.986L172.567 266.354L174.859 262.115L177.151 257.875L176.321 251.798C174.623 239.359 174.665 235.346 176.677 218.631C176.913 216.664 176.729 216.027 175.824 215.68C175.19 215.437 173.494 214.395 172.057 213.364C170.619 212.333 168.708 210.97 167.809 210.335C162.551 206.619 157.052 199.764 153.574 192.589C150.165 185.558 147.108 183.729 138.309 183.458L132.195 183.27L131.12 190.578C127.893 212.506 132.076 232.09 143.989 250.827C146.858 255.34 151.727 262.077 153.606 264.136C154.05 264.622 156.03 266.945 158.007 269.298C159.984 271.652 162.777 274.811 164.215 276.32C170.348 282.755 179.629 293.076 181.328 295.351C184.679 299.837 184.967 299.441 184.678 290.739V290.739Z" fill="#262F41"/>
<path id="path2997" fill-rule="evenodd" clip-rule="evenodd" d="M361.656 294.023C364.275 291.73 368.757 287.923 371.69 285.501C372.948 284.462 374.124 283.441 374.304 283.232C374.483 283.024 378.6 279.747 383.452 275.95C388.304 272.153 392.421 268.867 392.601 268.647C392.78 268.428 394.79 266.805 397.067 265.041C402.622 260.737 413.548 249.758 415.964 246.053C421.705 237.247 422.806 232.309 423.075 214.163C423.197 205.941 423.538 198.168 423.834 196.889L424.371 194.564L425.238 196.225C429.542 204.466 437.339 216.823 438.244 216.836C438.838 216.845 442.788 217.125 447.022 217.458C456.131 218.175 464.605 217.433 469.618 215.478C476.389 212.838 484.133 206.182 491.628 196.558C493.05 194.731 494.582 192.841 495.031 192.358C495.48 191.875 495.854 191.276 495.86 191.028C495.867 190.781 496.902 189.382 498.161 187.92C500.414 185.302 507.938 174.154 509.548 171.046C510.358 169.483 510.332 169.462 508.175 169.93C505.791 170.447 491.782 172.101 484.412 172.735C481.218 173.01 480.035 172.917 480.491 172.428C481.445 171.406 488.745 167.823 490.985 167.277C492.042 167.02 493.201 166.578 493.561 166.296C493.92 166.013 495.39 165.567 496.828 165.304C498.266 165.041 499.736 164.6 500.095 164.325C500.455 164.049 501.724 163.612 502.917 163.352C504.109 163.093 505.873 162.462 506.837 161.951C507.802 161.44 508.814 161.019 509.087 161.017C510.618 161.004 522.235 152.829 525.581 149.41C533.266 141.558 534.771 135.569 533.687 117.164C533.331 111.135 532.782 105.305 532.467 104.209C532.152 103.112 531.71 100.721 531.485 98.8936C531.261 97.0666 530.823 94.8243 530.513 93.9108C530.203 92.9973 529.456 90.6055 528.854 88.5958C524.666 74.6128 516.319 66.4428 501.076 61.405C497.337 60.1693 489.512 56.5652 487.68 55.2346C485.185 53.423 474.434 43.23 461.903 30.795C443.579 12.6116 435.942 7.06132 424.62 3.70006C419.501 2.18012 401.568 2.24554 393.581 3.81329C380.763 6.3294 372.64 10.4913 367.909 16.9666C361.684 25.487 361.629 35.4501 367.756 44.7469C372.922 52.5844 382.064 55.7589 392.428 53.3136C396.912 52.2557 413.037 46.9873 416.296 45.5156C424.688 41.7261 434.196 38.9363 435.171 39.9776C435.404 40.2256 435.314 42.3718 434.972 44.7469C434.146 50.4816 434.606 52.9971 436.984 55.7505C440.729 60.0865 448.022 78.3121 447.38 81.7273C447.237 82.4863 446.411 83.0743 445.197 83.2808C442.18 83.794 440.962 84.8106 439.969 87.6466C437.584 94.452 439.402 99.5684 447.862 109.86C456.131 119.919 459.499 126.782 460.577 135.767C460.993 139.238 461.233 142.975 461.111 144.071L460.888 146.064L459.168 143.075C458.222 141.43 455.801 136.786 453.787 132.754C451.539 128.251 449.05 124.334 447.339 122.604C444.558 119.793 435.294 113.745 432.37 112.832C431.522 112.567 430.534 112.131 430.175 111.862C428.568 110.659 422.779 109.191 419.644 109.191C415.949 109.191 404.038 111.648 401.925 112.846C401.786 112.925 400.107 119.442 395.508 137.76C394.545 141.596 393.57 144.944 393.342 145.199C393.114 145.454 391.462 144.856 389.672 143.871L386.417 142.078L386.404 138.092C386.394 134.639 386.072 133.606 384.002 130.369C382.688 128.313 380.924 125.963 380.082 125.147C377.669 122.806 373.237 121.15 369.386 121.15C365.669 121.15 356.752 123.855 349.799 127.091C343.172 130.175 338.9 131.363 334.442 131.361C326.002 131.358 322.15 127.101 320.637 116.107C319.798 110.011 320.575 96.3051 322.478 83.613C324.032 73.2511 323.814 56.0738 322.018 47.4044C318.252 29.219 310.208 16.0678 297.849 7.8868C289.437 2.31898 281.881 0.039361 271.71 0.000765515C263.459 -0.0305458 259.276 0.890612 252.416 4.25047C247.121 6.84336 238.319 15.6478 242.794 13.8747C249.105 11.3741 262.19 9.97122 270.904 10.861C286.527 12.4561 292.99 14.699 299.328 20.7249C308.38 29.3303 312.899 40.8684 314.849 60.3598C316.923 81.0794 309.937 110.57 299.052 127.043C297.997 128.64 297.241 130.055 297.372 130.189C297.504 130.322 298.914 129.707 300.507 128.822C305.809 125.876 308.615 124.589 310.23 124.363C311.759 124.15 311.889 124.429 313.218 130.784C313.983 134.438 314.83 138.398 315.101 139.584C315.593 141.732 315.577 141.749 311.132 143.779C305.482 146.359 305.296 146.437 297.849 149.359C283.722 154.9 279.456 160.111 276.885 174.965C275.118 185.169 276.277 201.123 279.298 208.184C281.274 212.801 281.885 213.749 284.828 216.756C288.235 220.237 288.848 220.709 291.985 222.264C300.925 226.697 321.407 226.592 333.726 222.051C345.963 217.54 356.42 209.858 364.829 199.204C366.266 197.383 367.628 195.743 367.855 195.56C368.471 195.065 376.918 182.3 376.918 181.865C376.918 181.658 378.902 178.361 381.328 174.537L385.739 167.584L388.353 167.876C389.791 168.037 393.761 168.664 397.175 169.269C407.606 171.116 414.249 172.228 419.719 173.04C422.986 173.525 425.412 174.263 426.187 175.006C427.395 176.163 427.352 176.229 424.554 177.51C417.407 180.783 414.883 181.153 402.121 180.797L390.097 180.462L388.31 185.442C385.218 194.061 382.281 199.166 376.019 206.805C366.178 218.812 364.822 221.641 364.848 230.108C364.859 233.579 365.227 237.436 365.665 238.678C366.792 241.87 366.675 255.004 365.475 260.117C363.669 267.812 362.239 271.572 359.589 275.589C358.439 277.334 358.312 278.517 358.456 286.184C358.545 290.931 358.84 295.041 359.111 295.317C359.383 295.593 360.528 295.011 361.656 294.023V294.023Z" fill="#262F41"/>
<path id="path2999" fill-rule="evenodd" clip-rule="evenodd" d="M242.631 223.505C243.709 223.237 245.87 222.35 247.433 221.533C257.932 216.048 263.31 203.214 263.468 183.27C263.55 172.943 262.973 169.934 259.583 162.991C254.898 153.396 245.836 147.182 225.099 139.341C220.725 137.687 212.588 134.082 207.017 131.329C201.446 128.576 194.83 125.449 192.314 124.38C189.798 123.312 187.228 122.147 186.603 121.792C184.679 120.701 176.175 119.75 172.383 120.202C167.34 120.803 163.342 122.741 160.294 126.063C157.69 128.902 156.718 130.56 154.088 136.646C152.941 139.301 152.541 139.714 151.761 139.056C151.04 138.448 150.603 138.444 149.897 139.04C148.135 140.526 143.661 132.868 142.357 126.133C141.175 120.033 140.353 117.796 137.918 114.066C135.541 110.424 134.597 109.865 128.059 108.232C119.387 106.066 108.716 107.411 101.03 111.64C89.5174 117.973 82.848 130.996 84.8312 143.271C85.7756 149.116 87.3907 153.037 90.3855 156.752C92.7768 159.719 94.7073 160.646 102.532 162.582C108.171 163.977 110.615 165.239 109.498 166.18C108.114 167.344 100.377 168.471 96.9351 168.009C85.7668 166.51 77.329 156.166 75.7819 142.078L75.3441 138.092L71.0967 137.629C68.7605 137.374 63.9406 136.969 60.3858 136.729C56.2614 136.451 54.2513 136.081 54.8314 135.708C55.3312 135.386 56.6342 135.118 57.7267 135.112C60.3756 135.099 66.535 133.434 70.3209 131.708C80.7703 126.945 89.1165 115.761 91.7862 102.945C93.0519 96.8687 93.8694 86.036 93.2074 84.1113C92.6066 82.3644 89.3936 81.9447 89.3936 83.613C89.3936 84.8632 88.0654 84.8939 86.4345 83.6814C85.2091 82.7704 85.2086 82.6629 86.4071 77.8681C87.0787 75.1813 88.0603 72.0861 88.5882 70.9899C89.5403 69.0131 94.445 62.9344 98.2175 59.0557C99.2969 57.946 101.29 55.6511 102.647 53.9561C104.858 51.195 105.036 50.699 104.36 49.1902C103.457 47.1739 104.107 42.8355 105.388 42.3359C105.879 42.1444 109.465 43.0289 113.357 44.3015C126.467 48.5883 131.9 49.8348 142.858 51.07C150.189 51.8964 152.945 51.9349 158.422 51.2876L165.078 50.501L165.401 48.4545C165.578 47.3289 166.227 44.0162 166.842 41.0929C168.573 32.8664 168.838 22.8935 167.429 19.0158C164.718 11.5531 158.79 7.27315 148.226 5.15197C136.483 2.79405 108.194 5.51486 101.037 9.69054C96.2639 12.4754 90.3215 17.633 79.9184 28.02C58.4342 49.4709 58.3106 49.5614 36.1364 60.0593C24.6017 65.5202 15.675 73.4254 11.2748 82.0761C6.79343 90.8864 1.15929 112.943 0.134902 125.687C-1.02459 140.112 5.29814 150.185 18.7171 155.291C26.1508 158.119 31.9414 159.25 47.7651 160.965C50.5668 161.268 53.0448 161.705 53.2718 161.936C53.8319 162.505 51.7745 164.096 48.2254 165.839C45.6317 167.112 44.0902 167.294 35.1562 167.384C29.5854 167.441 24.3418 167.525 23.5039 167.572L21.9803 167.657L23.4384 170.148C27.8194 177.634 42.5059 193.501 52.7997 201.871C55.4952 204.062 57.8477 206.03 58.0274 206.243C58.9726 207.363 68.6422 213.505 71.7501 214.959C73.7268 215.884 77.9907 217.333 81.2253 218.18C88.9203 220.195 101.066 220.365 106.057 218.528C109.144 217.392 113.534 214.406 115.392 212.18C117.062 210.18 119.308 204.436 120.152 200.009C120.913 196.018 120.877 194.814 119.843 189.712C118.641 183.777 116.424 179.615 114.464 179.615C113.913 179.615 113.583 179.242 113.731 178.785C114.139 177.522 120.765 176.284 130.562 175.64C141.818 174.9 144.549 173.697 148.692 167.657C149.819 166.012 151.46 163.778 152.338 162.692L153.934 160.718L154.724 164.686C155.956 170.864 157.344 174.847 160.308 180.702C163.514 187.036 163.354 186.822 170.096 193.866C176.278 200.324 178.509 202.109 186.76 207.2C199.489 215.055 214.257 221.184 225.967 223.474C229.504 224.166 239.896 224.185 242.631 223.505V223.505V223.505Z" fill="#262F41"/>
<path id="path3001" fill-rule="evenodd" clip-rule="evenodd" d="M333.556 595.536C335.405 594.458 337.808 592.477 338.897 591.134C342.743 586.39 347.718 574.351 349.44 565.618C350.606 559.703 350.664 559.687 356.091 563.807C364.514 570.201 370.179 572.281 375.811 571.05C377.678 570.642 380.352 570.071 381.755 569.781C384.036 569.309 384.512 568.84 386.256 565.343C389.232 559.378 391.809 551.443 393.394 543.362C395.457 532.847 395.428 512.446 393.335 500.534C390.67 485.38 387.885 476.442 381.767 463.415L377.607 454.558L382.41 455.015C385.052 455.267 388.149 455.264 389.293 455.008C391.677 454.476 391.669 454.177 389.017 445.698C385.901 435.734 382.41 429.139 377.291 423.546C371.678 417.412 367.882 409.423 366.51 400.853C364.757 389.907 362.511 383.644 358.929 379.717C358.04 378.742 357.313 377.718 357.313 377.44C357.313 376.466 354.663 376.95 351.502 378.501C349.747 379.361 344.676 382.61 340.233 385.719C335.79 388.828 330.685 392.119 328.888 393.031C324.832 395.09 318.802 397.132 318.297 396.618C317.891 396.205 322.738 390.445 329.106 383.772C331.272 381.503 334.542 377.766 336.374 375.467C338.205 373.169 340.033 370.88 340.436 370.381C341.922 368.542 346.628 358.552 347.677 355.011C348.725 351.471 350.11 343.874 350.12 341.608C350.125 340.589 349.732 340.607 345.388 341.824C342.782 342.554 339.18 344.086 337.383 345.229C332.533 348.312 327.211 351.025 326.019 351.022C325.371 351.02 324.007 349.118 322.47 346.073C317.194 335.626 312.337 333.697 297.351 336.1C284.017 338.238 281.174 339.955 279.049 347.145C277.842 351.231 277.048 352.615 274.37 355.297L271.145 358.527L268.65 357.333C267.278 356.677 264.045 353.995 261.467 351.374C257.846 347.694 256.005 346.354 253.387 345.494C247.717 343.633 234.969 344.098 220.343 346.701C218.396 347.048 218.283 347.25 217.566 351.663C217.155 354.193 216.79 357.701 216.754 359.457C216.609 366.543 217.285 366.65 203.471 357.361C196.668 352.787 190.989 349.161 190.849 349.302C190.585 349.571 193.983 356.745 196.541 361.319C199.494 366.598 202.151 370.023 207.638 375.623C214.301 382.424 216.295 384.076 225.447 390.385L232.442 395.206L230.348 395.777C226.991 396.693 218.075 395.871 214.648 394.33C212.973 393.577 210.253 391.522 208.603 389.765C204.769 385.679 197.404 375.537 192.07 366.995C189.779 363.327 187.721 360.328 187.496 360.33C186.763 360.338 181.558 368.769 178.805 374.408C176.857 378.395 173.471 388.283 172.706 392.216C172.083 395.421 170.454 400.946 169.722 402.339C169.389 402.973 169.114 403.87 169.111 404.332C169.101 405.794 162.74 418.641 159.556 423.629C147.747 442.125 144.393 449.643 142.591 461.643C142.098 464.932 141.689 469.874 141.682 472.625C141.671 477.425 143.288 493.172 143.995 495.151C144.233 495.815 145.712 494.715 148.884 491.514C153.701 486.655 154.102 486.727 152.742 492.205C149.42 505.575 147.951 525.138 149.472 535.718C150.595 543.522 153.66 553.073 156.19 556.649C158.999 560.62 163.383 565.881 166.008 568.433C169.098 571.436 175.398 575.086 178.945 575.928C180.56 576.312 180.631 576.18 181.55 571.137C182.925 563.596 182.812 550.351 181.33 545.355C180.68 543.162 179.918 540.92 179.637 540.372C179.356 539.824 178.296 536.716 177.282 533.467C175.479 527.692 175.466 527.536 176.687 526.627C177.375 526.115 178.967 525.785 180.225 525.892C182.027 526.046 182.556 526.405 182.721 527.583C183.069 530.076 184.045 529.312 187.389 523.929C190.532 518.868 198.943 505.592 202.562 499.978C203.574 498.407 204.403 496.959 204.403 496.761C204.403 496.563 204.991 495.64 205.71 494.711C207.329 492.619 207.333 492.905 205.753 497.683C203.813 503.548 200.745 514.273 199.528 519.444C198.926 522.002 198.175 525.141 197.859 526.42C194.188 541.27 193.222 564.171 195.84 574.251C198.818 585.712 203.86 591.746 213.065 594.866C216.99 596.196 218.332 596.32 225.154 595.984C230.117 595.74 234.783 595.062 238.358 594.066C244.787 592.275 244.134 593.507 246.224 579.238C248.346 564.749 247.875 555.59 244.003 536.054C241.933 525.605 240.843 520.003 240.513 518.115L240.166 516.122L241.689 517.451C245.341 520.636 248.167 524.264 250.174 528.347C253.143 534.383 256.675 540.372 257.266 540.372C257.846 540.372 260.778 534.005 262.162 529.742C265.401 519.763 267.327 504.256 267.401 487.554C267.453 475.727 267.362 474.724 265.958 471.647C265.121 469.812 262.208 465.978 259.352 462.954C255.75 459.14 253.514 456.042 251.766 452.446C250.402 449.641 249.463 447.167 249.679 446.948C249.894 446.729 253.248 447.106 257.132 447.785C261.28 448.51 267.296 449.015 271.71 449.008C278.536 448.997 279.554 448.831 282.819 447.203C284.824 446.202 288.723 443.162 291.64 440.324C296.412 435.682 302.925 430.613 305.313 429.681C306.119 429.366 306.162 429.707 305.585 431.856C305.208 433.257 304.688 434.703 304.428 435.068C304.167 435.434 303.42 437.227 302.768 439.054C299.715 447.598 292.742 456.539 283.819 463.351C278.938 467.077 275.953 471.012 274.667 475.413C273.513 479.362 273.325 494.659 274.337 502.17C275.956 514.182 277.665 524.549 279.813 535.389C280.32 537.947 281.2 542.432 281.769 545.355C283.24 552.909 284.774 559.856 285.028 560.114C286.168 561.272 288.986 556.306 292.649 546.684C293.939 543.293 296.872 537.755 298.63 535.389C300.913 532.316 307.215 525.092 307.426 525.306C307.68 525.565 305.606 533.958 303.375 541.701C299.258 555.988 297.671 566.673 298.048 577.577C298.218 582.51 298.658 587.318 299.025 588.261C299.788 590.221 305.591 593.3 313.424 595.899C317.124 597.127 319.684 597.507 324.234 597.502C329.634 597.497 330.511 597.311 333.556 595.536V595.536Z" fill="#262F41"/>
</g>
</g>
</g>
<defs>
<clipPath id="clip0">
<rect width="534" height="704" fill="white"/>
</clipPath>
</defs>
</svg>
