<svg width="69" height="69" viewBox="0 0 69 69" fill="none" xmlns="http://www.w3.org/2000/svg">
<path id="logo" fill-rule="evenodd" clip-rule="evenodd" d="M69 69H0V63.25H5.75V23H0V17.25H69V23H63.25V63.25H69V69ZM31.625 54.625H25.875V66.125H31.625V54.625ZM43.125 54.625H37.375V66.125H43.125V54.625ZM57.5 23H11.5V63.25H20.125V48.875H48.875V63.25H57.5V23ZM40.25 43.125H28.75V28.75H40.25V43.125ZM25.875 43.125H14.375V28.75H25.875V43.125ZM54.625 43.125H43.125V28.75H54.625V43.125ZM25.875 8.625V11.5C25.875 13.0841 24.5899 14.375 23 14.375C21.413 14.375 20.125 13.087 20.125 11.5V2.875C20.125 1.288 21.413 0 23 0C24.5899 0 25.875 1.29087 25.875 2.875V5.75H43.125V2.875C43.125 1.29087 44.4101 0 46 0C47.5899 0 48.875 1.29087 48.875 2.875V11.5C48.875 13.0841 47.5899 14.375 46 14.375C44.4101 14.375 43.125 13.0841 43.125 11.5V8.625H25.875ZM53.1875 8.625V10.0625C53.1875 10.856 52.5435 11.5 51.75 11.5C50.9565 11.5 50.3125 10.856 50.3125 10.0625V4.3125C50.3125 3.519 50.9565 2.875 51.75 2.875C52.5435 2.875 53.1875 3.519 53.1875 4.3125V5.75H54.625V8.625H53.1875ZM15.8125 5.75V4.3125C15.8125 3.519 16.4565 2.875 17.25 2.875C18.0435 2.875 18.6875 3.519 18.6875 4.3125V10.0625C18.6875 10.856 18.0435 11.5 17.25 11.5C16.4565 11.5 15.8125 10.856 15.8125 10.0625V8.625H14.375V5.75H15.8125Z" fill="white"/>
</svg>
