<svg width="128" height="89" viewBox="0 0 128 89" fill="none" xmlns="http://www.w3.org/2000/svg">
<g id="undraw_indoor_bike_pwa4 1" clip-path="url(#clip0)">
<path id="leave" d="M119.545 77.3433C119.545 77.3433 100.884 70.3229 107.439 65.4545C113.995 60.5861 119.545 77.3433 119.545 77.3433Z" fill="#E6E6E6"/>
<path id="leave_2" d="M119.22 78.9814C119.22 78.9814 110.643 55.9503 123.274 57.0517C135.905 58.1532 119.22 78.9814 119.22 78.9814Z" fill="#E6E6E6"/>
<path id="Vector" d="M112.966 76.939L113.326 80.7916L113.332 80.8581C113.332 81.4598 113.369 82.061 113.444 82.6595C113.932 86.5892 116.032 88.3801 118.487 88.3801C120.941 88.3801 122.95 86.5892 123.438 82.6595C123.513 82.061 123.55 81.4598 123.55 80.8581L123.553 80.8044L123.554 80.7916L123.915 76.939H112.966Z" fill="#E6E6E6"/>
<path id="Vector_2" d="M123.554 80.7915L123.553 80.8044L123.55 80.8581C123.55 81.4597 123.513 82.0609 123.438 82.6594H113.444C113.369 82.0609 113.332 81.4597 113.332 80.8581L113.326 80.7915H123.554Z" fill="white"/>
<path id="leave_3" d="M14.0928 80.6959C14.0928 80.6959 7.15361 78.0854 9.59135 76.2752C12.0291 74.4649 14.0928 80.6959 14.0928 80.6959Z" fill="#E6E6E6"/>
<path id="Vector_3" d="M9.49731 80.4197L9.7478 83.1002L9.75178 83.1465C9.75154 83.5651 9.77742 83.9835 9.82932 84.3999C10.1693 87.1341 11.6305 88.3801 13.3381 88.3801C15.0458 88.3801 16.4434 87.1341 16.7834 84.3999C16.8353 83.9835 16.8611 83.5651 16.8609 83.1465L16.8629 83.1092L16.8639 83.1002L17.1154 80.4197L9.49731 80.4197Z" fill="#E6E6E6"/>
<path id="Vector_4" d="M86.9733 41.5965C87.2336 41.4495 87.4383 41.2459 87.5642 41.0086C87.69 40.7714 87.732 40.5101 87.6854 40.2544C87.6388 39.9987 87.5054 39.7587 87.3003 39.5618C87.0953 39.3649 86.8268 39.2189 86.5254 39.1403L82.6403 38.1277L80.5055 39.6395L85.2182 41.6806C85.4921 41.7993 85.8007 41.8542 86.1102 41.8393C86.4197 41.8245 86.7182 41.7405 86.9733 41.5965Z" fill="#FFB9B9"/>
<path id="Vector_5" d="M80.44 40.6266L83.0012 38.1997L73.464 29.6698L69.0729 21.3502C68.7835 20.802 68.2684 20.3539 67.617 20.0837C66.9656 19.8134 66.2189 19.7381 65.5066 19.8708C65.0408 19.9576 64.6055 20.1304 64.2341 20.3761C63.8627 20.6217 63.5652 20.9336 63.3643 21.2879C63.1634 21.6422 63.0646 22.0293 63.0753 22.4197C63.086 22.81 63.2061 23.1932 63.4262 23.5397L69.1575 32.5611L80.44 40.6266Z" fill="#E6E6E6"/>
<path id="Vector_6" d="M86.5588 72.7755L86.0679 72.1529H85.1615V71.8813H86.249L86.8383 72.6283L86.5588 72.7755Z" fill="#3F3D56"/>
<path id="Vector_7" d="M84.5247 72.1529H82.6142V71.8813H84.5247V72.1529ZM81.9773 72.1529H80.0669V71.8813H81.9773V72.1529ZM79.4301 72.1529H77.5196V71.8813H79.4301L79.4301 72.1529ZM76.8827 72.1529H74.9723V71.8813H76.8827V72.1529ZM74.3355 72.1529H72.425V71.8813H74.3355V72.1529ZM71.7881 72.1529L70.0182 72.1517L69.8572 72.1342L69.901 71.865L70.0511 71.8813H71.7881V72.1529ZM69.226 72.0656L67.3321 71.8601L67.3759 71.5909L69.2698 71.7964L69.226 72.0656ZM66.7008 71.7915L64.807 71.5858L64.8508 71.3166L66.7446 71.5223L66.7008 71.7915ZM64.1758 71.5173L62.2819 71.3117L62.3257 71.0425L64.2196 71.2481L64.1758 71.5173ZM61.6506 71.2432L59.7568 71.0375L59.8006 70.7683L61.6944 70.974L61.6506 71.2432Z" fill="#3F3D56"/>
<path id="Vector_8" d="M58.2966 71.5453L57.9645 71.5377L57.9982 70.5725L59.1694 70.6997L59.1255 70.9689L58.3199 70.8816L58.2966 71.5453Z" fill="#3F3D56"/>
<path id="Vector_9" d="M58.0425 78.8158L57.7104 78.8081L57.7739 76.9904L58.1061 76.9981L58.0425 78.8158ZM58.1272 76.3922L57.7951 76.3845L57.8586 74.5669L58.1908 74.5746L58.1272 76.3922ZM58.2119 73.9687L57.8798 73.961L57.9433 72.1433L58.2755 72.151L58.2119 73.9687Z" fill="#3F3D56"/>
<path id="Vector_10" d="M57.6554 80.3794L57.6891 79.4141L58.0213 79.4217L57.998 80.0853L58.8078 80.0338L58.8337 80.3046L57.6554 80.3794Z" fill="#3F3D56"/>
<path id="Vector_11" d="M59.4696 80.2644L59.4438 79.9936L61.3517 79.8724L61.3775 80.1432L59.4696 80.2644ZM62.0135 80.1029L61.9877 79.8321L63.8956 79.7109L63.9214 79.9817L62.0135 80.1029ZM64.5574 79.9414L64.5316 79.6706L66.4396 79.5494L66.4652 79.8202L64.5574 79.9414ZM67.1012 79.7798L67.0755 79.5091L68.9834 79.3878L69.009 79.6586L67.1012 79.7798ZM69.645 79.6183L69.6193 79.3475L71.5274 79.2263L71.553 79.4971L69.645 79.6183ZM72.189 79.4568L72.1633 79.186L74.0712 79.0648L74.0968 79.3356L72.189 79.4568ZM74.7328 79.2953L74.7071 79.0245L76.6151 78.9033L76.6408 79.1741L74.7328 79.2953ZM77.2767 79.1338L77.2511 78.863L79.1589 78.7418L79.1846 79.0126L77.2767 79.1338ZM79.8205 78.9722L79.7949 78.7015L81.7029 78.5803L81.7286 78.851L79.8205 78.9722ZM82.3645 78.8107L82.3389 78.5399L84.2467 78.4187L84.2724 78.6895L82.3645 78.8107ZM84.9083 78.6492L84.8827 78.3784L86.7907 78.2572L86.8163 78.528L84.9083 78.6492ZM87.4523 78.4877L87.4266 78.2169L89.3345 78.0957L89.3601 78.3665L87.4523 78.4877Z" fill="#3F3D56"/>
<path id="Vector_12" d="M89.9961 78.3263L89.9704 78.0555L90.6869 78.01L90.2976 77.5166L90.5771 77.3694L91.2678 78.2455L89.9961 78.3263Z" fill="#3F3D56"/>
<path id="Vector_13" d="M89.8822 76.9898L88.6359 75.4095L88.9153 75.2623L90.1616 76.8426L89.8822 76.9898ZM88.2205 74.8828L86.9742 73.3025L87.2537 73.1553L88.4999 74.7356L88.2205 74.8828Z" fill="#3F3D56"/>
<path id="Wheel" d="M83.749 84.1705C89.9895 84.1705 95.0485 80.0364 95.0485 74.9367C95.0485 69.837 89.9895 65.7029 83.749 65.7029C77.5085 65.7029 72.4495 69.837 72.4495 74.9367C72.4495 80.0364 77.5085 84.1705 83.749 84.1705Z" fill="#6C63FF"/>
<path id="Vector_14" d="M93.0545 85.6642L76.5207 61.697L72.865 64.6844L89.1495 85.5963L93.0545 85.6642Z" fill="#3F3D56"/>
<path id="Vector_15" d="M42.9546 85.0532L80.0933 54.2964L83.1675 59.2528L47.9397 86.4111L42.9546 85.0532Z" fill="#3F3D56"/>
<path id="Vector_16" d="M58.076 81.794C62.2057 81.794 65.5536 79.0582 65.5536 75.6834C65.5536 72.3086 62.2057 69.5728 58.076 69.5728C53.9462 69.5728 50.5984 72.3086 50.5984 75.6834C50.5984 79.0582 53.9462 81.794 58.076 81.794Z" fill="#3F3D56"/>
<path id="Vector_17" d="M48.1058 77.4487C48.0618 77.4488 48.0195 77.4631 47.9884 77.4885C47.9572 77.514 47.9397 77.5485 47.9397 77.5845V78.6709C47.9397 78.7069 47.9572 78.7414 47.9884 78.7668C48.0195 78.7923 48.0618 78.8066 48.1058 78.8066H52.2601C52.3041 78.8066 52.3464 78.7923 52.3775 78.7668C52.4087 78.7414 52.4262 78.7069 52.4262 78.6709V77.5845C52.4262 77.5485 52.4087 77.514 52.3775 77.4885C52.3464 77.4631 52.3041 77.4488 52.2601 77.4487H48.1058Z" fill="#6C63FF"/>
<path id="Vector_18" d="M57.6606 62.3081C57.6165 62.3081 57.5743 62.3225 57.5431 62.3479C57.5119 62.3734 57.4944 62.4079 57.4944 62.4439V63.5302C57.4944 63.5662 57.5119 63.6007 57.5431 63.6262C57.5743 63.6516 57.6165 63.666 57.6606 63.666H61.8148C61.8588 63.666 61.9011 63.6516 61.9322 63.6262C61.9634 63.6007 61.9809 63.5662 61.9809 63.5302V62.4439C61.9809 62.4079 61.9634 62.3734 61.9322 62.3479C61.9011 62.3225 61.8588 62.3081 61.8148 62.3081H57.6606Z" fill="#6C63FF"/>
<path id="Vector_19" d="M77.85 60.0673H73.5297V57.3515L75.1913 56.8083L77.85 58.4378V60.0673Z" fill="#3F3D56"/>
<path id="Vector_20" d="M74.0764 56.1207L73.6258 56.2949L74.4784 57.7679L74.9291 57.5937L74.0764 56.1207Z" fill="#3F3D56"/>
<path id="Vector_21" d="M74.5541 54.3582C74.5224 54.3582 74.4913 54.3657 74.4647 54.3798L71.5296 55.9224C71.4926 55.9419 71.4666 55.9726 71.4572 56.0078C71.4479 56.0429 71.456 56.0797 71.4798 56.11L72.1989 57.0237C72.2227 57.0539 72.2603 57.0752 72.3033 57.0829C72.3464 57.0905 72.3914 57.0839 72.4285 57.0645L75.3635 55.5219V55.5219C75.4005 55.5024 75.4266 55.4717 75.4359 55.4365C75.4452 55.4013 75.4371 55.3645 75.4133 55.3342L74.6943 54.4206C74.6825 54.4055 74.6672 54.3926 74.6493 54.3824C74.6314 54.3722 74.6112 54.3651 74.5898 54.3613C74.5781 54.3592 74.5661 54.3582 74.5541 54.3582Z" fill="#6C63FF"/>
<path id="Vector_22" d="M81.1734 59.7959L77.767 46.2846L81.755 45.7415L84.4742 56.6259C84.5911 57.0205 84.592 57.432 84.477 57.827C84.3619 58.2219 84.1341 58.589 83.8122 58.8981C83.4902 59.2073 83.0833 59.4499 82.6247 59.6059C82.1661 59.7619 81.6688 59.827 81.1734 59.7959Z" fill="#3F3D56"/>
<path id="Vector_23" d="M93.7244 43.6224L89.7793 43.3921C89.7266 43.3891 89.6755 43.3757 89.6303 43.3533C89.5851 43.3308 89.5472 43.2999 89.5196 43.2631C89.4919 43.2262 89.4755 43.1845 89.4716 43.1414C89.4676 43.0983 89.4763 43.0551 89.497 43.0153L95.2275 31.9584C95.2491 31.9167 95.283 31.8802 95.3262 31.852C95.3695 31.8238 95.4206 31.8049 95.4751 31.7969L99.3663 31.2291C99.4245 31.2206 99.4843 31.2249 99.5398 31.2416C99.5952 31.2583 99.6442 31.2868 99.6816 31.3241C99.7191 31.3615 99.7437 31.4063 99.753 31.4539C99.7622 31.5016 99.7557 31.5504 99.7342 31.5954L94.0575 43.4505C94.0317 43.5044 93.9854 43.5502 93.9255 43.5812C93.8656 43.6121 93.7951 43.6265 93.7244 43.6224Z" fill="#3F3D56"/>
<path id="pc" d="M90.3127 42.5501L93.4699 42.8217L98.6211 32.23L95.2977 32.6374L90.3127 42.5501Z" fill="#6C63FF"/>
<path id="Vector_24" d="M55.9158 71.6098L51.7616 75.0046L45.7795 53.6853L49.1029 54.0927L55.9158 71.6098Z" fill="#3F3D56"/>
<path id="Vector_25" d="M51.0746 54.0603L50.357 53.8844C48.9472 54.3924 47.4132 54.6283 45.8739 54.5739C45.5415 54.5626 45.2273 54.4463 44.9976 54.2496C44.768 54.0528 44.6406 53.7909 44.6425 53.519C44.6425 53.2389 44.7786 52.9704 45.0209 52.7724C45.2632 52.5744 45.5918 52.4631 45.9345 52.4631H52.2019C52.3716 52.4631 52.5343 52.5182 52.6543 52.6163C52.7743 52.7143 52.8417 52.8473 52.8417 52.9859C52.8417 53.1608 52.7916 53.3332 52.6956 53.4895C52.5995 53.6458 52.4601 53.7815 52.2884 53.8859C52.1167 53.9903 51.9175 54.0604 51.7068 54.0907C51.496 54.121 51.2795 54.1106 51.0746 54.0603Z" fill="#3F3D56"/>
<path id="Vector_26" d="M90.7728 40.7278C90.6123 40.7276 90.4562 40.7706 90.3286 40.8502L85.227 44.0382L79.5164 44.6468C78.5332 44.7517 77.8523 45.6257 77.767 46.4204L84.489 45.6575C85.4228 45.584 86.3053 45.2745 87.0138 44.772L91.2515 41.7771C91.3645 41.6974 91.4449 41.5914 91.4819 41.4733C91.519 41.3551 91.5109 41.2306 91.4588 41.1163C91.4067 41.0021 91.313 40.9036 91.1903 40.8341C91.0677 40.7647 90.922 40.7276 90.7728 40.7278Z" fill="#3F3D56"/>
<path id="Vector_27" d="M88.2802 38.6909C88.1197 38.6907 87.9636 38.7337 87.8361 38.8133L82.7345 42.0013L77.0239 42.61C76.0407 42.7148 75.3598 43.5888 75.2744 44.3835L81.9965 43.6207C82.9302 43.5471 83.8128 43.2376 84.5213 42.7352L88.7589 39.7402C88.8719 39.6605 88.9523 39.5545 88.9894 39.4364C89.0265 39.3183 89.0184 39.1937 88.9663 39.0795C88.9141 38.9652 88.8204 38.8667 88.6978 38.7973C88.5752 38.7278 88.4294 38.6907 88.2802 38.6909Z" fill="#3F3D56"/>
<path id="Vector_28" d="M91.3928 46.8956C90.2048 46.8935 89.034 46.6638 87.9745 46.2247C86.915 45.7856 85.9963 45.1495 85.2923 44.3675L85.9622 43.966C86.4995 44.5658 87.1801 45.0703 87.9627 45.4492C88.7454 45.828 89.6139 46.0732 90.5158 46.1701C91.4177 46.2669 92.3343 46.2133 93.2102 46.0126C94.086 45.8118 94.903 45.468 95.6117 45.002C96.3204 44.536 96.9061 43.9574 97.3335 43.3012C97.7609 42.645 98.0211 41.9248 98.0983 41.1841C98.1756 40.4435 98.0683 39.6977 97.7829 38.9918C97.4976 38.286 97.0401 37.6348 96.4381 37.0775L97.0609 36.6279C98.024 37.5195 98.6518 38.6193 98.8689 39.7953C99.086 40.9713 98.8831 42.1736 98.2847 43.2577C97.6862 44.3418 96.7176 45.2617 95.4951 45.907C94.2726 46.5523 92.8482 46.8956 91.3928 46.8956V46.8956Z" fill="#3F3D56"/>
<path id="Vector_29" d="M97.2087 84.9851H38.385V88.3799H97.2087V84.9851Z" fill="#3F3D56"/>
<path id="Vector_30" d="M82.7931 45.0898C83.0869 44.9938 83.3418 44.8324 83.5291 44.624C83.7163 44.4156 83.8283 44.1685 83.8524 43.9107C83.8764 43.6528 83.8116 43.3947 83.6653 43.1655C83.5189 42.9362 83.2969 42.7451 83.0243 42.6138L79.5117 40.9209L77.0192 42.0072L81.059 44.8532C81.2938 45.0186 81.5797 45.1282 81.8855 45.1699C82.1913 45.2116 82.5053 45.1839 82.7931 45.0898Z" fill="#FFB9B9"/>
<path id="leg" d="M55.2511 57.0801L57.5775 58.1664L71.9423 49.5259C72.4691 49.2317 72.9158 48.8517 73.2542 48.4098C73.5927 47.9678 73.8157 47.4734 73.9092 46.9577C74.026 46.3056 73.933 45.6399 73.6393 45.0261C73.3455 44.4124 72.8613 43.8717 72.2341 43.4574C69.0618 41.3518 65.1411 39.442 60.9839 37.594L54.8357 40.0382C57.3695 44.2839 60.1822 47.7844 64.3073 47.7784L55.2511 57.0801Z" fill="#6C63FF"/>
<path id="Vector_31" d="M54.237 59.8461C56.1671 61.4441 58.7088 62.5874 61.5477 63.5097C61.7617 63.579 61.9967 63.5923 62.2203 63.5479C62.444 63.5035 62.6453 63.4036 62.7966 63.2618C62.9802 63.0897 63.078 62.8675 63.0703 62.6392C63.0626 62.411 62.9501 62.1934 62.7551 62.0299L60.9149 60.4861L59.8031 57.25C57.4155 58.2144 55.8499 57.9986 55.5413 55.978L54.0363 57.6551C53.7455 57.9802 53.6059 58.3793 53.6427 58.7808C53.6795 59.1824 53.8902 59.5601 54.237 59.8461Z" fill="#2F2E41"/>
<path id="leg_2" d="M47.7735 74.1897L51.263 74.3255L59.2391 40.785L45.5302 37.1865C44.1615 41.3683 46.1937 48.2132 49.7675 56.2652L47.7735 74.1897Z" fill="#6C63FF"/>
<path id="Vector_32" d="M74.6097 18.8546C77.6382 18.8546 80.0933 16.8483 80.0933 14.3735C80.0933 11.8986 77.6382 9.89233 74.6097 9.89233C71.5812 9.89233 69.1262 11.8986 69.1262 14.3735C69.1262 16.8483 71.5812 18.8546 74.6097 18.8546Z" fill="#FFB9B9"/>
<path id="Vector_33" d="M64.5566 19.8729L68.0461 21.9098L73.3635 17.5645L70.7048 14.8486L64.5566 19.8729Z" fill="#FFB9B9"/>
<path id="Vector_34" d="M44.9486 37.5259C49.2521 40.3917 53.9515 42.2755 59.7377 41.4639C61.4861 39.1796 62.7771 34.3676 64.972 32.2979C69.7652 27.7783 72.1424 23.7498 70.6217 20.0767C69.1434 19.2869 69.2085 19.2882 68.1292 16.6819C59.675 17.96 51.4905 25.7589 44.9486 37.5259Z" fill="#E6E6E6"/>
<path id="Vector_35" d="M47.7177 76.9843C50.2015 77.9442 53.0689 78.3056 56.1227 78.3761C56.3528 78.3812 56.5791 78.3278 56.7706 78.2234C56.962 78.119 57.1092 77.9686 57.1917 77.7931C57.292 77.58 57.2905 77.3438 57.1875 77.1316C57.0844 76.9193 56.8874 76.7465 56.6356 76.6475L54.259 75.7133L51.8561 72.9854C50.0183 74.5606 48.4571 74.7967 47.319 72.9854L46.6094 74.9826C46.4726 75.3694 46.5091 75.7835 46.7122 76.1503C46.9153 76.5172 47.2718 76.8129 47.7177 76.9843Z" fill="#2F2E41"/>
<path id="Vector_36" d="M76.6869 42.9576L79.8441 41.0565L72.865 31.0079L70.8461 22.0989C70.7131 21.5118 70.3327 20.9814 69.7711 20.5996C69.2094 20.2178 68.5019 20.0088 67.7713 20.0088C67.2935 20.0088 66.8221 20.0983 66.3932 20.2703C65.9643 20.4424 65.5894 20.6925 65.2972 21.0014C65.005 21.3103 64.8034 21.6699 64.7077 22.0524C64.612 22.4349 64.6248 22.8303 64.7452 23.2081L67.8799 33.0448L76.6869 42.9576Z" fill="#E6E6E6"/>
<path id="Vector_37" d="M60.8178 63.53H58.9899V71.6775H60.8178V63.53Z" fill="#3F3D56"/>
<path id="Vector_38" d="M78.9501 13.0738C79.1648 13.2841 79.4401 13.4474 79.7513 13.549C80.0625 13.6506 80.3997 13.6873 80.7326 13.6559C81.3927 13.5718 81.9802 13.1116 82.0225 12.5668C82.059 12.0963 81.7205 11.6648 81.3654 11.2933C80.5819 10.4741 79.6514 9.75623 78.6054 9.16413C78.1066 8.88197 77.5563 8.62221 76.9508 8.59179C76.6513 8.57673 76.351 8.61894 76.0511 8.6084C75.4997 8.58904 74.983 8.39406 74.4451 8.29307C73.8928 8.19253 73.3205 8.1901 72.767 8.28595C72.2134 8.3818 71.6915 8.5737 71.2366 8.84865C70.9332 9.03808 70.6588 9.25664 70.4194 9.49963C69.757 10.1616 69.3128 10.9511 69.1289 11.7929C68.8398 13.1273 69.2007 14.5908 68.416 15.7846C69.3368 15.7144 70.0749 15.1407 70.9496 14.8955C71.5987 14.7154 72.3032 14.7205 72.9482 14.91C73.1144 14.9796 73.3017 15.0083 73.4874 14.9924C73.6408 14.9482 73.7749 14.868 73.873 14.762L75.5456 13.2748C75.886 12.9721 76.2727 12.6497 76.7731 12.6078C77.0719 12.5993 77.369 12.6475 77.6412 12.7485C78.3118 12.9557 78.9605 13.2076 79.5806 13.5016" fill="#2F2E41"/>
<path id="Vector_39" d="M75.7729 44.1118L75.2744 44.3834L78.5978 47.0992L80.5918 45.6055L77.2684 43.4329L75.7729 44.1118Z" fill="#3F3D56"/>
<path id="Vector_40" d="M41.1533 0H0V34.7966H41.1533V0Z" fill="#E6E6E6"/>
<path id="Vector_41" d="M38.9566 1.85767H2.19675V32.939H38.9566V1.85767Z" fill="white"/>
<path id="Vector_42" d="M9.34863 33.4821H10.6579L10.6496 33.0514L10.6271 32.096L10.4196 22.2719L10.4168 22.226L10.3103 17.2063L10.0495 5.00391H9.99071L9.71304 17.2956L9.6037 22.2283L9.60088 22.2742L9.34863 33.4821Z" fill="#E6E6E6"/>
<path id="Vector_43" d="M13.8404 31.6792L13.3535 30.9233L9.85928 32.4267L10.3462 33.1825L13.8404 31.6792Z" fill="#E6E6E6"/>
<path id="Vector_44" d="M21.4358 0.930176H19.7741V33.7918H21.4358V0.930176Z" fill="#E6E6E6"/>
<path id="Vector_45" d="M41.1533 16.6819H0V18.0398H41.1533V16.6819Z" fill="#E6E6E6"/>
</g>
<defs>
<clipPath id="clip0">
<rect width="128" height="88.38" fill="white"/>
</clipPath>
</defs>
</svg>
