<svg width="128" height="89" viewBox="0 0 128 89" fill="none" xmlns="http://www.w3.org/2000/svg">
<g id="undraw_personal_trainer_ote3 1" clip-path="url(#clip0)">
<path id="bg" opacity="0.1" d="M74.3695 14.5713C66.1637 14.2756 58.349 11.5454 50.8909 8.55511C43.4328 5.56479 36.0358 2.25126 28.0266 0.667269C22.8694 -0.351662 16.9778 -0.494931 12.8271 2.35556C8.83304 5.09716 7.54207 9.83078 6.84881 14.2217C6.32664 17.5261 6.02 21.0046 7.44985 24.097C8.44308 26.2449 10.2062 28.0501 11.4261 30.1074C15.6723 37.264 12.6726 46.0905 8.07201 53.0798C5.91446 56.3578 3.4125 59.4857 1.74823 62.9757C0.0839557 66.4657 -0.685964 70.4647 0.770551 74.0246C2.21484 77.5525 5.65338 80.2035 9.37965 82.0672C16.9478 85.8495 25.8657 86.9372 34.5615 87.5515C53.8117 88.9097 73.1641 88.3218 92.4654 87.7326C99.608 87.5149 106.783 87.2937 113.809 86.1544C117.712 85.5217 121.74 84.5177 124.573 82.0924C128.17 79.015 129.061 73.8034 126.651 69.9432C122.609 63.4697 111.43 61.8628 108.607 54.9148C107.052 51.0912 108.649 46.831 110.909 43.2847C115.757 35.6766 123.883 29.0025 124.312 20.3055C124.605 14.3329 120.699 8.35224 114.659 5.52009C108.326 2.55843 99.5491 2.93093 94.8774 7.83418C90.0679 12.8887 81.6155 14.8315 74.3695 14.5713Z" fill="#6C63FF"/>
<g id="Group" opacity="0.5">
<path id="Vector" opacity="0.5" d="M55.6342 46.1421L51.9168 46.2212L51.3091 47.0819V50.0562L52.0679 50.6041H55.6342L56.393 49.7433V46.9249L55.6342 46.1421Z" fill="#6C63FF"/>
<path id="Vector_2" opacity="0.2" d="M55.5564 46.6118C55.5564 46.6118 52.1424 47.1597 51.8391 46.6118L51.9157 46.221L55.5564 46.1384V46.6118Z" fill="white"/>
<path id="Vector_3" opacity="0.5" d="M55.9375 54.7518L56.5441 55.3788V58.3588L55.9375 58.9754C55.9375 58.9754 53.7377 59.7583 52.2957 59.1313L51.6124 58.4276V55.4476L52.2201 54.7427L55.9375 54.7518Z" fill="#6C63FF"/>
<path id="Vector_4" opacity="0.2" d="M55.7853 55.4566C55.7853 55.4566 53.13 56.0824 52.2201 55.4566V54.7517H55.9375L55.7853 55.4566Z" fill="white"/>
<path id="Vector_5" opacity="0.5" d="M54.4954 50.5831V54.817C54.4868 54.9847 54.4142 55.142 54.2934 55.2546C54.1726 55.3671 54.0136 55.4257 53.851 55.4176C53.6885 55.4257 53.5294 55.3671 53.4087 55.2546C53.2879 55.142 53.2153 54.9847 53.2067 54.817V50.5831C53.2067 50.2232 53.54 49.9447 53.9266 49.986C54.0762 49.9955 54.217 50.0617 54.3221 50.172C54.4271 50.2822 54.4888 50.4287 54.4954 50.5831Z" fill="#6C63FF"/>
<path id="Vector_6" opacity="0.5" d="M61.588 46.2634L57.8706 46.3414L57.2629 47.2021V50.1764L58.0217 50.7243H61.588L62.3468 49.8635V47.0451L61.588 46.2634Z" fill="#6C63FF"/>
<path id="Vector_7" opacity="0.2" d="M61.5114 46.732C61.5114 46.732 58.0973 47.2799 57.794 46.732L57.8695 46.3411L61.5114 46.2632V46.732Z" fill="white"/>
<path id="Vector_8" opacity="0.5" d="M61.8891 54.8721L62.4957 55.499V58.479L61.8891 59.0991C61.8891 59.0991 59.6882 59.8819 58.2473 59.255L57.564 58.5512V55.577L58.1717 54.8721H61.8891Z" fill="#6C63FF"/>
<path id="Vector_9" opacity="0.2" d="M61.7391 55.577C61.7391 55.577 59.0838 56.2028 58.1739 55.577V54.8721H61.8891L61.7391 55.577Z" fill="white"/>
<path id="Vector_10" opacity="0.5" d="M60.4448 50.7037V54.9376C60.4359 55.1052 60.3632 55.2623 60.2425 55.3748C60.1218 55.4873 59.9629 55.546 59.8004 55.5382C59.6378 55.5463 59.4786 55.4877 59.3577 55.3752C59.2367 55.2627 59.1639 55.1054 59.1549 54.9376V50.7037C59.1549 50.3439 59.4882 50.0653 59.876 50.1066C60.0256 50.1161 60.1664 50.1823 60.2715 50.2926C60.3765 50.4028 60.4382 50.5493 60.4448 50.7037Z" fill="#6C63FF"/>
<path id="Vector_11" opacity="0.5" d="M69.1672 48.5269L66.1064 48.5922L65.6065 49.3005V51.7487L66.2309 52.2003H69.1672L69.7916 51.4908V49.171L69.1672 48.5269Z" fill="#6C63FF"/>
<path id="Vector_12" opacity="0.2" d="M69.1039 48.9145C69.1039 48.9145 66.2942 49.3649 66.0442 48.9145L66.1065 48.5924L69.1061 48.5271L69.1039 48.9145Z" fill="white"/>
<path id="Vector_13" opacity="0.5" d="M69.4161 55.6147L69.9161 56.1305V58.5787L69.4161 59.0945C69.4161 59.0945 67.6052 59.7386 66.4165 59.2228L65.8543 58.6429V56.1947L66.3542 55.6147H69.4161Z" fill="#6C63FF"/>
<path id="Vector_14" opacity="0.2" d="M69.2917 56.1947C69.2917 56.1947 67.1052 56.7105 66.3564 56.1947V55.6147H69.4161L69.2917 56.1947Z" fill="white"/>
<path id="Vector_15" opacity="0.5" d="M68.2296 52.1832V55.6687C68.2224 55.8067 68.1625 55.9362 68.0629 56.0288C67.9634 56.1214 67.8324 56.1695 67.6985 56.1627C67.5648 56.1695 67.4338 56.1214 67.3345 56.0288C67.2351 55.9361 67.1755 55.8066 67.1686 55.6687V52.1832C67.1728 52.1095 67.1919 52.0375 67.2248 51.9718C67.2576 51.9062 67.3033 51.8484 67.3591 51.8021C67.4149 51.7558 67.4794 51.722 67.5486 51.703C67.6177 51.6839 67.69 51.68 67.7607 51.6915C67.8839 51.6993 68 51.7538 68.0865 51.8446C68.1731 51.9354 68.224 52.056 68.2296 52.1832Z" fill="#6C63FF"/>
<path id="Vector_16" opacity="0.5" d="M74.0679 48.6267L71.0071 48.6909L70.5083 49.3992V51.8485L71.1326 52.299H74.0679L74.6923 51.5907V49.2708L74.0679 48.6267Z" fill="#6C63FF"/>
<path id="Vector_17" opacity="0.2" d="M74.0056 49.013C74.0056 49.013 71.1948 49.4646 70.9448 49.013L71.007 48.6909L74.0067 48.6267L74.0056 49.013Z" fill="white"/>
<path id="Vector_18" opacity="0.5" d="M74.3178 55.7146L74.8167 56.2292V58.6774L74.3178 59.1932C74.3178 59.1932 72.5058 59.8373 71.3181 59.3227L70.7571 58.7462V56.2946L71.257 55.7146H74.3178Z" fill="#6C63FF"/>
<path id="Vector_19" opacity="0.2" d="M74.1923 56.2946C74.1923 56.2946 72.007 56.8092 71.2571 56.2946V55.7146H74.3178L74.1923 56.2946Z" fill="white"/>
<path id="Vector_20" opacity="0.5" d="M73.1313 52.2818V55.7661C73.1241 55.9042 73.0642 56.0337 72.9646 56.1263C72.8651 56.2189 72.7341 56.267 72.6002 56.2601C72.4664 56.267 72.3353 56.2189 72.2358 56.1263C72.1363 56.0337 72.0763 55.9042 72.0692 55.7661V52.2818C72.0692 51.9861 72.3469 51.7569 72.6624 51.7913C72.7855 51.7988 72.9016 51.8531 72.9882 51.9437C73.0747 52.0343 73.1257 52.1547 73.1313 52.2818Z" fill="#6C63FF"/>
</g>
<path id="Vector_21" d="M116.55 61.2758C116.311 60.8299 115.865 60.5365 115.395 60.4013C114.919 60.2834 114.427 60.2516 113.941 60.3073C113.156 60.3649 112.378 60.4973 111.616 60.7027C111.144 60.8311 110.654 61.003 110.335 61.3904C110.326 61.4019 110.316 61.4156 110.306 61.4271C109.819 61.5589 109.334 61.7618 108.862 61.9268C108.388 62.089 107.906 62.2241 107.418 62.3314C108.057 61.9566 108.679 61.56 109.205 61.0305C109.454 60.7813 109.678 60.5063 109.872 60.2099C110.233 60.3165 110.611 60.3427 110.983 60.2867C111.735 60.1537 112.343 59.599 112.908 59.058L114.727 57.3319C115.017 57.0568 115.311 56.7748 115.505 56.4149C115.766 55.9141 115.789 55.3181 115.796 54.7461C115.805 53.9599 115.796 53.1736 115.773 52.3885L116.349 52.847C116.261 51.8786 116.436 50.9041 116.853 50.032C117.053 49.616 117.316 49.2022 117.321 48.7357C117.33 48.0159 116.73 47.4497 116.116 47.1311C115.501 46.8125 114.81 46.6084 114.307 46.119C113.558 45.3912 113.418 44.2302 113.048 43.233C112.829 42.6871 112.569 42.1594 112.271 41.6548L111.551 40.3596C111.189 39.6771 110.785 39.019 110.342 38.3894C109.593 37.3704 108.65 36.5303 107.713 35.6994L102.843 31.3703C101.658 30.317 100.47 29.2625 99.1885 28.341C96.5899 26.4717 93.658 25.188 90.745 23.9169C90.0117 23.596 89.2485 23.2704 88.4552 23.3094C87.8577 23.3494 87.2915 23.5993 86.8509 24.0177C86.4335 23.8869 86.0252 23.7269 85.6289 23.5386L85.5977 23.5237C85.6066 23.4561 85.6166 23.3896 85.6233 23.322C85.6333 23.2326 85.6389 23.1432 85.6455 23.0527C85.8649 23.0178 86.0773 22.9462 86.2743 22.8406C86.3743 22.7919 86.4627 22.7211 86.5332 22.6332C86.6227 22.4801 86.6685 22.3041 86.6654 22.1254C86.7543 20.9277 86.8432 19.7185 86.7476 18.5265C86.6521 17.3345 86.3621 16.1276 85.7477 15.1144C85.5577 14.8004 85.32 14.4943 84.99 14.3579C84.5456 14.1746 84.0312 14.3453 83.5568 14.2628C82.7358 14.1195 82.2236 13.2909 81.6293 12.68C80.1261 11.1338 77.5553 10.9011 75.8199 12.1527C75.1622 12.6284 74.6356 13.2737 74.049 13.8422C73.4623 14.4107 72.7746 14.9253 71.9825 15.0365C71.8365 15.0428 71.6935 15.082 71.5637 15.1511C71.4014 15.2565 71.3281 15.4594 71.2659 15.6474C71.0437 16.2961 70.8304 16.962 70.7626 17.6405C70.7548 17.5993 70.7482 17.558 70.7415 17.5167C70.7113 17.768 70.705 18.0218 70.7226 18.2744C70.7448 18.5962 70.8351 18.9092 70.987 19.1913C71.1135 19.4594 71.3292 19.6718 71.5948 19.7896C71.7826 19.8581 71.981 19.8911 72.1803 19.887H72.268C72.2358 19.9753 72.2047 20.0635 72.1758 20.1529C71.9284 20.9103 71.8027 21.7044 71.8036 22.5037C71.8036 26.5152 74.9066 29.7657 78.7374 29.7657C79.1984 29.7634 79.658 29.7135 80.1094 29.6167C80.2594 29.666 80.4094 29.7164 80.5538 29.7703C80.8496 29.8711 81.1396 29.989 81.4226 30.1233C81.5426 30.1818 82.0281 30.474 82.6147 30.8511L82.5747 30.9371C82.0024 31.4885 81.5826 32.187 81.3583 32.9611C81.1339 33.7351 81.1132 34.5567 81.2982 35.3417C81.7226 37.0461 83.1147 38.5074 82.9747 40.2622C82.9547 40.5121 82.9036 40.7654 82.9447 41.0129C83.0014 41.3568 83.2269 41.6364 83.4524 41.8909C83.6479 42.1132 83.8513 42.3287 84.0579 42.5396C84.0412 43.6594 83.9468 44.778 83.8446 45.8944C83.8357 45.9918 83.8335 46.0904 83.8324 46.1901C83.8384 46.6727 84.0082 47.1379 84.3123 47.5047C84.6345 47.9093 84.7634 48.5157 84.7023 49.0566C84.6145 49.8314 84.2446 50.534 83.9968 51.2687C82.8791 54.5731 84.2523 58.2992 83.4791 61.7113C83.2891 62.5515 82.9691 63.3687 82.9236 64.2329C82.898 64.7727 82.9802 65.3389 82.7792 65.8375C82.6047 66.2707 82.2414 66.5836 81.8981 66.8874C81.413 67.316 80.9405 67.7592 80.4805 68.2169C79.7853 67.8248 79.0678 67.4765 78.3318 67.1739C78.2118 67.124 78.0895 67.0804 77.9652 67.0432C77.0964 66.2043 76.001 65.6679 74.9722 65.0512C74.1189 64.5412 73.3057 63.9681 72.488 63.395C71.7103 62.8449 70.9159 62.2901 70.2582 61.583C69.9249 61.2254 69.6283 60.8311 69.2694 60.5044C68.954 60.2336 68.6199 59.9869 68.2695 59.7663C66.6932 58.7128 65.1904 57.5466 63.7722 56.2763C62.6912 55.3089 61.8069 54.063 60.6515 53.1954C59.9437 52.6636 59.1205 52.1788 58.2539 52.2785C57.978 52.312 57.7104 52.397 57.464 52.5295C57.2343 52.429 56.9889 52.3723 56.7396 52.3621C56.0353 52.3392 55.3887 52.7335 54.7843 53.1129C51.2291 55.3418 47.6184 57.4713 43.9521 59.5015C43.2122 59.9119 42.4678 60.3188 41.7612 60.7887C40.3825 61.7087 39.161 62.8578 38.146 64.1893C37.9594 64.4334 37.7238 64.7108 37.4272 64.6741C37.346 64.6613 37.2679 64.6325 37.1972 64.5893C36.7406 64.3337 36.4606 63.8397 36.1973 63.371C36.0062 63.0271 35.7996 62.6684 35.5196 62.4071C35.4597 62.2444 35.3798 62.0903 35.2819 61.9486C35.6763 60.9446 36.0162 59.9165 36.3318 58.8815C36.4962 58.3382 36.6551 57.7915 36.865 57.2643C37.3828 55.9599 38.2082 54.7782 38.5004 53.3983C38.5704 53.0647 38.6115 52.722 38.666 52.3851C41.8601 51.7363 44.2709 48.793 44.2709 45.2583C44.2709 41.2467 41.1668 37.9962 37.3372 37.9962C33.5076 37.9962 30.4046 41.2467 30.4046 45.2583C30.4012 46.4793 30.6955 47.6816 31.2604 48.7545C31.8254 49.8275 32.6429 50.7366 33.6376 51.3982C33.6376 51.412 33.6376 51.4257 33.6376 51.4383C33.6309 51.6688 33.609 51.8986 33.5721 52.126C33.4443 52.894 33.1277 53.616 32.8088 54.3163C32.5977 54.7851 32.3866 55.2562 32.1678 55.7238C32.0627 55.7021 31.9608 55.6666 31.8645 55.6184C31.6767 55.5106 31.5945 55.2745 31.5234 55.0659C31.2087 54.1101 30.8236 53.1805 30.3713 52.2854C30.1949 51.9049 29.9707 51.55 29.7047 51.2297C29.2358 50.7002 28.5937 50.3862 27.9726 50.0687C27.8615 50.0137 27.7582 49.9541 27.6516 49.9014C27.5593 49.8306 27.4628 49.7659 27.3627 49.7077C26.8461 49.4062 26.2728 49.1896 25.8417 48.7678C25.5184 48.4515 25.2962 48.04 24.9941 47.7042C24.4908 47.146 23.7964 46.8274 23.122 46.5236C22.771 46.3655 22.4021 46.2039 22.0188 46.2256C21.9648 46.2283 21.911 46.2345 21.8577 46.244C21.7655 46.2602 21.6743 46.2816 21.5844 46.3082C21.4969 46.2602 21.4143 46.2034 21.3378 46.1385C20.9256 45.8107 20.7656 45.248 20.6312 44.7242C20.409 43.8485 20.1746 42.9419 20.3123 42.0456C20.3363 41.891 20.3689 41.7379 20.4101 41.5871C20.4445 41.5287 20.4779 41.4725 20.5079 41.4095C21.3924 41.1352 22.2006 40.6468 22.8651 39.9851C23.5296 39.3233 24.0311 38.5072 24.328 37.605C24.6248 36.7027 24.7084 35.7403 24.5717 34.7979C24.435 33.8556 24.0819 32.9606 23.542 32.1875C23.4853 32.1073 23.4309 32.0294 23.3676 31.9514L23.4342 31.9136C24.0486 31.5262 24.1886 30.6001 23.9042 29.9101C23.6198 29.2201 23.0154 28.733 22.4032 28.3502C22.3143 28.294 22.2243 28.2413 22.1332 28.1886L22.0555 28.145C21.9866 28.1061 21.9188 28.0683 21.8499 28.0304L21.7688 27.988C21.6877 27.9456 21.6066 27.9055 21.5255 27.8665L21.4889 27.8482C21.3878 27.8012 21.2867 27.7554 21.1845 27.7118C21.0856 27.6694 20.9867 27.6304 20.8867 27.5972L20.8456 27.5811C20.7512 27.5456 20.6556 27.5124 20.5601 27.4803L20.539 27.4734C19.8401 27.2391 19.1116 27.1124 18.377 27.0975C17.6578 27.1019 16.941 27.1837 16.2383 27.3416C15.5541 27.4694 14.8841 27.6679 14.2385 27.9342C13.1714 28.4007 12.2307 29.1285 11.4977 30.0545C11.3432 30.0666 11.19 30.0927 11.04 30.1325C10.4389 30.2895 9.89785 30.6356 9.40346 31.0276C8.98937 31.3417 8.62248 31.7171 8.31468 32.1417C7.95217 32.6858 7.70219 33.301 7.58031 33.9492C7.15925 35.9813 7.67697 38.0753 8.05804 40.1178C8.43911 42.1602 8.65909 44.3861 7.72474 46.2188C7.37256 46.9065 6.87261 47.5036 6.50265 48.1787C6.13269 48.8538 5.87605 49.6687 6.08936 50.4171C6.34822 51.326 7.20035 51.898 7.64475 52.7232C8.1647 53.6848 8.02138 54.9765 7.34145 55.8178C7.31145 55.8545 7.28146 55.8912 7.24924 55.9324C7.21702 55.9737 7.17147 56.0172 7.12925 56.0562C7.83029 56.3107 8.61132 56.0367 9.24014 55.6287C9.74303 55.3222 10.1695 54.8987 10.4856 54.392C11.2799 53.0464 10.9233 51.3065 11.2033 49.7512C11.571 47.7145 13.0553 45.8978 12.8509 43.8359C12.7131 42.4525 11.8376 41.296 11.1499 40.1063C10.6928 39.3078 10.3097 38.4666 10.0056 37.5939C9.9934 37.5573 9.98117 37.5194 9.96784 37.4793C9.76675 36.8891 9.61232 36.2633 9.71565 35.6455C9.75088 35.4454 9.80906 35.2503 9.88896 35.0644C9.88896 35.0862 9.88896 35.1091 9.88896 35.1309C9.90248 35.7284 10.0313 36.3171 10.2678 36.8627C10.9622 38.3527 12.6331 39.0404 13.6941 40.2484C13.7386 40.2989 13.7808 40.3504 13.823 40.4032C13.8352 40.4169 13.8463 40.4318 13.8574 40.4467L13.9474 40.5613L13.9852 40.6152C14.013 40.6553 14.0408 40.6954 14.0663 40.7367L14.1007 40.7883C14.1363 40.8467 14.1718 40.9029 14.2052 40.9659C14.4752 40.6576 14.754 40.3333 14.8629 39.9344C14.8729 39.9 14.8796 39.8645 14.8862 39.8289C14.8951 39.8381 14.9029 39.8484 14.9118 39.8587C14.9329 39.9814 14.9495 40.104 14.9651 40.2278C14.9651 40.4047 14.9833 40.581 15.0195 40.7539C15.104 41.8542 15.0362 42.9843 14.9651 44.0881C14.9273 44.6783 15.0762 45.5551 14.7118 45.9953L14.7007 46.0079C14.6793 46.0335 14.6559 46.0573 14.6307 46.0789C14.5685 46.1454 14.5051 46.2107 14.4463 46.2795C13.2242 47.7007 12.6687 49.718 12.6976 51.6504C12.7264 53.8499 13.4075 55.9806 14.1796 58.0264C14.4493 58.7734 14.767 59.5009 15.1306 60.2041C15.3183 60.5838 15.5666 60.9283 15.865 61.2231C16.1772 61.5085 16.5572 61.6964 16.9316 61.8798C17.0249 61.9257 17.1193 61.9704 17.2126 62.0174L17.4515 62.132L19.2702 63.0237C19.6035 63.5291 19.9257 64.0483 20.2512 64.5687C20.2979 64.642 20.3434 64.7177 20.3912 64.791C20.7467 65.3641 21.1045 65.9372 21.4689 66.4942L24.5341 71.1774C24.7563 71.5213 24.9885 71.8651 25.3007 72.1196C25.3895 72.1916 25.4856 72.2534 25.5873 72.3041C25.639 72.3298 25.692 72.3523 25.7462 72.3717C25.6789 72.4759 25.6501 72.6016 25.6651 72.7259C25.7061 72.8476 25.784 72.9526 25.8873 73.025C26.5806 73.6164 27.3505 74.2399 27.5682 75.1488C27.7227 75.7964 27.5682 76.4899 27.7071 77.1409C27.9615 78.3145 29.087 79.0263 30.1513 79.4779C32.5366 80.4888 35.1863 80.8773 37.7205 80.4074C40.2547 79.9375 42.6622 78.5816 44.3032 76.5105C44.8075 75.8709 45.2375 75.1729 45.7163 74.5127C46.0496 74.0474 46.4163 73.6038 46.7951 73.1763C47.2039 72.9835 47.598 72.7589 47.9739 72.5047C48.7749 71.9557 49.4648 71.2508 50.1959 70.5975C50.7414 70.1069 51.3124 69.6439 51.8135 69.1075C52.2634 68.5987 52.6837 68.0629 53.0722 67.5029C53.961 66.2879 54.8791 65.0971 55.8264 63.9303C56.333 63.3056 56.8696 62.6695 57.5773 62.3257L57.6095 62.3119C57.694 62.8254 58.0884 63.2609 58.365 63.7045C59.5094 65.5383 60.707 67.4261 62.4757 68.5951C63.4445 69.2347 64.5399 69.6267 65.6332 69.9843C68.4106 70.8897 71.2326 71.6004 74.0567 72.3121C74.15 72.1287 74.2411 71.9591 74.3434 71.7941C74.3871 71.8418 74.4279 71.8923 74.4656 71.9453C74.4778 71.9637 74.4878 71.9832 74.5 72.0015C74.4796 72.0056 74.4595 72.0114 74.44 72.0187C74.2587 72.1058 74.1161 72.2607 74.0412 72.452C73.7368 73.0812 73.7079 73.8113 73.6934 74.515C73.6834 75.2027 73.6934 75.8904 73.6934 76.5781C73.6772 76.8348 73.7151 77.0921 73.8045 77.3323C74.0201 77.7907 74.5678 77.9615 75.0577 78.02C75.9088 78.1174 76.7664 78.0349 77.613 77.9168C77.6619 78.1228 77.7417 78.3197 77.8497 78.5002C78.3252 79.3025 79.1462 79.832 80.0005 80.1426C80.8549 80.4533 81.7604 80.577 82.648 80.7593C84.2245 81.0825 85.8377 81.5994 87.4053 81.2349C88.0308 81.0894 88.6274 80.8074 89.2529 80.6836C90.685 80.404 92.1693 80.9702 93.6114 80.7432C94.308 80.6286 94.9668 80.3421 95.5978 80.0131C95.9159 79.8692 96.2044 79.6637 96.4477 79.408C96.6788 79.1398 96.8177 78.7592 96.7221 78.412C96.6677 78.2125 96.5433 78.0429 96.4599 77.8549C96.3483 77.5543 96.2848 77.2368 96.2722 76.9151C96.1562 75.6978 95.9565 74.4905 95.6745 73.3024C95.6667 73.2692 95.6578 73.2348 95.6489 73.2004C96.7388 72.7545 97.7154 72.0542 98.6797 71.3574L100.754 69.8605C101.421 69.3757 102.104 68.8886 102.853 68.5493C104.001 68.0289 105.273 67.8799 106.526 67.8811C107.038 67.8811 107.551 67.9074 108.061 67.9556C107.996 68.0287 107.947 68.1155 107.918 68.21C107.815 68.5378 107.978 68.8977 108.219 69.1373C108.46 69.3768 108.774 69.5121 109.058 69.6783C109.84 70.133 110.492 70.7939 110.946 71.5935C111.231 72.0966 111.437 72.7075 111.257 73.2611C111.035 73.9557 110.243 74.4348 110.289 75.166C110.315 75.597 110.652 75.9535 111.035 76.1128C111.418 76.2721 111.844 76.2698 112.257 76.2572C112.934 76.2354 113.63 76.1815 114.236 75.8641C114.644 75.6497 114.989 75.3265 115.328 75.0067C115.637 74.7145 115.952 74.4107 116.128 74.0164C116.292 73.6451 116.318 73.2245 116.326 72.8164C116.359 70.8955 116.038 68.9482 116.408 67.0662C116.519 66.4931 116.697 65.9326 116.791 65.355C116.94 64.438 116.883 63.5119 116.827 62.5904C116.799 62.1366 116.766 61.6689 116.55 61.2758Z" fill="url(#paint0_linear)"/>
<path id="Vector_22" opacity="0.06" d="M93.077 34.709C92.6403 35.0127 92.4881 35.5995 92.4326 36.1405C92.1959 38.4409 93.1159 40.7183 93.0548 43.0301C93.0059 44.8697 92.3415 46.6244 91.686 48.3356C90.5683 51.2549 89.9862 54.4251 89.7606 57.5553C89.5351 60.6855 89.2052 63.9451 87.5764 66.5927C87.2065 67.1922 86.7754 67.7492 86.4132 68.3521C86.0333 68.9825 85.7322 69.6587 85.3967 70.3143C84.4081 72.2505 83.1338 74.0165 81.6193 75.5488C81.1749 75.9958 80.7038 76.429 80.1372 76.6869C79.7721 76.8504 79.3789 76.9368 78.9809 76.9411C78.5829 76.9455 78.1881 76.8676 77.8197 76.7121C77.0598 76.3878 76.4198 75.6565 76.3887 74.8084C76.3609 74.0496 76.7998 73.3654 77.2397 72.7579C78.7309 70.6999 80.4456 68.8248 82.3503 67.1693C82.6958 66.869 83.0602 66.5583 83.2391 66.1297C83.4402 65.6357 83.358 65.0752 83.3835 64.54C83.4246 63.6861 83.7468 62.8758 83.939 62.0436C84.7167 58.6636 83.3347 54.973 84.459 51.6985C84.709 50.9706 85.08 50.2749 85.1678 49.5081C85.23 48.9717 85.1011 48.3723 84.7756 47.97C84.4708 47.6085 84.3003 47.1471 84.2945 46.668C84.2945 46.5694 84.2946 46.472 84.3057 46.3757C84.4412 44.8754 84.5756 43.3682 84.5023 41.8633C84.429 40.3584 84.139 38.8455 83.4658 37.5079C83.1169 36.8145 82.6658 36.1657 82.4503 35.4173C82.1037 34.2058 82.4236 32.8958 82.9402 31.7496C83.3435 30.8533 83.8813 29.9994 84.6323 29.3851C86.0277 28.2447 88.1164 28.1129 89.644 29.0561C90.7705 29.7507 91.5416 30.9187 92.1671 32.1095C92.6159 32.9794 93.0836 33.7164 93.077 34.709Z" fill="black"/>
<path id="Vector_23" d="M89.374 25.5741C89.1607 26.1678 88.9485 26.7615 88.7374 27.3552C88.5974 27.7449 88.4585 28.1381 88.3141 28.5277C87.6475 30.3238 86.902 32.0911 85.7355 33.5777C85.9099 33.3553 84.269 32.2367 83.0591 31.4734C82.4692 31.0986 81.9803 30.8097 81.8603 30.7524C81.5752 30.6195 81.2833 30.5024 80.986 30.4017C80.5249 30.2412 80.0583 30.1026 79.5972 29.9295C78.5307 29.5318 79.2761 28.9346 79.7328 28.2928C81.2271 26.1907 81.5104 23.3185 83.2069 21.3872C83.829 22.6067 84.8133 23.5887 86.0155 24.1896C86.0388 24.2022 86.0632 24.2136 86.0877 24.2239C87.0954 24.7099 88.2086 24.9197 89.2507 25.3265C89.3074 25.3483 89.3729 25.3793 89.3918 25.4412C89.3988 25.4863 89.3927 25.5326 89.374 25.5741Z" fill="#A1616A"/>
<path id="Vector_24" d="M86.4732 68.0301C85.9906 68.7434 85.6902 69.5708 85.5999 70.4357C85.5096 71.3006 85.6323 72.175 85.9566 72.978C86.0386 73.2024 86.1663 73.406 86.331 73.5752C86.5407 73.7442 86.785 73.8618 87.0454 73.919C89.2518 74.5666 91.6071 74.4394 93.8669 74.0336C94.6324 73.9121 95.3847 73.7144 96.1133 73.4434C97.2321 73.0021 98.2309 72.2972 99.2174 71.5935L101.304 70.1103C101.979 69.6301 102.66 69.1476 103.415 68.8106C104.57 68.296 105.85 68.1481 107.109 68.1493C108.19 68.1506 109.269 68.2569 110.331 68.4668C111.038 68.6077 111.886 68.7533 112.384 68.2203C112.668 67.9189 112.753 67.4776 112.808 67.0616C113.028 65.4428 113.024 63.8 112.796 62.1824C112.79 62.0463 112.743 61.9157 112.659 61.8099C112.581 61.7412 112.486 61.6964 112.384 61.6804C111.401 61.4511 110.414 61.9268 109.459 62.2535C107.473 62.9343 105.341 63.0157 103.321 63.5761C101.202 64.1641 99.2108 65.277 97.0199 65.5028C95.9756 65.6105 94.9268 65.5166 93.8802 65.5406C92.9092 65.5624 92.0037 65.9085 91.0527 65.9498C89.2196 66.0335 87.6253 66.3636 86.4732 68.0301Z" fill="#A1616A"/>
<path id="Vector_25" opacity="0.06" d="M86.4732 68.0301C85.9906 68.7434 85.6902 69.5708 85.5999 70.4357C85.5096 71.3006 85.6323 72.175 85.9566 72.978C86.0386 73.2024 86.1663 73.406 86.331 73.5752C86.5407 73.7442 86.785 73.8618 87.0454 73.919C89.2518 74.5666 91.6071 74.4394 93.8669 74.0336C94.6324 73.9121 95.3847 73.7144 96.1133 73.4434C97.2321 73.0021 98.2309 72.2972 99.2174 71.5935L101.304 70.1103C101.979 69.6301 102.66 69.1476 103.415 68.8106C104.57 68.296 105.85 68.1481 107.109 68.1493C108.19 68.1506 109.269 68.2569 110.331 68.4668C111.038 68.6077 111.886 68.7533 112.384 68.2203C112.668 67.9189 112.753 67.4776 112.808 67.0616C113.028 65.4428 113.024 63.8 112.796 62.1824C112.79 62.0463 112.743 61.9157 112.659 61.8099C112.581 61.7412 112.486 61.6964 112.384 61.6804C111.401 61.4511 110.414 61.9268 109.459 62.2535C107.473 62.9343 105.341 63.0157 103.321 63.5761C101.202 64.1641 99.2108 65.277 97.0199 65.5028C95.9756 65.6105 94.9268 65.5166 93.8802 65.5406C92.9092 65.5624 92.0037 65.9085 91.0527 65.9498C89.2196 66.0335 87.6253 66.3636 86.4732 68.0301Z" fill="black"/>
<path id="Vector_26" d="M88.2664 65.6069C88.2141 65.8602 88.1675 66.1284 88.2408 66.376C88.3318 66.6195 88.4854 66.8327 88.6852 66.9926C90.5739 68.7371 93.2725 69.0981 95.7956 69.3812C96.4788 69.458 97.1743 69.5348 97.8509 69.4076C98.4675 69.293 99.043 69.0122 99.6107 68.7348C100.833 68.1376 102.062 67.5336 103.109 66.6557C104.137 65.796 104.961 64.6957 106.026 63.8854C107.235 62.9685 108.723 62.4435 109.803 61.3639C110.584 60.5868 111.103 59.5722 111.284 58.4687C111.406 57.7156 111.366 56.9466 111.284 56.1878C111.196 55.3156 111.055 54.4285 110.653 53.656C110.187 52.762 109.405 52.0869 108.58 51.5321C106.833 50.3608 104.777 49.6341 102.692 49.6524C99.8029 49.6788 97.1365 51.4129 95.0634 53.3603C92.8706 55.4227 91.0958 57.9132 89.8417 60.6876C89.1337 62.2589 88.6051 63.9098 88.2664 65.6069Z" fill="#464353"/>
<path id="Vector_27" opacity="0.06" d="M88.2664 65.6069C88.2141 65.8602 88.1675 66.1284 88.2408 66.376C88.3318 66.6195 88.4854 66.8327 88.6852 66.9926C90.5739 68.7371 93.2725 69.0981 95.7956 69.3812C96.4788 69.458 97.1743 69.5348 97.8509 69.4076C98.4675 69.293 99.043 69.0122 99.6107 68.7348C100.833 68.1376 102.062 67.5336 103.109 66.6557C104.137 65.796 104.961 64.6957 106.026 63.8854C107.235 62.9685 108.723 62.4435 109.803 61.3639C110.584 60.5868 111.103 59.5722 111.284 58.4687C111.406 57.7156 111.366 56.9466 111.284 56.1878C111.196 55.3156 111.055 54.4285 110.653 53.656C110.187 52.762 109.405 52.0869 108.58 51.5321C106.833 50.3608 104.777 49.6341 102.692 49.6524C99.8029 49.6788 97.1365 51.4129 95.0634 53.3603C92.8706 55.4227 91.0958 57.9132 89.8417 60.6876C89.1337 62.2589 88.6051 63.9098 88.2664 65.6069Z" fill="black"/>
<path id="Vector_28" d="M93.077 34.709C92.6403 35.0127 92.4881 35.5995 92.4326 36.1405C92.1959 38.4409 93.1159 40.7183 93.0548 43.0301C93.0059 44.8697 92.3415 46.6244 91.686 48.3356C90.5683 51.2549 89.9862 54.4251 89.7606 57.5553C89.5351 60.6855 89.2052 63.9451 87.5764 66.5927C87.2065 67.1922 86.7754 67.7492 86.4132 68.3521C86.0333 68.9825 85.7322 69.6587 85.3967 70.3143C84.4081 72.2505 83.1338 74.0165 81.6193 75.5488C81.1749 75.9958 80.7038 76.429 80.1372 76.6869C79.7721 76.8504 79.3789 76.9368 78.9809 76.9411C78.5829 76.9455 78.1881 76.8676 77.8197 76.7121C77.0598 76.3878 76.4198 75.6565 76.3887 74.8084C76.3609 74.0496 76.7998 73.3654 77.2397 72.7579C78.7309 70.6999 80.4456 68.8248 82.3503 67.1693C82.6958 66.869 83.0602 66.5583 83.2391 66.1297C83.4402 65.6357 83.358 65.0752 83.3835 64.54C83.4246 63.6861 83.7468 62.8758 83.939 62.0436C84.7167 58.6636 83.3347 54.973 84.459 51.6985C84.709 50.9706 85.08 50.2749 85.1678 49.5081C85.23 48.9717 85.1011 48.3723 84.7756 47.97C84.4708 47.6085 84.3003 47.1471 84.2945 46.668C84.2945 46.5694 84.2946 46.472 84.3057 46.3757C84.4412 44.8754 84.5756 43.3682 84.5023 41.8633C84.429 40.3584 84.139 38.8455 83.4658 37.5079C83.1169 36.8145 82.6658 36.1657 82.4503 35.4173C82.1037 34.2058 82.4236 32.8958 82.9402 31.7496C83.3435 30.8533 83.8813 29.9994 84.6323 29.3851C86.0277 28.2447 88.1164 28.1129 89.644 29.0561C90.7705 29.7507 91.5416 30.9187 92.1671 32.1095C92.6159 32.9794 93.0836 33.7164 93.077 34.709Z" fill="#A1616A"/>
<path id="Vector_29" d="M86.9387 42.4089C89.2611 42.4089 91.1438 39.3613 91.1438 35.6019C91.1438 31.8425 89.2611 28.7949 86.9387 28.7949C84.6163 28.7949 82.7336 31.8425 82.7336 35.6019C82.7336 39.3613 84.6163 42.4089 86.9387 42.4089Z" fill="#A1616A"/>
<path id="Vector_30" d="M76.2143 71.1728C76.3385 71.3534 76.4228 71.5599 76.4612 71.7778C76.4996 71.9956 76.4911 72.2195 76.4365 72.4336C76.8328 72.7272 77.3147 72.872 77.8019 72.8439C78.2854 72.8167 78.7608 72.7039 79.2073 72.5104C79.5956 72.3643 79.9632 72.1654 80.3005 71.919C80.8805 71.4766 81.3004 70.8439 81.6337 70.1883C81.8215 69.8261 81.9815 69.3573 81.7448 69.0318C81.6518 68.9214 81.5385 68.831 81.4115 68.7659C80.5555 68.2621 79.6642 67.825 78.7451 67.4581C78.4928 67.3381 78.2186 67.2748 77.9408 67.2725C77.5997 67.2919 77.2897 67.4845 77.0186 67.7C76.4094 68.1888 75.9181 68.8164 75.5832 69.5338C75.4788 69.7631 75.1633 70.3075 75.3199 70.5436C75.391 70.6525 75.6532 70.6903 75.7643 70.7591C75.941 70.8626 76.0943 71.0036 76.2143 71.1728Z" fill="#FBBEBE"/>
<path id="Vector_31" opacity="0.03" d="M76.2143 71.1728C76.3385 71.3534 76.4228 71.5599 76.4612 71.7778C76.4996 71.9956 76.4911 72.2195 76.4365 72.4336C76.8328 72.7272 77.3147 72.872 77.8019 72.8439C78.2854 72.8167 78.7608 72.7039 79.2073 72.5104C79.5956 72.3643 79.9632 72.1654 80.3005 71.919C80.8805 71.4766 81.3004 70.8439 81.6337 70.1883C81.8215 69.8261 81.9815 69.3573 81.7448 69.0318C81.6518 68.9214 81.5385 68.831 81.4115 68.7659C80.5555 68.2621 79.6642 67.825 78.7451 67.4581C78.4928 67.3381 78.2186 67.2748 77.9408 67.2725C77.5997 67.2919 77.2897 67.4845 77.0186 67.7C76.4094 68.1888 75.9181 68.8164 75.5832 69.5338C75.4788 69.7631 75.1633 70.3075 75.3199 70.5436C75.391 70.6525 75.6532 70.6903 75.7643 70.7591C75.941 70.8626 76.0943 71.0036 76.2143 71.1728Z" fill="black"/>
<path id="Vector_32" d="M80.8149 68.5172C82.6947 68.8771 84.4234 69.8146 86.271 70.3201C87.0187 70.5241 87.7886 70.6639 88.503 70.9642C89.2174 71.2645 89.8906 71.778 90.1984 72.5092C90.3285 72.8602 90.4147 73.2269 90.455 73.6004C90.535 74.1287 90.6005 74.719 90.2961 75.1523C89.9751 75.6107 89.3685 75.7116 88.8252 75.7792C86.8721 76.0187 84.9189 76.2594 82.9591 76.4291C82.5623 76.4539 82.1673 76.5025 81.7759 76.5746C81.4537 76.6411 81.1393 76.742 80.8194 76.8199C80.405 76.9196 79.9839 76.9827 79.5639 77.0491C78.4896 77.2084 77.403 77.3678 76.3243 77.2463C75.8321 77.1901 75.281 77.0262 75.0644 76.5677C74.9745 76.3301 74.9365 76.075 74.9533 75.8205C74.9478 75.1396 74.9422 74.46 74.9533 73.7803C74.9633 73.0823 74.9966 72.3579 75.3033 71.7356C75.3793 71.545 75.5227 71.3914 75.7043 71.3058C75.8161 71.2727 75.933 71.2618 76.0487 71.2737C76.6265 71.2943 77.2242 71.3195 77.7408 71.5854C78.1507 71.7952 78.484 72.1447 78.9018 72.335C79.6928 72.6972 80.6471 72.437 81.4482 72.7774C81.6348 72.1837 81.5926 71.5831 81.4537 70.9745C81.3149 70.3659 81.1204 69.7688 81.0616 69.1476C81.0592 69.0111 81.0337 68.8761 80.986 68.7487C80.926 68.6215 80.946 68.4977 80.8149 68.5172Z" fill="#464353"/>
<path id="Vector_33" opacity="0.06" d="M80.8149 68.5172C82.6947 68.8771 84.4234 69.8146 86.271 70.3201C87.0187 70.5241 87.7886 70.6639 88.503 70.9642C89.2174 71.2645 89.8906 71.778 90.1984 72.5092C90.3285 72.8602 90.4147 73.2269 90.455 73.6004C90.535 74.1287 90.6005 74.719 90.2961 75.1523C89.9751 75.6107 89.3685 75.7116 88.8252 75.7792C86.8721 76.0187 84.9189 76.2594 82.9591 76.4291C82.5623 76.4539 82.1673 76.5025 81.7759 76.5746C81.4537 76.6411 81.1393 76.742 80.8194 76.8199C80.405 76.9196 79.9839 76.9827 79.5639 77.0491C78.4896 77.2084 77.403 77.3678 76.3243 77.2463C75.8321 77.1901 75.281 77.0262 75.0644 76.5677C74.9745 76.3301 74.9365 76.075 74.9533 75.8205C74.9478 75.1396 74.9422 74.46 74.9533 73.7803C74.9633 73.0823 74.9966 72.3579 75.3033 71.7356C75.3793 71.545 75.5227 71.3914 75.7043 71.3058C75.8161 71.2727 75.933 71.2618 76.0487 71.2737C76.6265 71.2943 77.2242 71.3195 77.7408 71.5854C78.1507 71.7952 78.484 72.1447 78.9018 72.335C79.6928 72.6972 80.6471 72.437 81.4482 72.7774C81.6348 72.1837 81.5926 71.5831 81.4537 70.9745C81.3149 70.3659 81.1204 69.7688 81.0616 69.1476C81.0592 69.0111 81.0337 68.8761 80.986 68.7487C80.926 68.6215 80.946 68.4977 80.8149 68.5172Z" fill="black"/>
<path id="Vector_34" d="M18.0204 48.9741C17.6415 48.8503 17.276 49.1965 17.0638 49.5472C16.1817 50.9776 16.2539 52.8871 16.9594 54.4183C17.1272 54.8067 17.3587 55.1622 17.6437 55.4694C18.0259 55.8579 18.5181 56.1066 18.9769 56.3863C20.2501 57.1622 21.3412 58.219 22.1721 59.4809C22.7154 60.3073 23.1432 61.2162 23.7598 61.9853C25.2774 63.8787 27.7716 64.736 29.2436 66.6616C29.5958 67.12 29.8936 67.6518 30.3635 67.9854C30.6429 68.1835 30.9684 68.3011 31.3066 68.3261C31.6448 68.351 31.9833 68.2824 32.2871 68.1272C32.5909 67.9721 32.8491 67.736 33.035 67.4435C33.2208 67.151 33.3276 66.8126 33.3443 66.4633C33.9165 65.5956 34.3842 64.6374 34.8297 63.693C35.4889 62.2515 36.0458 60.7626 36.4962 59.2379C36.6617 58.6992 36.8217 58.1571 37.0328 57.6333C37.5539 56.3404 38.3838 55.1702 38.6771 53.804C38.7948 53.2561 38.8237 52.6865 38.9948 52.1547C39.1481 51.6773 39.4102 51.2449 39.7592 50.8939C40.9146 49.7351 41.5368 48.0469 42.4556 46.6829C42.8289 46.1316 43.2166 45.5815 43.4632 44.958C43.7099 44.3345 43.8043 43.6204 43.5743 42.99C43.3444 42.3596 42.7433 41.8507 42.0923 41.8863C41.8009 41.9175 41.5183 42.007 41.2601 42.1499C40.3629 42.5891 39.5399 43.1743 38.8226 43.8829C38.509 44.1943 38.2122 44.5233 37.9338 44.8686C36.5762 46.542 35.5141 48.5729 35.4208 50.7529C35.3897 51.5002 35.4474 52.3289 34.9875 52.9077C33.7187 54.5066 33.311 56.7049 32.2289 58.4448C31.7278 59.2471 31.1534 60.078 30.2968 60.4437C30.1703 60.5065 30.0304 60.5349 29.8902 60.5262C29.548 60.4861 29.3514 60.1147 29.207 59.7915C28.6426 58.5309 27.9894 57.3146 27.2527 56.1525C26.9616 55.694 26.6406 55.2241 26.1751 54.9547C25.8573 54.7725 25.4885 54.6911 25.1896 54.4779C24.773 54.1811 24.5552 53.6756 24.3386 53.2023C23.6364 51.6734 22.7475 50.2436 21.6933 48.9477C21.2111 48.3552 20.5756 47.7431 19.8313 47.8314C19.1225 47.9173 18.6892 48.6864 18.0204 48.9741Z" fill="#FBBEBE"/>
<path id="Vector_35" opacity="0.03" d="M18.0204 48.9741C17.6415 48.8503 17.276 49.1965 17.0638 49.5472C16.1817 50.9776 16.2539 52.8871 16.9594 54.4183C17.1272 54.8067 17.3587 55.1622 17.6437 55.4694C18.0259 55.8579 18.5181 56.1066 18.9769 56.3863C20.2501 57.1622 21.3412 58.219 22.1721 59.4809C22.7154 60.3073 23.1432 61.2162 23.7598 61.9853C25.2774 63.8787 27.7716 64.736 29.2436 66.6616C29.5958 67.12 29.8936 67.6518 30.3635 67.9854C30.6429 68.1835 30.9684 68.3011 31.3066 68.3261C31.6448 68.351 31.9833 68.2824 32.2871 68.1272C32.5909 67.9721 32.8491 67.736 33.035 67.4435C33.2208 67.151 33.3276 66.8126 33.3443 66.4633C33.9165 65.5956 34.3842 64.6374 34.8297 63.693C35.4889 62.2515 36.0458 60.7626 36.4962 59.2379C36.6617 58.6992 36.8217 58.1571 37.0328 57.6333C37.5539 56.3404 38.3838 55.1702 38.6771 53.804C38.7948 53.2561 38.8237 52.6865 38.9948 52.1547C39.1481 51.6773 39.4102 51.2449 39.7592 50.8939C40.9146 49.7351 41.5368 48.0469 42.4556 46.6829C42.8289 46.1316 43.2166 45.5815 43.4632 44.958C43.7099 44.3345 43.8043 43.6204 43.5743 42.99C43.3444 42.3596 42.7433 41.8507 42.0923 41.8863C41.8009 41.9175 41.5183 42.007 41.2601 42.1499C40.3629 42.5891 39.5399 43.1743 38.8226 43.8829C38.509 44.1943 38.2122 44.5233 37.9338 44.8686C36.5762 46.542 35.5141 48.5729 35.4208 50.7529C35.3897 51.5002 35.4474 52.3289 34.9875 52.9077C33.7187 54.5066 33.311 56.7049 32.2289 58.4448C31.7278 59.2471 31.1534 60.078 30.2968 60.4437C30.1703 60.5065 30.0304 60.5349 29.8902 60.5262C29.548 60.4861 29.3514 60.1147 29.207 59.7915C28.6426 58.5309 27.9894 57.3146 27.2527 56.1525C26.9616 55.694 26.6406 55.2241 26.1751 54.9547C25.8573 54.7725 25.4885 54.6911 25.1896 54.4779C24.773 54.1811 24.5552 53.6756 24.3386 53.2023C23.6364 51.6734 22.7475 50.2436 21.6933 48.9477C21.2111 48.3552 20.5756 47.7431 19.8313 47.8314C19.1225 47.9173 18.6892 48.6864 18.0204 48.9741Z" fill="black"/>
<path id="Vector_36" d="M17.9426 43.4978C19.56 43.4978 20.8711 42.2771 20.8711 40.7711C20.8711 39.2652 19.56 38.0444 17.9426 38.0444C16.3251 38.0444 15.014 39.2652 15.014 40.7711C15.014 42.2771 16.3251 43.4978 17.9426 43.4978Z" fill="#FBBEBE"/>
<path id="Vector_37" d="M20.689 41.2982C21.2713 41.2982 21.7433 40.8112 21.7433 40.2105C21.7433 39.6098 21.2713 39.1228 20.689 39.1228C20.1067 39.1228 19.6346 39.6098 19.6346 40.2105C19.6346 40.8112 20.1067 41.2982 20.689 41.2982Z" fill="#FBBEBE"/>
<path id="Vector_38" d="M18.327 40.771C20.5549 40.771 22.361 40.2727 22.361 39.6581C22.361 39.0434 20.5549 38.5452 18.327 38.5452C16.099 38.5452 14.2929 39.0434 14.2929 39.6581C14.2929 40.2727 16.099 40.771 18.327 40.771Z" fill="#FBBEBE"/>
<path id="Vector_39" d="M14.7296 39.4208C14.8277 39.7418 14.9049 40.0692 14.9607 40.4008C14.622 40.046 14.3285 39.6482 14.0874 39.2168C14.0224 39.1424 13.9702 39.0571 13.933 38.9647C13.573 38.1004 13.3275 37.2259 13.3275 36.2792C13.3274 35.1815 13.6249 34.1057 14.1862 33.1731C14.7475 32.2406 15.5504 31.4886 16.5042 31.002C17.458 30.5155 18.5246 30.3137 19.5837 30.4195C20.6428 30.5253 21.6521 30.9346 22.4976 31.6009C23.3431 32.2673 23.9912 33.1643 24.3686 34.1906C24.746 35.217 24.8378 36.3317 24.6335 37.409C24.4292 38.4863 23.937 39.4831 23.2125 40.2871C22.488 41.091 21.56 41.6699 20.5334 41.9584C20.7079 41.3785 20.9467 40.8123 20.9778 40.2105C20.9966 40.0098 20.9684 39.8074 20.8956 39.6203C20.7981 39.4212 20.6542 39.2503 20.4768 39.1228C19.8413 38.622 19.0236 38.403 18.2237 38.4168C17.4228 38.4511 16.6361 38.6457 15.9072 38.9899C15.6773 39.0919 15.4017 39.2294 15.1296 39.3234C14.9998 39.3698 14.8658 39.4024 14.7296 39.4208Z" fill="#FBBEBE"/>
<path id="Vector_40" d="M29.2003 52.3014C28.8348 52.9054 28.0538 53.09 27.3672 53.0361C26.0873 52.9387 24.923 52.2338 23.9342 51.3856C22.9454 50.5375 22.081 49.5518 21.07 48.7357C19.1891 47.2148 17.0705 46.6039 14.6774 46.5683C15.1451 46.1683 14.9729 45.2193 15.0107 44.5958C15.0929 43.335 15.1707 42.041 15.0107 40.7986C14.994 40.6645 14.9751 40.5327 14.9529 40.4009C14.9907 40.4421 15.0307 40.4823 15.0718 40.5235C15.7834 41.2281 16.6598 41.7305 17.6155 41.982C18.5713 42.2335 19.5738 42.2254 20.5256 41.9585C20.4644 42.1581 20.4165 42.3619 20.3823 42.5683C20.2446 43.4542 20.4757 44.3528 20.7034 45.2205C20.8389 45.7397 21 46.2967 21.4144 46.6211C21.6833 46.832 22.0222 46.9145 22.341 47.0257C22.9766 47.2491 23.5633 47.5997 24.0675 48.0572C24.4186 48.3747 24.7341 48.7449 25.1107 49.0211C25.4689 49.2549 25.8462 49.4558 26.2384 49.6217C27.2008 50.0799 28.1102 50.6485 28.9492 51.3169C29.1076 51.4188 29.2308 51.5696 29.3014 51.7478C29.3221 51.8423 29.3239 51.9402 29.3065 52.0354C29.2891 52.1306 29.253 52.2212 29.2003 52.3014Z" fill="#FBBEBE"/>
<path id="Vector_41" d="M35.763 63.4063C35.6863 63.929 35.2219 64.337 34.8942 64.7428C34.0031 65.8522 33.0999 66.9652 32.1033 67.9806C31.0368 69.0661 29.8658 70.0334 28.6959 71.0008L27.1783 72.2535C26.9911 72.4301 26.7716 72.5665 26.5328 72.6547C26.253 72.7267 25.9574 72.6904 25.7018 72.5527C25.6 72.5024 25.5036 72.4413 25.414 72.3704C25.0996 72.1183 24.8685 71.7744 24.643 71.4363C23.6164 69.8905 22.5888 68.3444 21.56 66.7978C21.1934 66.2454 20.8334 65.678 20.4757 65.1107C20.4279 65.0373 20.3823 64.9628 20.3346 64.8895C20.0079 64.3737 19.6824 63.8579 19.348 63.3594L17.5193 62.4757L17.2793 62.3611L16.996 62.2247C16.6194 62.0424 16.2372 61.8567 15.9239 61.5748C15.6239 61.2839 15.3741 60.9424 15.1851 60.565C14.8192 59.8671 14.4992 59.1445 14.2274 58.4022C13.4497 56.377 12.7653 54.2658 12.7365 52.0858C12.7109 50.1683 13.2597 48.174 14.4952 46.7665C14.664 46.5728 14.8456 46.3913 15.0384 46.2232C15.2762 46.018 15.5217 45.8977 15.8273 45.9424C16.1328 45.9871 16.4227 46.0329 16.716 46.0845C17.5249 46.2282 18.3274 46.4039 19.1236 46.6117C19.8413 46.8009 20.5845 47.0163 21.31 46.8662C21.4267 46.8421 21.5422 46.8077 21.6578 46.7768C21.7522 46.7516 21.8455 46.7275 21.9422 46.7115C21.9958 46.7019 22.05 46.6958 22.1044 46.6931C22.4899 46.6725 22.8599 46.8318 23.2154 46.9888C23.8942 47.2891 24.593 47.6055 25.1041 48.1579C25.4085 48.4903 25.6318 48.8983 25.9562 49.2112C26.3895 49.6296 26.9672 49.8439 27.4872 50.143C27.5876 50.2005 27.6844 50.2645 27.7771 50.3345C27.9822 50.493 28.1686 50.6757 28.3326 50.8789C29.0059 51.6984 29.4058 52.8044 30.1491 53.6193C30.7439 54.2703 31.2609 54.9926 31.6889 55.7707C31.7589 55.9002 31.8267 56.0308 31.8934 56.1638C32.0045 56.385 32.1078 56.6097 32.2033 56.8366C32.2278 56.895 32.2522 56.9512 32.2744 57.012C32.4142 57.3554 32.5362 57.7062 32.6399 58.063C32.8921 58.9283 33.0599 59.8624 33.6198 60.557C34.0109 61.0395 34.5531 61.3593 35.0097 61.7754C35.3038 62.0323 35.5351 62.357 35.6852 62.7232C35.7676 62.9402 35.7944 63.1755 35.763 63.4063Z" fill="#FBBEBE"/>
<path id="Vector_42" opacity="0.06" d="M32.6699 56.5225C32.5425 56.6883 32.4118 56.8518 32.2777 57.013C32.2555 57.0428 32.2311 57.0715 32.2066 57.1001C31.0372 58.5115 29.6984 59.7636 28.2226 60.8263C27.3094 61.4842 26.3461 62.0676 25.3851 62.6498L23.6075 63.7238C22.8643 64.1742 22.111 64.6281 21.2867 64.8871C21.0222 64.9685 20.7456 65.0338 20.4756 65.1106C20.4279 65.0373 20.3823 64.9628 20.3345 64.8894C20.0079 64.3736 19.6824 63.8579 19.348 63.3593L17.5193 62.4756C18.5292 61.817 19.4252 60.9888 20.1701 60.0251C21.2811 58.6119 22.1355 57.0004 22.9776 55.3992C23.1269 55.1407 23.243 54.8633 23.3231 54.574C23.4342 54.0938 23.3409 53.5895 23.2042 53.1172C22.704 51.4241 21.6522 49.9613 20.2268 48.9762C19.2269 48.2885 18.0892 47.8701 16.9582 47.4667C16.1683 47.1847 15.3028 46.9119 14.4996 47.0277C14.6682 46.8341 14.8497 46.653 15.0429 46.4856C15.2806 46.2793 15.5261 46.1589 15.8317 46.2036C16.1372 46.2483 16.4272 46.2942 16.7205 46.3469C17.3148 46.5349 17.8992 46.7595 18.4803 46.991C18.8625 47.1356 19.2339 47.3091 19.5913 47.5102C19.947 47.7343 20.2888 47.9812 20.6145 48.2495C21.5778 49.0071 22.5921 49.6931 23.6497 50.3023C24.8718 50.998 26.155 51.563 27.4371 52.1361C27.5731 52.2082 27.7232 52.2474 27.876 52.2507C27.9525 52.2506 28.0268 52.2242 28.0872 52.1756C28.1475 52.127 28.1905 52.0591 28.2093 51.9825C28.2143 51.899 28.1958 51.8158 28.1559 51.743C27.9337 51.2742 27.4293 51.0381 26.9727 50.81C25.0774 49.8633 23.4109 48.5005 21.7622 47.1481C21.7221 47.1153 21.6869 47.0767 21.6577 47.0334L21.9421 46.9681C23.7873 48.3353 25.7359 49.5473 27.7693 50.5923C27.8767 50.6488 27.9845 50.7038 28.0926 50.7573C28.1704 50.7974 28.247 50.8364 28.3259 50.8719C28.8736 51.1493 29.4214 51.445 29.8335 51.9035C30.0994 52.2197 30.3235 52.5708 30.5001 52.9476C30.9542 53.8327 31.342 54.7523 31.66 55.6984C31.6661 55.7186 31.6731 55.7385 31.6811 55.758C31.7214 55.9025 31.7911 56.0365 31.8855 56.1511C31.9188 56.1895 31.9583 56.2217 32.0022 56.2462C32.2111 56.3735 32.4977 56.3597 32.6699 56.5225Z" fill="black"/>
<path id="Vector_43" d="M21.9466 46.7115C23.7915 48.0787 25.7402 49.2903 27.7738 50.3345L28.0971 50.5006C28.7192 50.8147 29.3669 51.1264 29.8391 51.6468C30.1047 51.9636 30.3288 52.3151 30.5057 52.6921C30.9601 53.5768 31.3475 54.4965 31.6645 55.4429C31.7356 55.6526 31.8189 55.883 32.0078 55.9907C32.1966 56.0985 32.4966 56.0904 32.6644 56.2532C32.5133 56.448 32.3599 56.6406 32.2011 56.8263C31.0319 58.2382 29.6931 59.4908 28.217 60.5536C27.3038 61.2114 26.3406 61.7948 25.3796 62.3771L23.602 63.451C22.8587 63.9003 22.1055 64.3542 21.2811 64.6132C20.9711 64.7106 20.6434 64.784 20.329 64.878C20.0023 64.3622 19.6768 63.8465 19.3424 63.3479L17.2737 62.3484C18.3847 61.6997 19.3535 60.7771 20.1623 59.7512C21.2733 58.3392 22.1277 56.7277 22.9698 55.1265C23.1189 54.8679 23.2351 54.5906 23.3153 54.3013C23.4264 53.821 23.3331 53.3156 23.1965 52.8434C22.696 51.1557 21.6472 49.6974 20.2268 48.7138C19.2269 48.0261 18.0892 47.6089 16.9582 47.2043C16.1683 46.9235 15.3028 46.6496 14.4996 46.7665C14.6685 46.5728 14.85 46.3913 15.0429 46.2232C15.2806 46.018 15.5261 45.8977 15.8317 45.9424C16.1372 45.9871 16.4272 46.0329 16.7205 46.0845C17.3148 46.2736 17.8992 46.4983 18.4803 46.7298C18.8627 46.8739 19.2341 47.0474 19.5913 47.249C19.947 47.4731 20.2888 47.72 20.6145 47.9883C21.5794 48.7441 22.5952 49.4282 23.6542 50.0353C24.8763 50.7322 26.1595 51.3018 27.4416 51.8692C27.5775 51.9413 27.7276 51.9805 27.8804 51.9838C27.9571 51.984 28.0316 51.9577 28.092 51.9091C28.1524 51.8605 28.1953 51.7923 28.2137 51.7156C28.2187 51.6324 28.2002 51.5496 28.1604 51.4772C27.9382 51.0084 27.4338 50.7711 26.9772 50.5442C25.0818 49.5975 23.4153 48.2336 21.7666 46.8765C21.7262 46.8441 21.691 46.8055 21.6622 46.7619L21.9466 46.7115Z" fill="#6C63FF"/>
<path id="Ball" d="M37.5128 52.934C41.3642 52.934 44.4865 49.7129 44.4865 45.7396C44.4865 41.7662 41.3642 38.5452 37.5128 38.5452C33.6613 38.5452 30.539 41.7662 30.539 45.7396C30.539 49.7129 33.6613 52.934 37.5128 52.934Z" fill="#6C63FF"/>
<path id="Vector_44" d="M44.4465 74.3728C45.7519 73.9499 47.0773 73.519 48.2239 72.7453C49.0293 72.202 49.7237 71.5029 50.4547 70.8564C51.0047 70.3705 51.578 69.912 52.0823 69.3756C52.5342 68.8737 52.9571 68.3447 53.3489 67.7916C54.2406 66.5874 55.1617 65.4061 56.1119 64.2477C56.6219 63.6299 57.1607 63.0007 57.8728 62.6569C59.1383 62.0437 60.6237 62.4574 61.9591 62.8781C63.9589 63.5085 65.9487 64.1767 67.8196 65.136C68.8839 65.6827 69.9149 66.2925 70.9893 66.8162C72.9535 67.7733 75.0388 68.43 77.1164 69.0833C77.2708 69.1511 77.4422 69.1656 77.6052 69.1246C77.7218 69.0695 77.8219 68.9832 77.8952 68.8747C78.1661 68.5295 78.3831 68.1428 78.5385 67.7286C78.5681 67.6816 78.5791 67.6246 78.5694 67.5695C78.5597 67.5143 78.53 67.465 78.4863 67.4317C77.5975 66.5389 76.4442 65.9899 75.3666 65.3538C74.5089 64.8483 73.6879 64.281 72.868 63.7136C72.0803 63.1692 71.2859 62.619 70.6248 61.9187C70.2916 61.5646 69.9916 61.1737 69.6305 60.8505C69.3115 60.5813 68.9736 60.3369 68.6195 60.1193C67.0358 59.0759 65.5242 57.9205 64.0955 56.6613C63.009 55.7031 62.1191 54.4687 60.9581 53.6091C60.2459 53.0819 59.4171 52.6017 58.5461 52.6979C57.4862 52.8125 56.7041 53.7295 55.9653 54.5203C53.4822 57.1805 50.3492 59.0843 47.5784 61.4236C45.3164 63.3308 43.2022 65.5967 40.4469 66.6031C40.5702 67.0249 40.6135 67.4466 40.738 67.8638C40.893 68.4438 41.0864 69.0121 41.3168 69.5647C41.5452 70.0542 41.8024 70.5288 42.0867 70.986L43.1911 72.8462C43.4133 73.2244 43.6455 73.6084 43.9632 73.9086C44.1298 74.0737 44.4465 74.1333 44.4465 74.3728Z" fill="#464353"/>
<path id="Vector_45" opacity="0.06" d="M44.4465 74.3728C45.7519 73.9499 47.0773 73.519 48.2239 72.7453C49.0293 72.202 49.7237 71.5029 50.4547 70.8564C51.0047 70.3705 51.578 69.912 52.0823 69.3756C52.5342 68.8737 52.9571 68.3447 53.3489 67.7916C54.2406 66.5874 55.1617 65.4061 56.1119 64.2477C56.6219 63.6299 57.1607 63.0007 57.8728 62.6569C59.1383 62.0437 60.6237 62.4574 61.9591 62.8781C63.9589 63.5085 65.9487 64.1767 67.8196 65.136C68.8839 65.6827 69.9149 66.2925 70.9893 66.8162C72.9535 67.7733 75.0388 68.43 77.1164 69.0833C77.2708 69.1511 77.4422 69.1656 77.6052 69.1246C77.7218 69.0695 77.8219 68.9832 77.8952 68.8747C78.1661 68.5295 78.3831 68.1428 78.5385 67.7286C78.5681 67.6816 78.5791 67.6246 78.5694 67.5695C78.5597 67.5143 78.53 67.465 78.4863 67.4317C77.5975 66.5389 76.4442 65.9899 75.3666 65.3538C74.5089 64.8483 73.6879 64.281 72.868 63.7136C72.0803 63.1692 71.2859 62.619 70.6248 61.9187C70.2916 61.5646 69.9916 61.1737 69.6305 60.8505C69.3115 60.5813 68.9736 60.3369 68.6195 60.1193C67.0358 59.0759 65.5242 57.9205 64.0955 56.6613C63.009 55.7031 62.1191 54.4687 60.9581 53.6091C60.2459 53.0819 59.4171 52.6017 58.5461 52.6979C57.4862 52.8125 56.7041 53.7295 55.9653 54.5203C53.4822 57.1805 50.3492 59.0843 47.5784 61.4236C45.3164 63.3308 43.2022 65.5967 40.4469 66.6031C40.5702 67.0249 40.6135 67.4466 40.738 67.8638C40.893 68.4438 41.0864 69.0121 41.3168 69.5647C41.5452 70.0542 41.8024 70.5288 42.0867 70.986L43.1911 72.8462C43.4133 73.2244 43.6455 73.6084 43.9632 73.9086C44.1298 74.0737 44.4465 74.1333 44.4465 74.3728Z" fill="black"/>
<path id="Vector_46" d="M74.8611 72.1894C74.9851 72.3701 75.0692 72.5766 75.1076 72.7944C75.146 73.0122 75.1377 73.236 75.0833 73.4502C75.4782 73.7446 75.9589 73.8906 76.4454 73.8639C76.9298 73.8363 77.4062 73.7239 77.8541 73.5315C78.2422 73.385 78.6098 73.1861 78.9473 72.9401C79.5284 72.4977 79.9472 71.865 80.2861 71.2083C80.4739 70.8473 80.6338 70.3785 80.3916 70.053C80.2992 69.9419 80.1858 69.8515 80.0583 69.7871C79.204 69.2837 78.3146 68.8466 77.3975 68.4793C77.145 68.3596 76.871 68.2959 76.5931 68.2925C76.2509 68.312 75.941 68.5057 75.6699 68.7211C75.061 69.2101 74.5701 69.8377 74.2356 70.555C74.1312 70.7842 73.8156 71.3298 73.9712 71.5659C74.0423 71.6748 74.3045 71.7126 74.4156 71.7802C74.5902 71.883 74.742 72.0224 74.8611 72.1894Z" fill="#FBBEBE"/>
<path id="Vector_47" d="M79.9483 69.4776C81.8281 69.8387 83.5568 70.7751 85.4044 71.2805C86.1521 71.4845 86.9221 71.6244 87.6364 71.9247C88.3508 72.225 89.0241 72.7384 89.3318 73.4697C89.4618 73.8207 89.548 74.1874 89.5884 74.5608C89.6684 75.0892 89.734 75.6795 89.4296 76.1127C89.1085 76.5712 88.5019 76.6732 87.9586 76.7397C86.0055 76.9804 84.0524 77.2199 82.0926 77.3895C81.6965 77.415 81.3023 77.4636 80.9116 77.5351C80.5894 77.6027 80.275 77.7024 79.955 77.7804C79.5417 77.8812 79.1195 77.9431 78.6996 78.0096C77.6252 78.1678 76.5387 78.3282 75.4599 78.2056C74.9678 78.1494 74.4167 77.9855 74.2001 77.5271C74.1101 77.2895 74.0722 77.0343 74.089 76.7798C74.089 76.1001 74.0778 75.4193 74.089 74.7396C74.099 74.0416 74.1323 73.3172 74.4389 72.6949C74.5152 72.5045 74.6585 72.351 74.84 72.2651C74.9518 72.232 75.0687 72.2211 75.1844 72.233C75.7621 72.2536 76.3598 72.2788 76.8764 72.5447C77.2864 72.7545 77.5819 72.1275 77.9997 72.3155C78.7918 72.6765 78.2552 71.582 79.0551 71.9224C79.2417 71.3287 80.035 71.6817 79.8972 71.0731C79.7595 70.4645 80.2539 70.7292 80.1972 70.1034C80.1948 69.9669 80.1692 69.8319 80.1217 69.7046C80.0594 69.5819 80.0794 69.4581 79.9483 69.4776Z" fill="#464353"/>
<path id="Vector_48" opacity="0.06" d="M23.6386 32.8063C23.2076 33.0654 22.6732 33.0172 22.171 33.0058C21.7318 32.9964 21.2926 33.0198 20.8567 33.0757C20.6997 33.087 20.5463 33.129 20.4045 33.1995C20.2199 33.3223 20.074 33.4979 19.9846 33.7049C19.8068 34.0572 19.687 34.4376 19.6302 34.8304C19.5679 35.2717 19.5746 35.7543 19.308 36.1038C18.9447 36.5795 18.3781 36.5061 17.8637 36.6001C17.416 36.6887 16.9869 36.8579 16.596 37.0998C16.2106 37.3399 15.8799 37.663 15.6264 38.0469C15.373 38.4308 15.2027 38.8666 15.1273 39.3245C15.1129 39.4288 15.1029 39.532 15.0984 39.6363C15.0873 39.932 15.1162 40.2334 15.0784 40.5234C15.0693 40.5958 15.0552 40.6674 15.0362 40.7377C15.0313 40.7584 15.025 40.7787 15.0173 40.7985C15.0006 40.6644 14.9818 40.5326 14.9595 40.4008C14.6208 40.046 14.3274 39.6482 14.0863 39.2168C14.0213 39.1424 13.9691 39.0571 13.9319 38.9646C13.5719 38.1004 13.3264 37.2259 13.3264 36.2792C13.3263 35.0376 13.7068 33.8279 14.4135 32.8229C15.1201 31.8179 16.1168 31.0692 17.2608 30.6839C18.4048 30.2986 19.6377 30.2964 20.783 30.6776C21.9283 31.0588 22.9275 31.8039 23.6375 32.8063H23.6386Z" fill="black"/>
<path id="Vector_49" d="M24.0042 30.5508C23.7186 29.8688 23.1154 29.3852 22.4954 29.0058C21.2733 28.2539 19.8668 27.7817 18.4403 27.7622C17.7205 27.7624 17.0027 27.8392 16.2983 27.9914C15.6118 28.118 14.9393 28.315 14.2907 28.5794C13.2206 29.0386 12.2746 29.7592 11.5343 30.6792C11.3788 30.6913 11.2246 30.717 11.0733 30.756C10.4689 30.9118 9.92451 31.2545 9.42789 31.6431C9.0123 31.9536 8.64321 32.3255 8.33245 32.7468C7.96875 33.2849 7.71718 33.8948 7.59364 34.5383C7.17035 36.5509 7.69141 38.6278 8.07359 40.6484C8.45577 42.6691 8.67908 44.8766 7.74029 46.6921C7.38588 47.3798 6.8826 47.9643 6.50487 48.6337C6.12713 49.303 5.87604 50.1088 6.09046 50.8515C6.34599 51.7547 7.2059 52.3278 7.65475 53.1404C7.92963 53.672 8.02775 54.2819 7.93401 54.8766C7.84028 55.4713 7.55989 56.0178 7.13591 56.4321C7.84139 56.6843 8.62687 56.4126 9.26236 56.0092C9.76621 55.7065 10.1949 55.2871 10.5144 54.784C11.3133 53.4498 10.9588 51.7272 11.2366 50.1856C11.6066 48.1684 13.0997 46.3689 12.8942 44.3264C12.7553 42.9511 11.8754 41.8106 11.1833 40.6312C10.7216 39.8447 10.3336 39.0146 10.0245 38.1521C9.8023 37.5366 9.62232 36.8753 9.73231 36.2289C9.7687 36.0315 9.82724 35.8392 9.90673 35.6558C9.90673 35.6776 9.90673 35.6993 9.90673 35.7211C9.91939 36.3148 10.0487 36.8997 10.2867 37.4403C11.1133 39.1825 13.3142 39.8243 14.2463 41.508C14.5185 41.202 14.8018 40.8811 14.9129 40.4822C15.0106 40.1269 14.9607 39.7487 14.9751 39.3796C15.014 38.3481 15.6217 37.3762 16.4727 36.8443C16.8633 36.602 17.2925 36.4332 17.7404 36.3458C18.2536 36.2506 18.8203 36.3228 19.1847 35.8472C19.4513 35.5033 19.4446 35.0151 19.508 34.5749C19.5643 34.1816 19.6841 33.8008 19.8624 33.4483C19.9515 33.2414 20.0975 33.066 20.2823 32.944C20.4243 32.8729 20.5782 32.8309 20.7356 32.8202C21.1711 32.7642 21.61 32.7409 22.0488 32.7503C22.5565 32.7629 23.0998 32.8099 23.5353 32.5405C24.1486 32.1554 24.2897 31.2385 24.0042 30.5508Z" fill="#464353"/>
<path id="Vector_50" opacity="0.06" d="M86.0877 24.224C86.0877 24.24 86.0877 24.2549 86.0877 24.271C85.8866 26.059 84.2201 25.9764 83.8312 28.7937C83.6779 29.8974 82.0536 30.1015 80.986 30.3983C80.5249 30.2378 80.0583 30.0992 79.5972 29.9261C78.5307 29.5284 79.2761 28.9312 79.7328 28.2894C81.2271 26.1873 81.5104 23.3151 83.2069 21.3838C83.829 22.6033 84.8133 23.5853 86.0155 24.1861C86.0388 24.2022 86.0633 24.2136 86.0877 24.224Z" fill="black"/>
<path id="Vector_51" d="M86.1266 23.198C86.1264 23.4691 86.1116 23.74 86.0821 24.0095C85.8775 25.8704 84.9775 27.5757 83.5734 28.7629C82.1693 29.9501 80.3718 30.5256 78.5629 30.3672C76.754 30.2087 75.0763 29.3288 73.8863 27.9144C72.6963 26.5 72.0878 24.6626 72.1902 22.7927C72.2926 20.9229 73.0978 19.1679 74.4347 17.9007C75.7715 16.6336 77.5346 15.9542 79.3493 16.007C81.1641 16.0598 82.8873 16.8405 84.1528 18.1833C85.4184 19.5261 86.1264 21.3251 86.1266 23.198Z" fill="#A1616A"/>
<path id="Vector_52" d="M88.9318 24.0029C89.7306 23.9628 90.4983 24.286 91.236 24.6035C94.1613 25.8643 97.111 27.1353 99.7252 28.9864C101.014 29.9033 102.208 30.944 103.4 31.9882L108.299 36.2817C109.24 37.1058 110.187 37.9379 110.943 38.9465C111.388 39.5686 111.793 40.2194 112.157 40.8949L112.884 42.1729C113.181 42.6731 113.441 43.1961 113.661 43.7374C114.035 44.7242 114.174 45.875 114.927 46.5959C115.432 47.0807 116.129 47.2779 116.747 47.5977C117.364 47.9174 117.969 48.4791 117.959 49.192C117.959 49.6504 117.69 50.063 117.488 50.4757C117.069 51.3379 116.893 52.3041 116.981 53.2643L108.971 46.9489C108.652 46.6979 108.319 46.4389 107.927 46.3541C107.418 46.2395 106.899 46.4378 106.408 46.6166C102.537 48.025 98.4227 48.5829 94.3302 48.2544C92.5204 48.1077 90.6828 47.7719 89.0985 46.8584C88.2219 46.3541 87.4464 45.6859 86.6765 45.0245C85.7155 44.1947 84.7512 43.3626 83.899 42.4136C83.6768 42.1603 83.4458 41.8818 83.3891 41.5425C83.3469 41.2972 83.3991 41.0474 83.4191 40.7998C83.5591 39.0611 82.1592 37.6135 81.7326 35.9252C81.543 35.1291 81.5693 34.2946 81.8086 33.5129C82.0478 32.7312 82.4908 32.0325 83.0891 31.493C84.0435 32.3549 84.009 33.869 83.8979 35.1722C83.7479 36.927 84.2234 37.7969 84.0735 39.5528C84.6778 39.5299 84.5679 39.931 84.8256 39.366C85.0834 38.8009 85.1333 38.1637 85.1822 37.5413C85.3607 35.2902 85.5774 33.043 85.8322 30.7996C85.9588 29.6775 86.1033 28.5577 86.2421 27.4368C86.3266 26.7548 86.3155 26.1176 86.6643 25.5124C87.1487 24.6745 87.9719 24.0499 88.9318 24.0029Z" fill="#6C63FF"/>
<path id="Vector_53" d="M89.9773 26.0474C90.4861 25.8823 91.0338 26.0336 91.5449 26.1907C92.4485 26.4673 93.3469 26.7595 94.2402 27.0675C94.9701 27.3185 95.71 27.5878 96.3277 28.0612C96.9688 28.5517 97.4387 29.2337 97.9042 29.9042C98.2375 30.3867 98.5708 30.875 98.793 31.4228C99.0819 32.1403 99.1597 32.9266 99.2374 33.6991C99.2884 34.0325 99.2843 34.3723 99.2252 34.7043C99.1209 35.0647 98.9372 35.3954 98.6886 35.6705C98.3061 36.1375 97.8627 36.5476 97.371 36.8889C96.0633 37.7966 94.4824 38.1748 92.9425 38.5084C91.5682 38.8052 90.1839 39.0814 88.7819 39.1708C88.2364 39.2064 87.6031 39.1708 87.2698 38.7261C87.1749 38.5875 87.1001 38.4354 87.0476 38.2746C86.2284 36.0362 85.8737 33.6453 86.0066 31.2567C86.0186 30.8213 86.084 30.3892 86.201 29.9707C86.3164 29.6358 86.4595 29.3117 86.6288 29.0022C87.0498 28.1804 87.4931 27.3299 88.2186 26.7798C88.9774 26.2067 89.9606 26.0256 90.9016 26.0623" fill="#A1616A"/>
<path id="Vector_54" opacity="0.06" d="M95.0957 34.5474C94.6591 34.8511 94.5069 35.4379 94.4513 35.9789C94.2147 38.2792 95.1346 40.5567 95.0735 42.8684C95.0246 44.7023 94.3602 46.4628 93.7047 48.174C92.587 51.0933 92.0049 54.2635 91.7794 57.3937C91.5538 60.5238 91.2239 63.7835 89.5951 66.4311C89.2252 67.0305 88.7941 67.5876 88.4319 68.1904C88.052 68.8208 87.7509 69.4971 87.4154 70.1527C86.4268 72.0889 85.1524 73.8548 83.638 75.3871C83.1936 75.8341 82.7225 76.2674 82.1559 76.5253C81.7907 76.6887 81.3976 76.7752 80.9996 76.7795C80.6016 76.7838 80.2068 76.706 79.8384 76.5505C79.0784 76.2261 78.4385 75.4949 78.4074 74.6467C78.3796 73.888 78.8185 73.2037 79.2584 72.5963C80.7496 70.5382 82.4643 68.6631 84.369 67.0076C84.7145 66.7073 85.0789 66.3967 85.2578 65.968C85.4589 65.4741 85.3767 64.9136 85.4022 64.3783C85.4433 63.5244 85.7655 62.7141 85.9577 61.882C86.7354 58.502 85.3533 54.8114 86.4777 51.5368C86.7277 50.809 87.0987 50.1133 87.1865 49.3465C87.2487 48.8101 87.1187 48.2107 86.7943 47.8084C86.4896 47.4467 86.3188 46.9855 86.3121 46.5063C86.3121 46.4078 86.3121 46.3103 86.3244 46.2141C86.4599 44.7138 86.5943 43.2066 86.521 41.7017C86.4477 40.1968 86.1577 38.6838 85.4844 37.3463C85.1356 36.6528 84.6845 36.0041 84.469 35.2557C84.1224 34.0442 84.4423 32.7341 84.9589 31.588C85.3622 30.6917 85.9 29.8378 86.651 29.2235C88.0464 28.083 90.1351 27.9512 91.6627 28.8945C92.7893 29.5891 93.5603 30.757 94.1858 31.9479C94.6346 32.8178 95.1079 33.5548 95.0957 34.5474Z" fill="black"/>
<path id="Vector_55" d="M95.349 34.5474C94.9124 34.8511 94.7601 35.4379 94.7046 35.9789C94.468 38.2792 95.3879 40.5567 95.3268 42.8684C95.2779 44.7023 94.6135 46.4628 93.958 48.174C92.8403 51.0933 92.2593 54.2635 92.0326 57.3937C91.806 60.5238 91.4771 63.7835 89.8484 66.4311C89.4785 67.0305 89.0485 67.5876 88.6852 68.1904C88.3064 68.8208 88.0042 69.4971 87.6687 70.1527C86.6798 72.0887 85.4055 73.8546 83.8913 75.3871C83.4469 75.8341 82.9747 76.2674 82.4081 76.5253C82.0429 76.6887 81.6498 76.7752 81.2518 76.7795C80.8538 76.7838 80.459 76.706 80.0906 76.5505C79.3317 76.2261 78.6918 75.4949 78.6607 74.6467C78.6318 73.888 79.0707 73.2037 79.5117 72.5963C81.0028 70.5382 82.7175 68.6631 84.6223 67.0076C84.9678 66.7073 85.3333 66.3967 85.5111 65.968C85.7133 65.4741 85.63 64.9136 85.6555 64.3783C85.6966 63.5244 86.0188 62.7141 86.211 61.882C86.9887 58.502 85.6066 54.8114 86.731 51.5368C86.9809 50.809 87.3531 50.1133 87.4409 49.3465C87.502 48.8101 87.3731 48.2107 87.0487 47.8084C86.7383 47.4492 86.5626 46.9874 86.5532 46.5063C86.5532 46.4078 86.5532 46.3103 86.5654 46.2141C86.6999 44.7138 86.8343 43.2066 86.761 41.7017C86.6876 40.1968 86.3977 38.6838 85.7244 37.3463C85.3756 36.6528 84.9245 36.0041 84.709 35.2557C84.3623 34.0442 84.6823 32.7341 85.1989 31.588C85.6033 30.6917 86.1399 29.8378 86.891 29.2235C88.2864 28.083 90.375 27.9512 91.9027 28.8945C93.0292 29.5891 93.8002 30.757 94.4257 31.9479C94.8857 32.8178 95.3568 33.5548 95.349 34.5474Z" fill="#A1616A"/>
<path id="Vector_56" d="M106.584 64.4768L106.489 64.5066L106.584 64.4768Z" fill="#464353"/>
<path id="Vector_57" d="M87.1254 69.5912C87.1295 69.5525 87.1362 69.5142 87.1454 69.4766L87.1254 69.5912Z" fill="#464353"/>
<path id="Vector_58" d="M110.945 61.7262C111.265 61.3445 111.758 61.1737 112.233 61.0465C112.997 60.8426 113.778 60.7114 114.566 60.6545C115.055 60.6002 115.549 60.6316 116.028 60.7474C116.501 60.8815 116.95 61.1726 117.19 61.6138C117.402 62.0035 117.436 62.4666 117.463 62.9124C117.521 63.8294 117.574 64.7463 117.428 65.6495C117.333 66.2225 117.157 66.7773 117.042 67.3458C116.671 69.2094 116.993 71.1384 116.96 73.041C116.952 73.4467 116.927 73.8628 116.761 74.2307C116.585 74.6216 116.267 74.9184 115.957 75.2118C115.616 75.5293 115.269 75.8491 114.858 76.0611C114.249 76.3763 113.548 76.429 112.867 76.4508C112.453 76.4634 112.026 76.4646 111.645 76.3076C111.264 76.1505 110.921 75.7975 110.893 75.37C110.848 74.6445 111.642 74.17 111.868 73.4823C112.048 72.9344 111.842 72.3292 111.555 71.8307C111.095 71.0359 110.439 70.3813 109.654 69.9338C109.363 69.7687 109.053 69.6301 108.811 69.3974C108.569 69.1647 108.404 68.8037 108.508 68.4805C108.631 68.0896 109.072 67.9074 109.469 67.8684C109.865 67.8294 110.284 67.8592 110.641 67.677C110.958 67.5154 111.18 67.2036 111.332 66.8747C111.656 66.1726 111.701 65.3676 111.457 64.6317C111.361 64.3517 111.221 64.0897 111.044 63.8557C110.877 63.6357 110.535 63.45 110.416 63.2093C110.205 62.776 110.662 62.07 110.945 61.7262Z" fill="#6C63FF"/>
<path id="Vector_59" opacity="0.06" d="M104.489 45.1161C102.654 43.4427 100.095 42.9877 97.6954 42.4799C96.4592 42.2194 95.229 41.929 94.0047 41.6088C93.2003 41.398 92.3937 41.1733 91.5605 41.1149C90.7272 41.0564 89.8695 41.1767 89.1563 41.6146C88.443 42.0524 87.9053 42.8455 87.9008 43.7017C87.9008 44.0456 87.9797 44.3825 87.9553 44.7229C87.9164 45.2708 87.622 45.7545 87.4209 46.2668C87.1133 47.0767 87.0662 47.9671 87.2865 48.8067C87.642 50.1443 88.6663 51.3225 88.5774 52.7036C88.4297 55.0154 88.4752 57.4315 88.9352 59.6952C89.3951 61.9588 89.9695 64.2328 89.9562 66.5492C89.9429 68.8656 89.2629 71.3011 87.5864 72.8439C88.7223 73.9441 90.1116 74.7272 91.6227 75.119C92.9148 75.4525 94.4513 75.4193 95.3712 74.4255C95.5845 74.1963 95.7611 73.8903 95.7167 73.5751C95.6709 73.3762 95.5899 73.1878 95.4778 73.0192C94.8457 71.8513 94.9223 70.4117 95.2023 69.1074C95.4823 67.8031 95.9611 66.5354 96.0822 65.2036C96.1711 64.2374 96.0711 63.2551 96.25 62.3015C96.3877 61.5714 96.6855 60.8837 96.8644 60.1628C97.3921 58.0241 96.8377 55.7788 96.2866 53.6481C96.7477 54.7426 97.6198 55.5965 98.522 56.3392C99.8907 57.4648 101.546 58.4585 103.286 58.259C104.835 58.0802 106.153 56.9696 107.063 55.6664C107.071 54.1592 107.578 52.7346 107.488 51.2308C107.43 50.5703 107.315 49.9163 107.146 49.2766C106.976 48.5614 106.801 47.8393 106.479 47.1826C106.053 46.3104 105.198 45.7614 104.489 45.1161Z" fill="black"/>
<path id="Vector_60" d="M104.869 45.1161C103.034 43.4427 100.476 42.9877 98.0753 42.4799C96.8392 42.2194 95.6093 41.929 94.3857 41.6088C93.5814 41.398 92.7737 41.1733 91.9415 41.1149C91.1094 41.0564 90.2517 41.1767 89.5384 41.6146C88.8252 42.0524 88.2864 42.8455 88.283 43.7017C88.283 44.0456 88.3608 44.3825 88.3363 44.7229C88.2986 45.2708 87.9975 45.7545 87.802 46.2668C87.4948 47.0768 87.448 47.9672 87.6686 48.8067C88.023 50.1443 89.0474 51.3225 88.9596 52.7036C88.8107 55.0154 88.8563 57.4315 89.3162 59.6952C89.7762 61.9588 90.3506 64.2328 90.3373 66.5492C90.3239 68.8656 89.6395 71.2931 87.9619 72.8335C89.098 73.9336 90.4872 74.7166 91.9982 75.1087C93.2903 75.4422 94.8279 75.409 95.7467 74.4152C95.96 74.186 96.1366 73.88 96.0922 73.5648C96.0464 73.3659 95.9654 73.1775 95.8533 73.0089C95.2212 71.841 95.2978 70.4014 95.5778 69.0971C95.8578 67.7928 96.3366 66.5251 96.4588 65.1933C96.5466 64.2271 96.4466 63.2448 96.6266 62.2912C96.7632 61.5611 97.0621 60.8734 97.2399 60.1525C97.7676 58.0138 97.2143 55.7684 96.6621 53.6377C97.1232 54.7323 97.9953 55.5862 98.8986 56.3289C100.267 57.4544 101.922 58.4481 103.661 58.2487C105.21 58.0699 106.529 56.9593 107.439 55.6561C107.445 54.1489 107.952 52.7243 107.862 51.2205C107.804 50.56 107.69 49.906 107.52 49.2663C107.351 48.5511 107.175 47.829 106.853 47.1723C106.44 46.3104 105.578 45.7614 104.869 45.1161Z" fill="#A1616A"/>
<path id="Vector_61" d="M92.1193 74.0395C91.3042 73.5274 90.6004 72.8473 90.0517 72.0417C89.854 71.7529 89.6762 71.4457 89.4296 71.2005C89.1829 70.9552 88.8485 70.773 88.5074 70.8096C88.1219 70.8509 87.8131 71.1535 87.5687 71.4652C86.9132 72.3031 86.491 73.3277 85.7633 74.1014C84.9234 74.9965 83.7513 75.4768 82.5814 75.7839C81.4115 76.0911 80.2039 76.2527 79.0573 76.6413C78.6974 76.7627 78.3185 76.9278 78.1241 77.2636C77.8774 77.6911 78.013 78.2516 78.273 78.6757C78.7518 79.478 79.5762 79.9949 80.4361 80.3021C81.296 80.6092 82.2059 80.7319 83.1025 80.913C84.6867 81.2327 86.3099 81.7451 87.8864 81.384C88.5152 81.2396 89.1085 80.96 89.744 80.8385C91.1883 80.5611 92.6781 81.1216 94.128 80.8969C94.829 80.788 95.4912 80.4992 96.1278 80.1737C96.447 80.0313 96.7373 79.8279 96.9832 79.5743C97.2154 79.3083 97.3554 78.9313 97.2599 78.5874C97.2054 78.3891 97.0799 78.2218 96.9966 78.035C96.8655 77.7461 96.8388 77.4218 96.8077 77.1043C96.6878 75.8958 96.4843 74.6977 96.1989 73.5191C96.1 73.1077 95.9522 72.6492 95.58 72.4693C95.5042 72.427 95.4154 72.4167 95.3323 72.4406C95.2001 72.4922 95.1567 72.6572 95.1168 72.7959C95.0077 73.1793 94.7989 73.5246 94.513 73.7942C94.2271 74.0638 93.875 74.2475 93.4951 74.3252C93.1152 74.4029 92.7218 74.3718 92.3578 74.2351C91.9939 74.0985 91.6731 73.8616 91.4305 73.5501" fill="#6C63FF"/>
<path id="Vector_62" opacity="0.06" d="M86.1266 23.1982C86.1264 23.4693 86.1116 23.7402 86.0821 24.0096C85.732 24.0637 85.3745 24.0318 85.0386 23.9165C84.7027 23.8012 84.3979 23.6057 84.149 23.346C83.9146 23.0893 83.7391 22.7787 83.5069 22.5196C83.2747 22.2606 82.9514 22.0451 82.6181 22.0726C82.3336 22.0944 82.087 22.2801 81.8926 22.4956C81.6396 22.7761 81.4542 23.1142 81.3515 23.4824C81.2771 23.7426 81.2404 24.0383 81.0316 24.2114C80.8227 24.3844 80.5661 24.373 80.3183 24.3638C79.9972 24.3523 79.6639 24.3363 79.3806 24.1804C78.8473 23.8836 78.6674 23.2039 78.4696 22.6125C78.1363 21.6188 77.3864 19.7391 76.2209 19.5385C75.6655 19.4434 74.99 19.7459 74.5545 20.0726C73.8979 20.5643 73.4135 20.8829 72.5647 20.8692C73.0998 19.258 74.1715 17.8949 75.5893 17.0223C77.007 16.1497 78.6787 15.8242 80.3072 16.1036C81.9357 16.3831 83.4154 17.2493 84.4829 18.5484C85.5505 19.8474 86.1369 21.4951 86.1377 23.1982H86.1266Z" fill="black"/>
<path id="Vector_63" d="M116.38 51.9322C116.413 53.0015 116.44 54.0732 116.428 55.1414C116.421 55.7076 116.398 56.2979 116.135 56.7941C115.947 57.1506 115.65 57.4291 115.357 57.7019L113.527 59.4131C112.959 59.9438 112.347 60.4974 111.591 60.6292C110.725 60.7805 109.88 60.3461 109.048 60.0561C108.21 59.7649 107.332 59.6128 106.448 59.6057C105.941 59.6057 105.43 59.6469 104.93 59.5644C104.569 59.4934 104.214 59.3895 103.87 59.2538L102.218 58.6624C102.265 58.2326 102.663 57.9586 102.996 57.687C104.179 56.6967 104.698 55.1047 105.071 53.5815C105.375 52.3923 105.591 51.1812 105.718 49.9585C105.775 49.3533 105.8 48.7378 105.677 48.143C105.56 47.6631 105.397 47.1968 105.188 46.7515L104.607 45.4002C104.274 44.6369 103.607 44.2976 102.928 43.8472C103.953 44.2483 105.201 44.4053 105.98 45.2008C106.13 45.377 106.308 45.5258 106.507 45.6409C106.719 45.7452 106.96 45.7555 107.192 45.7945C108.349 45.9733 109.332 46.7229 110.287 47.4163C111.457 48.266 112.659 49.0641 113.894 49.8106C114.449 50.1476 115.022 50.4788 115.49 50.9384C115.958 51.398 116.325 52.0101 116.355 52.676" fill="#464353"/>
<path id="Vector_64" d="M72.5547 20.6069C72.3544 20.6114 72.155 20.5788 71.9658 20.5106C71.427 20.2929 71.1648 19.651 71.1193 19.0562C71.0482 18.1496 71.3415 17.2602 71.6359 16.4017C71.6981 16.2149 71.7725 16.0143 71.9347 15.91C72.0661 15.8435 72.2096 15.8064 72.3558 15.8011C73.1535 15.6865 73.8456 15.1833 74.4345 14.6194C75.0233 14.0555 75.5543 13.4159 76.2121 12.946C77.9563 11.7047 80.5449 11.9363 82.0537 13.4675C82.6514 14.0727 83.1647 14.8933 83.9935 15.0355C84.4712 15.1168 84.9834 14.9472 85.4378 15.1306C85.7711 15.2647 86.0088 15.5684 86.1999 15.879C86.8198 16.8831 87.1109 18.0728 87.2076 19.259C87.3042 20.4453 87.2154 21.6385 87.1254 22.8247C87.1304 23.0023 87.0861 23.1777 86.9976 23.3302C86.9265 23.4181 86.8373 23.4886 86.7365 23.5365C86.3141 23.7513 85.8369 23.8235 85.3724 23.7429C84.908 23.6622 84.48 23.4328 84.149 23.0872C83.9135 22.8316 83.7391 22.521 83.5069 22.2608C83.2747 22.0007 82.9514 21.7875 82.6181 21.815C82.3348 21.8367 82.0859 22.0224 81.8926 22.2379C81.6396 22.5184 81.4542 22.8565 81.3515 23.2247C81.2782 23.4849 81.2404 23.7806 81.0316 23.9525C80.8227 24.1245 80.5661 24.1153 80.3172 24.1061C79.9972 24.0935 79.6639 24.0786 79.3806 23.9216C78.8462 23.6259 78.6662 22.9462 78.4696 22.3548C78.1363 21.3611 77.3875 19.4803 76.2209 19.2808C75.6655 19.1845 74.99 19.4883 74.5545 19.8149C73.8879 20.3032 73.4079 20.6218 72.5547 20.6069Z" fill="#464353"/>
<path id="Vector_65" opacity="0.06" d="M35.763 63.4064C35.6863 63.929 35.2219 64.3371 34.8942 64.7428C34.0031 65.8523 33.0999 66.9652 32.1033 67.9807C31.0368 69.0661 29.8658 70.0335 28.6959 71.0008L27.1783 72.2536C26.9911 72.4301 26.7716 72.5665 26.5328 72.6547C26.253 72.7267 25.9574 72.6904 25.7018 72.5527C25.724 72.5069 25.7473 72.4645 25.7729 72.422L27.5927 69.2759C27.9504 68.6592 28.1848 68.0976 28.5926 67.5188C29.207 66.6523 29.8269 65.7812 30.5835 65.0465C31.5401 64.117 32.7666 63.4419 33.9043 62.7703C34.0687 62.2614 34.7575 62.1204 35.223 62.3611C35.3955 62.4534 35.5509 62.5764 35.6819 62.7244C35.7652 62.9408 35.7932 63.1757 35.763 63.4064Z" fill="black"/>
<path id="Vector_66" d="M27.7193 69.4054L25.8995 72.5528C25.8251 72.68 25.7484 72.8244 25.7806 72.9688C25.8215 73.09 25.8995 73.1942 26.0028 73.2657C26.7005 73.8514 27.4738 74.4691 27.6927 75.3689C27.8493 76.0107 27.6927 76.6984 27.8327 77.3425C28.0893 78.5047 29.2214 79.2108 30.2924 79.6578C32.6921 80.6595 35.3563 81.0446 37.9061 80.5747C40.4558 80.1048 42.8755 78.7661 44.5265 76.7076C45.0331 76.0749 45.4664 75.3826 45.9474 74.7293C47.2806 72.9241 48.9727 71.4421 50.6514 69.9751C52.8123 68.0862 54.0855 65.2689 55.9842 63.0981C56.3297 62.7027 56.7108 62.2958 57.2063 62.1652C57.484 62.0929 57.8729 62.1995 57.884 62.4952C57.9095 63.0683 58.3561 63.5371 58.6617 64.0162C59.8127 65.8317 61.017 67.7034 62.7957 68.861C63.7689 69.496 64.8721 69.8845 65.972 70.2364C68.7606 71.1327 71.6037 71.841 74.4434 72.5424C74.5867 72.2468 74.7587 71.9668 74.9566 71.7069C75.2511 71.3344 75.6388 71.0501 75.9343 70.6754C76.4754 70.0003 76.6654 69.1074 76.8387 68.2501C75.1422 67.1784 73.4012 66.0724 71.7281 64.9583C70.886 64.399 70.0383 63.8271 69.3561 63.0706C68.9117 62.5732 68.5384 62.0035 68.0929 61.5027C67.6372 61.0166 67.1462 60.5672 66.6242 60.1582L62.6246 56.8539C61.4758 55.906 60.3048 54.9054 59.1805 53.9243C58.5483 53.3719 57.8473 52.7908 57.0207 52.7644C56.313 52.7415 55.662 53.1323 55.0532 53.5082C51.4772 55.7173 47.848 57.827 44.1654 59.8373C43.4199 60.2431 42.6711 60.6465 41.9601 61.113C40.5766 62.0209 39.3483 63.1588 38.3249 64.4804C38.1371 64.7222 37.8994 64.9973 37.6016 64.9606C37.5198 64.9482 37.441 64.9198 37.3694 64.877C36.9106 64.6237 36.6295 64.1343 36.3695 63.6701C36.1096 63.2059 35.8196 62.7176 35.3541 62.4769C34.8886 62.2362 34.2009 62.3772 34.0353 62.8872C32.8921 63.5784 31.67 64.2477 30.7124 65.1772C29.9558 65.9119 29.3358 66.7819 28.7214 67.6495C28.3115 68.2283 28.076 68.7899 27.7193 69.4054Z" fill="#464353"/>
<path id="Vector_67" opacity="0.06" d="M24.7385 50.2095C24.7385 50.2095 26.5684 51.0473 27.8804 51.9929L24.7385 50.2095Z" fill="black"/>
<path id="Vector_68" opacity="0.06" d="M16.7505 50.0549C15.2939 50.3517 14.5362 52.1179 14.6218 53.6458C14.704 55.0104 15.2473 56.3021 16.1572 57.2963C16.7649 57.9553 17.5226 58.4642 18.0714 59.176C18.8825 60.2258 19.1647 61.6138 19.8901 62.7291C20.4167 63.5382 21.1556 64.1732 21.8899 64.7818C23.5831 66.1755 25.3314 67.4948 27.1349 68.7395C27.8682 69.2449 28.6703 69.7561 29.5525 69.7366C30.3835 69.7183 31.149 69.2151 31.6911 68.5641C32.2333 67.9131 32.5799 67.1223 32.9321 66.3429C34.2009 63.489 35.4785 60.6041 36.0851 57.5278C36.2751 56.5616 36.4029 55.5656 36.8273 54.6819C37.1606 53.9942 37.6538 53.4051 38.0938 52.7839C39.1332 51.3098 39.8628 49.628 40.2358 47.8462C40.478 46.684 40.5591 45.4393 40.1614 44.3275C39.7636 43.2158 38.7982 42.2518 37.6483 42.1647C36.7384 42.096 35.8451 42.5774 35.2341 43.2777C34.623 43.978 34.2631 44.8731 34.0176 45.7797C33.6656 47.084 33.5303 48.4404 33.6176 49.7913C33.6887 50.8812 33.9042 51.9816 33.722 53.0589C33.5932 53.8188 33.2721 54.5283 32.9543 55.2275C32.1333 57.0315 31.2989 58.8585 30.058 60.3852C29.6536 60.8826 29.097 61.3858 28.4781 61.2689C27.6227 61.1084 27.396 59.9909 26.9738 59.2058C26.4561 58.243 25.474 57.6642 24.7041 56.8997C23.6086 55.8109 22.952 54.3507 22.1732 53.0028C21.3944 51.6549 20.3867 50.3242 18.9513 49.8073C17.5159 49.2904 15.6028 49.954 15.234 51.4761" fill="black"/>
<path id="Vector_69" opacity="0.06" d="M17.8493 51.1012C16.3916 51.3981 14.5363 51.5918 14.6274 53.1219C14.7087 54.4868 15.2521 55.7788 16.1628 56.7724C16.7705 57.4326 17.5282 57.9415 18.077 58.6533C18.888 59.7031 19.1702 61.09 19.8957 62.2063C20.4223 63.0167 21.1611 63.6516 21.8955 64.2591C23.5887 65.6536 25.337 66.9728 27.1405 68.2168C27.8738 68.7234 28.6759 69.2346 29.558 69.2151C30.3891 69.1967 31.1545 68.6924 31.6967 68.0426C32.2389 67.3927 32.5855 66.6007 32.9377 65.8202C34.2064 62.9662 35.4841 60.0814 36.0907 57.0051C36.2807 56.04 36.4084 55.0429 36.8328 54.1603C37.1661 53.4726 37.6594 52.8835 38.0994 52.2611C39.1389 50.7876 39.8685 49.1061 40.2414 47.3247C40.4836 46.1613 40.5647 44.9177 40.1669 43.8048C39.7692 42.6919 38.8037 41.7303 37.6538 41.642C36.7439 41.5732 35.8507 42.0558 35.2397 42.7549C34.6286 43.4541 34.2686 44.3504 34.0231 45.2581C33.6711 46.5624 33.5358 47.9188 33.6232 49.2697C33.6943 50.3608 33.9098 51.4611 33.7276 52.5374C33.5987 53.2984 33.2776 54.0079 32.9599 54.707C32.1389 56.5111 31.3045 58.3369 30.0635 59.8647C29.6591 60.3622 29.1025 60.8642 28.4837 60.7484C27.6282 60.5868 27.4016 59.4693 26.9794 58.6853C26.4617 57.7226 25.4796 57.1438 24.7097 56.3793C23.6142 55.2916 22.9576 53.8302 22.1788 52.4823C21.4 51.1345 20.3923 49.8049 18.9569 49.2869C17.5215 48.7688 19.3191 52.0869 18.9491 53.609" fill="black"/>
<path id="Vector_70" d="M16.7505 49.7925C15.2939 50.0894 14.5362 51.8556 14.6218 53.3834C14.7037 54.7485 15.2471 56.0406 16.1572 57.0351C16.7649 57.6941 17.5226 58.203 18.0714 58.9148C18.8825 59.9646 19.1647 61.3526 19.8901 62.4678C20.4167 63.2782 21.1556 63.9131 21.8899 64.5218C23.5831 65.9155 25.3314 67.2343 27.1349 68.4783C27.8682 68.9849 28.6703 69.4961 29.5525 69.4766C30.3835 69.4582 31.149 68.9551 31.6911 68.3041C32.2333 67.6531 32.5799 66.8622 32.9321 66.0828C34.2009 63.2289 35.4785 60.344 36.0851 57.2666C36.2751 56.3015 36.4029 55.3044 36.8273 54.4218C37.1606 53.7341 37.6538 53.145 38.0938 52.5227C39.1334 51.0491 39.863 49.3676 40.2358 47.5862C40.478 46.4228 40.5591 45.1792 40.1614 44.0663C39.7636 42.9534 38.7982 41.9918 37.6483 41.9047C36.7384 41.8348 35.8451 42.3173 35.2341 43.0176C34.623 43.7179 34.2631 44.613 34.0176 45.5196C33.6656 46.8239 33.5303 48.1803 33.6176 49.5312C33.6887 50.6212 33.9042 51.7215 33.722 52.7977C33.5932 53.5588 33.2721 54.2683 32.9543 54.9674C32.1333 56.7715 31.2989 58.5984 30.058 60.1251C29.6536 60.6225 29.097 61.1245 28.4781 61.0088C27.6227 60.8472 27.396 59.7308 26.9738 58.9457C26.4561 57.9818 25.474 57.403 24.7041 56.6396C23.6086 55.5508 22.952 54.0906 22.1732 52.7427C21.3944 51.3948 20.3867 50.0653 18.9513 49.5484C17.5159 49.0315 15.6028 49.6951 15.234 51.2172" fill="#FBBEBE"/>
<g id="Group_2" opacity="0.06">
<path id="Vector_71" opacity="0.06" d="M11.1833 40.6369C10.7216 39.8504 10.3336 39.0202 10.0245 38.1578L9.98675 38.0432C9.7523 37.7835 9.55513 37.4906 9.40126 37.1732C9.16307 36.6326 9.0338 36.0477 9.0213 35.454C9.0213 35.4322 9.0213 35.4104 9.0213 35.3887C8.9418 35.5721 8.88326 35.7644 8.84687 35.9617C8.73577 36.6082 8.91909 37.2684 9.13906 37.885C9.44835 38.7474 9.83635 39.5775 10.2978 40.3641C10.9878 41.5538 11.8688 42.7 12.0054 44.0651C12.211 46.1075 10.7178 47.9058 10.3489 49.9242C10.0667 51.4658 10.4245 53.1885 9.62568 54.5226C9.30639 55.0256 8.87764 55.4448 8.37359 55.7467C8.05744 55.9545 7.71132 56.1093 7.34814 56.2052C7.28191 56.2862 7.21065 56.3628 7.13483 56.4344C7.84031 56.6865 8.62578 56.4149 9.26127 56.0115C9.76513 55.7088 10.1938 55.2893 10.5134 54.7862C11.3122 53.4521 10.9578 51.7294 11.2355 50.1878C11.6055 48.1706 13.0987 46.3711 12.8931 44.3287C12.7554 42.9556 11.8754 41.8106 11.1833 40.6369Z" fill="black"/>
<path id="Vector_72" opacity="0.06" d="M24.0042 30.5506C23.7186 29.8687 23.1154 29.385 22.4954 29.0056C21.7096 28.5191 20.8544 28.1633 19.9613 27.9512C20.5344 28.1576 21.086 28.4229 21.6078 28.7432C22.2277 29.1237 22.8298 29.6062 23.1176 30.2893C23.4053 30.9724 23.262 31.8939 22.6443 32.2745C22.2088 32.5438 21.6655 32.4957 21.1578 32.4842C20.719 32.4739 20.2801 32.4968 19.8446 32.553C19.6873 32.5647 19.5336 32.6067 19.3913 32.6768C19.2059 32.8007 19.0599 32.978 18.9714 33.1868C18.7927 33.5393 18.6726 33.9201 18.6158 34.3135C18.5536 34.7536 18.5592 35.2361 18.2925 35.5857C17.9304 36.0614 17.3637 35.9891 16.8482 36.0831C16.4006 36.1718 15.9715 36.3409 15.5806 36.5829C14.7296 37.1135 14.1219 38.0832 14.083 39.1182C14.0696 39.4872 14.1185 39.8643 14.0219 40.2196C13.9595 40.4269 13.8617 40.621 13.733 40.7927C13.9299 41.0098 14.1021 41.2494 14.2463 41.5067C14.5185 41.2007 14.8018 40.8798 14.9129 40.4809C15.0107 40.1256 14.9607 39.7474 14.9751 39.3783C15.014 38.3468 15.6217 37.3748 16.4727 36.843C16.8633 36.6007 17.2925 36.4319 17.7404 36.3445C18.2537 36.2493 18.8203 36.3215 19.1847 35.8459C19.4513 35.502 19.4446 35.0138 19.508 34.5737C19.5643 34.1803 19.6841 33.7995 19.8624 33.447C19.9515 33.2401 20.0975 33.0647 20.2823 32.9427C20.4243 32.8716 20.5782 32.8296 20.7356 32.8189C21.1711 32.7629 21.61 32.7396 22.0488 32.749C22.5565 32.7616 23.0998 32.8086 23.5353 32.5392C24.1486 32.1553 24.2897 31.2383 24.0042 30.5506Z" fill="black"/>
</g>
<path id="Vector_73" opacity="0.06" d="M16.7294 41.5022C16.7294 41.5022 18.0414 42.6667 20.5334 41.9607C20.5334 41.9584 18.9902 42.5853 16.7294 41.5022Z" fill="black"/>
<path id="Vector_74" opacity="0.06" d="M87.1009 21.8571C87.1035 22.034 87.0572 22.2081 86.9676 22.3591C86.8965 22.4467 86.8073 22.5168 86.7065 22.5642C86.2844 22.7793 85.8074 22.8517 85.3431 22.7713C84.8789 22.6908 84.451 22.4616 84.1201 22.1161C83.8846 21.8593 83.7102 21.543 83.478 21.2897C83.2458 21.0364 82.9225 20.8152 82.5892 20.8427C82.3059 20.8656 82.0581 21.0513 81.8637 21.2656C81.6119 21.5471 81.4267 21.8849 81.3226 22.2525C81.2504 22.5138 81.2115 22.8084 81.0038 22.9814C80.796 23.1545 80.5383 23.143 80.2894 23.1339C79.9683 23.1224 79.635 23.1075 79.3528 22.9505C78.8184 22.6548 78.6385 21.974 78.4407 21.3837C78.1074 20.3888 77.3586 18.5091 76.1932 18.3086C75.6377 18.2134 74.9611 18.5172 74.5267 18.8427C73.8701 19.3344 73.3857 19.653 72.5358 19.645C72.3355 19.6489 72.1362 19.6164 71.947 19.5487C71.4581 19.3504 71.197 18.8026 71.1181 18.2593C71.088 18.5083 71.0816 18.7597 71.0993 19.01C71.1459 19.6037 71.4081 20.2456 71.947 20.4645C72.1362 20.5321 72.3355 20.5647 72.5358 20.5608C73.3857 20.5745 73.869 20.2559 74.5267 19.7642C74.9633 19.4387 75.6377 19.1338 76.1932 19.2301C77.3542 19.4249 78.1096 21.3046 78.4363 22.2983C78.634 22.8897 78.814 23.5706 79.3484 23.8663C79.6306 24.0221 79.9639 24.0382 80.285 24.0497C80.5338 24.0588 80.8071 24.06 80.9993 23.8972C81.1915 23.7345 81.246 23.4284 81.3182 23.1683C81.422 22.8005 81.6073 22.4627 81.8592 22.1814C82.0537 21.9671 82.3036 21.7814 82.5847 21.7585C82.9269 21.731 83.2513 21.9453 83.4735 22.2055C83.6957 22.4657 83.8801 22.7786 84.1157 23.0319C84.4465 23.3774 84.8744 23.6066 85.3387 23.687C85.8029 23.7675 86.28 23.6951 86.7021 23.48C86.8026 23.4322 86.8917 23.3621 86.9632 23.2748C87.0529 23.1236 87.0992 22.9491 87.0965 22.7717C87.1834 21.8063 87.2205 20.8368 87.2076 19.8673C87.1987 20.531 87.1509 21.1946 87.1009 21.8571Z" fill="black"/>
<path id="Vector_75" d="M9.97787 70.7521C9.97787 70.7521 10.1545 70.5493 9.82233 70.469V70.1355H10.0223C10.0219 69.7325 9.88736 69.3419 9.64125 69.029C9.39515 68.716 9.05237 68.4998 8.67023 68.4163V68.0117H8.72244V67.4856H7.43702V68.0117H7.47368V68.4209C7.09513 68.5084 6.75679 68.7264 6.51443 69.0389C6.27208 69.3515 6.14019 69.7399 6.14049 70.1401H6.31714V70.4599C6.31714 70.4599 5.89607 70.665 6.31714 71.0329C6.73821 71.4009 6.67266 71.6668 6.67266 71.6668C6.67266 71.6668 6.49601 72.3545 6.1416 72.4439V78.8199C6.14145 79.0061 6.17687 79.1904 6.24581 79.3624C6.31475 79.5344 6.41588 79.6907 6.54341 79.8224C6.67093 79.9541 6.82236 80.0585 6.98904 80.1298C7.15571 80.201 7.33437 80.2377 7.51479 80.2377H8.60023C8.96472 80.2377 9.31428 80.0883 9.57201 79.8225C9.82974 79.5566 9.97453 79.1959 9.97453 78.8199V72.4439C9.97453 72.4439 9.35349 71.9636 9.46459 71.6668C9.61363 71.3493 9.78519 71.0436 9.97787 70.7521Z" fill="#464353"/>
</g>
<defs>
<linearGradient id="paint0_linear" x1="61.6613" y1="81.3622" x2="61.6613" y2="11.3436" gradientUnits="userSpaceOnUse">
<stop stop-color="#808080" stop-opacity="0.25"/>
<stop offset="0.54" stop-color="#808080" stop-opacity="0.12"/>
<stop offset="1" stop-color="#808080" stop-opacity="0.1"/>
</linearGradient>
<clipPath id="clip0">
<rect width="128" height="88.38" fill="white"/>
</clipPath>
</defs>
</svg>
