<svg width="116" height="89" viewBox="0 0 116 89" fill="none" xmlns="http://www.w3.org/2000/svg">
<g id="undraw_Stability_ball_b4ia 1" clip-path="url(#clip0)">
<path id="Vector" d="M108.39 22.1452C108.723 21.6618 109.026 21.1521 109.296 20.62L102.906 19.4211L109.817 19.4791C110.48 17.8297 110.842 16.0427 110.88 14.2277C110.919 12.4127 110.633 10.6079 110.04 8.92379L100.768 14.4239L109.319 7.23667C108.517 5.65383 107.44 4.27659 106.153 3.19075C104.866 2.1049 103.397 1.33371 101.839 0.925198C100.28 0.51669 98.6639 0.47962 97.0919 0.816298C95.5199 1.15298 94.0254 1.85619 92.7015 2.88214C91.3775 3.90808 90.2525 5.23478 89.3964 6.7796C88.5404 8.32441 87.9716 10.0543 87.7257 11.8614C87.4797 13.6685 87.5618 15.5141 87.9668 17.2834C88.3717 19.0527 89.0909 20.7076 90.0796 22.1452C89.562 22.898 89.1167 23.7123 88.7512 24.5739L97.0457 29.5018L88.2022 26.1078C87.5808 28.2069 87.4269 30.4501 87.7546 32.6343C88.0822 34.8185 88.8809 36.8749 90.0785 38.6172C88.8405 40.4174 88.0291 42.5522 87.7229 44.8156C87.4166 47.0789 87.6257 49.3942 88.3301 51.5382C89.0344 53.6821 90.2101 55.5823 91.7438 57.0551C93.2775 58.528 95.1173 59.5239 97.0856 59.9467C96.9315 60.4435 96.8536 60.967 96.8554 61.4941C96.8486 62.2741 97.0236 63.042 97.3623 63.7189C97.03 64.3988 96.8555 65.1648 96.8555 65.9437C96.8555 66.7226 97.03 67.4886 97.3623 68.1685C97.03 68.8484 96.8555 69.6143 96.8555 70.3933C96.8555 71.1722 97.03 71.9381 97.3623 72.618C97.03 73.298 96.8555 74.0639 96.8555 74.8428C96.8555 75.6218 97.03 76.3877 97.3623 77.0676C97.0236 77.7445 96.8486 78.5125 96.8554 79.2924C96.8554 81.3033 97.9438 82.9324 99.2873 82.9324C100.631 82.9324 101.719 81.3033 101.719 79.2924C101.726 78.5124 101.55 77.7444 101.211 77.0676C101.544 76.388 101.719 75.6219 101.719 74.8428C101.719 74.0637 101.544 73.2977 101.211 72.618C101.544 71.9384 101.719 71.1724 101.719 70.3933C101.719 69.6142 101.544 68.8481 101.211 68.1685C101.544 67.4888 101.719 66.7228 101.719 65.9437C101.719 65.1646 101.544 64.3986 101.211 63.7189C101.55 63.0421 101.726 62.2742 101.719 61.4941C101.721 60.9595 101.641 60.4287 101.483 59.9257C103.439 59.4853 105.264 58.4779 106.783 57C108.302 55.522 109.464 53.6229 110.157 51.4845C110.85 49.3462 111.052 47.0401 110.742 44.7871C110.433 42.5342 109.623 40.4097 108.39 38.6172C110.006 36.2693 110.884 33.3686 110.884 30.3812C110.884 27.3938 110.006 24.4931 108.39 22.1452Z" fill="#F2F2F2"/>
<path id="Vector_2" d="M69.8699 36.3219C69.6479 35.9983 69.4457 35.6576 69.2646 35.3022L73.5372 34.5L68.9166 34.5384C68.4731 33.4355 68.2311 32.2407 68.2055 31.0272C68.1798 29.8137 68.3711 28.6069 68.7674 27.4808L74.9682 31.1592L69.2506 26.3524C69.7854 25.2919 70.5056 24.3688 71.3663 23.6408C72.227 22.9128 73.2097 22.3954 74.253 22.1211C75.2963 21.8467 76.3779 21.8213 77.4302 22.0463C78.4825 22.2712 79.483 22.7419 80.3692 23.4287C81.2553 24.1156 82.0082 25.004 82.5807 26.0385C83.1532 27.0729 83.5332 28.2312 83.6968 29.441C83.8604 30.6509 83.8041 31.8863 83.5316 33.0702C83.259 34.2541 82.776 35.361 82.1126 36.3219C82.4592 36.825 82.7571 37.3695 83.0011 37.946L77.4542 41.2411L83.3707 38.9706C83.7866 40.3744 83.8895 41.8746 83.6702 43.3353C83.4509 44.796 82.9162 46.171 82.1148 47.3358C82.943 48.5394 83.4859 49.9669 83.6909 51.4804C83.896 52.9939 83.7563 54.5423 83.2855 55.9761C82.8146 57.4099 82.0284 58.6807 81.0027 59.6656C79.9771 60.6506 78.7467 61.3165 77.4304 61.5991C77.5331 61.9313 77.585 62.2813 77.5839 62.6337C77.5879 63.1537 77.4708 63.6657 77.2445 64.1168C77.4671 64.5713 77.584 65.0835 77.584 65.6044C77.584 66.1252 77.4671 66.6374 77.2445 67.0919C77.4671 67.5466 77.5839 68.0589 77.5839 68.58C77.5839 69.1011 77.4671 69.6134 77.2445 70.0681C77.4671 70.5226 77.584 71.0348 77.584 71.5556C77.584 72.0765 77.4671 72.5887 77.2445 73.0432C77.4707 73.4944 77.5879 74.0063 77.5839 74.5263C77.5839 75.8699 76.8565 76.96 75.9626 76.96C75.0688 76.96 74.3414 75.8699 74.3414 74.5263C74.3374 74.0063 74.4545 73.4944 74.6807 73.0432C74.4582 72.5887 74.3413 72.0765 74.3413 71.5556C74.3413 71.0348 74.4582 70.5226 74.6807 70.0681C74.4582 69.6134 74.3413 69.1011 74.3413 68.58C74.3413 68.0589 74.4582 67.5466 74.6807 67.0919C74.4582 66.6374 74.3413 66.1252 74.3413 65.6044C74.3413 65.0835 74.4582 64.5713 74.6807 64.1168C74.4545 63.6657 74.3373 63.1537 74.3414 62.6337C74.3403 62.2759 74.3941 61.9208 74.5002 61.5843C73.1917 61.29 71.9711 60.6165 70.9554 59.6283C69.9397 58.6401 69.1628 57.3703 68.6991 55.9404C68.2354 54.5105 68.1004 52.9685 68.3071 51.4619C68.5138 49.9553 69.0553 48.5346 69.8796 47.3358C68.7999 45.7657 68.213 43.8262 68.213 41.8288C68.213 39.8314 68.7999 37.892 69.8796 36.3219H69.8699Z" fill="#F2F2F2"/>
<path id="Vector_3" d="M61.0967 88.9712C90.9942 88.9712 115.231 85.4849 115.231 81.1844C115.231 76.8839 90.9942 73.3977 61.0967 73.3977C31.1991 73.3977 6.9624 76.8839 6.9624 81.1844C6.9624 85.4849 31.1991 88.9712 61.0967 88.9712Z" fill="#F2F2F2"/>
<g id="Girl">
<path id="Vector_4" d="M77.7212 63.6705C77.7212 63.9177 77.7147 64.1649 77.7028 64.4022C77.7028 64.4381 77.7028 64.4727 77.7028 64.5085C77.6451 65.5527 77.4793 66.5854 77.2089 67.5849C77.2013 67.6158 77.1916 67.6492 77.1829 67.6801C76.9059 68.675 76.534 69.6321 76.074 70.534L76.0275 70.623C75.5334 71.5736 74.9538 72.4625 74.2982 73.2754L74.2312 73.357C73.4944 74.261 72.6784 75.0761 71.796 75.7894C71.7657 75.8154 71.7344 75.8413 71.7041 75.8648C70.7797 76.6048 69.7965 77.2437 68.7675 77.7732C68.6259 77.8461 68.4832 77.9178 68.3351 77.9882L68.2054 78.05C66.6309 78.7911 64.9812 79.3031 63.2951 79.574L63.0887 79.6061C62.142 79.7491 61.188 79.8205 60.2331 79.82C53.1557 79.82 47.0597 75.9365 44.3089 70.3486C44.1238 69.9753 43.9548 69.5946 43.802 69.2065L43.7393 69.0471C43.1554 67.528 42.823 65.8981 42.759 64.2403C42.759 64.1995 42.759 64.16 42.759 64.1167C42.759 63.9684 42.7536 63.8189 42.7536 63.6693C42.7532 62.5137 42.8854 61.3631 43.147 60.2469C43.1546 60.2122 43.1622 60.1789 43.1708 60.1455C43.4457 59.0082 43.8452 57.9152 44.3597 56.8924C44.3738 56.864 44.3878 56.8343 44.403 56.8059C44.91 55.8153 45.5102 54.8911 46.1929 54.0496C46.2108 54.0241 46.2299 53.9998 46.2501 53.9767L46.2588 53.9668C46.3442 53.863 46.4306 53.7579 46.5193 53.6553L46.6522 53.5021C46.7398 53.402 46.8295 53.3043 46.9192 53.2054H46.9246C47.1408 52.9731 47.3609 52.7477 47.585 52.5293C47.8963 52.2278 48.2216 51.9373 48.5578 51.658L48.6302 51.5962C49.5226 50.8683 50.4712 50.2349 51.4642 49.7039C51.4933 49.6878 51.5236 49.6705 51.5528 49.6569C52.6716 49.0661 53.8365 48.5968 55.032 48.2553C55.0699 48.2429 55.1066 48.233 55.1401 48.2232C56.621 47.8099 58.1364 47.5799 59.6602 47.5372C59.711 47.5372 59.7618 47.5372 59.8137 47.5372C59.9521 47.5372 60.0915 47.531 60.2309 47.531C67.2446 47.531 73.2941 51.3465 76.0805 56.8504C76.1053 56.8998 76.1291 56.9492 76.154 56.9974L76.2621 57.2137C76.3215 57.3373 76.3777 57.4609 76.4339 57.5919C76.4599 57.6513 76.4847 57.7094 76.5096 57.7687C76.5247 57.8033 76.5409 57.8379 76.555 57.8738C76.9627 58.8434 77.2686 59.8648 77.4661 60.9168C77.4748 60.9575 77.4813 60.9971 77.4888 61.0404C77.6429 61.906 77.7208 62.7871 77.7212 63.6705Z" fill="#6C63FF"/>
<g id="Group" opacity="0.2">
<path id="Vector_5" opacity="0.2" d="M76.1572 56.9863C75.3581 56.6402 74.5655 56.2802 73.7793 55.9061C68.8737 53.5838 64.1526 50.7813 59.6689 47.5298H59.8223C64.9629 51.2401 70.4116 54.3601 76.0891 56.8442C76.1096 56.8924 76.1334 56.9381 76.1572 56.9863Z" fill="#F2F2F2"/>
</g>
<g id="Group_2" opacity="0.2">
<path id="Vector_6" opacity="0.2" d="M77.4877 61.0254C75.5422 60.2838 73.6172 59.4598 71.7127 58.5534C66.7567 56.2089 61.989 53.3743 57.4639 50.0819C56.6108 49.4615 55.8001 48.8496 55.032 48.2465L55.1401 48.2156C55.8902 48.8014 56.6828 49.398 57.518 50.0053C63.7604 54.5412 70.4576 58.2013 77.465 60.9067C77.4737 60.9463 77.4801 60.9858 77.4877 61.0254Z" fill="#F2F2F2"/>
</g>
<g id="Group_3" opacity="0.2">
<path id="Vector_7" opacity="0.2" d="M77.7028 64.4024C77.7028 64.4383 77.7028 64.4741 77.7028 64.5087C74.987 63.562 72.3047 62.4628 69.6559 61.2111C64.6989 58.8647 59.9305 56.0281 55.4049 52.7335C53.9728 51.6915 52.6585 50.6706 51.4674 49.6966L51.556 49.6484C52.7374 50.6137 54.042 51.626 55.4579 52.6568C62.3811 57.6899 69.8626 61.6402 77.7028 64.4024Z" fill="#F2F2F2"/>
</g>
<g id="Group_4" opacity="0.2">
<path id="Vector_8" opacity="0.2" d="M77.2035 67.5835C77.1959 67.6169 77.1862 67.649 77.1775 67.6812C73.9201 66.618 70.7184 65.3429 67.5882 63.862C62.6318 61.5164 57.8641 58.6801 53.3394 55.3856C51.5603 54.0915 49.9639 52.8283 48.5577 51.6504L48.6302 51.5898C50.0353 52.7628 51.6219 54.0198 53.3924 55.3089C60.7766 60.6787 68.7949 64.8121 77.2035 67.5835Z" fill="#F2F2F2"/>
</g>
<g id="Group_5" opacity="0.2">
<path id="Vector_9" opacity="0.2" d="M76.0686 70.5341L76.0221 70.6231C72.4518 69.5056 68.9462 68.1334 65.526 66.5147C60.5695 64.1683 55.8015 61.3321 51.2761 58.0383C49.3694 56.6503 47.6704 55.2969 46.1961 54.0473C46.2134 54.0238 46.2328 53.9991 46.2534 53.9756C47.7298 55.2239 49.4278 56.5712 51.3334 57.9617C56.9938 62.0837 65.4719 67.2118 76.0686 70.5341Z" fill="#F2F2F2"/>
</g>
<g id="Group_6" opacity="0.2">
<path id="Vector_10" opacity="0.2" d="M74.2938 73.2754L74.2268 73.357C70.5643 72.2256 66.9692 70.8261 63.4637 69.167C58.5072 66.8209 53.7391 63.9847 49.2138 60.6906C47.4066 59.373 45.7854 58.0888 44.3597 56.8924C44.3738 56.864 44.3878 56.8356 44.403 56.8071C45.8286 58.0048 47.4542 59.2927 49.2668 60.6127C54.9823 64.7743 63.5632 69.9568 74.2938 73.2754Z" fill="#F2F2F2"/>
</g>
<g id="Group_7" opacity="0.2">
<path id="Vector_11" opacity="0.2" d="M71.7916 75.7894C71.7614 75.8154 71.73 75.8414 71.6997 75.8648C68.1979 74.7585 64.7586 73.4075 61.4014 71.8194C56.4448 69.4736 51.6767 66.6374 47.1515 63.343C45.6924 62.28 44.3532 61.2418 43.1437 60.2468C43.1513 60.2135 43.1589 60.1801 43.1675 60.1467C44.3856 61.1442 45.7335 62.1948 47.2056 63.2664C52.8422 67.3699 61.2663 72.4659 71.7916 75.7894Z" fill="#F2F2F2"/>
</g>
<g id="Group_8" opacity="0.2">
<path id="Vector_12" opacity="0.2" d="M68.334 77.9882L68.2043 78.05C65.1968 77.0371 62.2383 75.8427 59.3413 74.4718C56.5311 73.1431 53.7631 71.6439 51.0631 69.9914C49.0311 68.7455 47.0406 67.4135 45.0914 65.9954C44.2765 65.4021 43.5004 64.8171 42.7633 64.2403C42.7633 64.1995 42.7633 64.16 42.7633 64.1167C43.5185 64.7059 44.3143 65.3057 45.1509 65.9163C46.9267 67.2104 48.9803 68.6021 51.289 70.0074C56.7207 73.3184 62.4314 75.9923 68.334 77.9882Z" fill="#F2F2F2"/>
</g>
<g id="Group_9" opacity="0.2">
<path id="Vector_13" opacity="0.2" d="M63.2951 79.5743L63.0886 79.6064C61.1309 78.8574 59.1925 78.0297 57.2737 77.1233C53.1215 75.1578 49.1011 72.8465 45.2449 70.208C44.7636 69.8784 44.2844 69.5446 43.8074 69.2068L43.7447 69.0474C44.27 69.4215 44.8169 69.8026 45.3854 70.1907C51.0446 74.0422 57.0488 77.1881 63.2951 79.5743Z" fill="#F2F2F2"/>
</g>
<path id="Vector_14" opacity="0.1" d="M68.763 77.7732C68.6214 77.8461 68.4788 77.9178 68.3307 77.9882L68.201 78.05C66.6279 78.7907 64.9797 79.3027 63.295 79.574L63.0886 79.6062C62.1419 79.7491 61.1879 79.8205 60.233 79.82C53.1556 79.82 47.0597 75.9365 44.3089 70.3486C44.618 70.2942 44.9282 70.2485 45.2395 70.2077L45.38 70.1904C46.2166 70.089 47.0597 70.0322 47.9006 69.9914C48.9526 69.9283 50.0068 69.9283 51.0588 69.9914C51.1323 69.9914 51.2058 70.0013 51.2749 70.0087C51.9918 70.0667 52.7039 70.1857 53.4053 70.3646C55.54 70.9184 57.4963 72.121 59.4353 73.2816C62.4304 75.0688 65.4924 76.8116 68.763 77.7732Z" fill="black"/>
<path id="Vector_15" opacity="0.1" d="M76.0848 56.8394C73.2984 51.3355 67.2488 47.52 60.2352 47.52C60.0958 47.52 59.9564 47.52 59.818 47.52H59.6645C58.1406 47.5621 56.6252 47.7921 55.1444 48.206L55.0363 48.2369C53.8411 48.5796 52.6763 49.0488 51.5571 49.6385L51.4685 49.6867C50.4753 50.2177 49.5267 50.8515 48.6345 51.5802L48.5621 51.6408C47.7316 52.3254 46.9616 53.1012 46.2631 53.9571C46.1723 55.0114 46.0167 56.0434 45.6146 56.9939C45.3314 57.6613 45.0385 58.304 45.4395 58.9715C45.7086 59.4201 46.2912 59.9887 46.7873 60.0109C48.1503 60.074 48.9079 57.9901 49.55 56.9519C50.5335 55.3624 51.9916 54.2586 53.4161 53.192C54.0247 52.7359 54.6397 52.2761 55.326 52.003C55.9048 51.7888 56.5068 51.6677 57.1148 51.6433C58.7718 51.537 60.4654 51.825 61.9786 52.6098C63.708 53.5059 65.2428 55.0509 67.1299 55.2647C67.9849 55.3612 68.8593 55.172 69.697 55.3958C71.1853 55.795 72.2175 57.4005 73.6658 57.9617C74.6029 58.3251 75.6114 58.2089 76.5647 57.8529C76.4415 57.5563 76.3092 57.2642 76.168 56.9766C76.1334 56.9383 76.1096 56.8925 76.0848 56.8394Z" fill="black"/>
<path id="Vector_16" d="M33.695 63.033C33.1827 63.6509 32.6076 64.1935 32.0791 64.793C30.1217 67.0178 28.8668 69.9088 27.1072 72.3325C26.6327 72.9864 26.1172 73.6143 25.7637 74.3608C25.4103 75.1073 25.233 76.0158 25.4859 76.8142C25.7021 77.499 26.2004 78.0119 26.6846 78.4853C26.9833 78.7988 27.3113 79.0736 27.6628 79.3048C28.4756 79.7992 29.4375 79.8263 30.3584 79.8424C30.8664 79.8511 31.4857 79.7856 31.703 79.2603C30.8798 78.8116 30.1216 78.2214 29.4548 77.5101C29.0733 77.1022 28.7134 76.635 28.5588 76.0652C28.2951 75.0937 28.6853 74.0357 29.2376 73.2385C29.7899 72.4413 30.5022 71.8023 31.0415 70.994C31.5808 70.1856 31.9289 69.2574 32.5785 68.5974C33.0281 68.1413 33.5869 67.8558 34.0916 67.4763C34.8288 66.9214 35.4373 66.1748 36.0372 65.4357L39.2257 61.5139C39.3026 61.4389 39.3554 61.3367 39.3759 61.2235C39.3889 61.0764 39.2938 60.9478 39.203 60.8415C38.5091 60.027 37.2012 58.597 36.2479 59.6698C35.3292 60.7031 34.5845 61.9601 33.695 63.033Z" fill="#A0616A"/>
<path id="Vector_17" opacity="0.1" d="M33.695 63.033C33.1827 63.6509 32.6076 64.1935 32.0791 64.793C30.1217 67.0178 28.8668 69.9088 27.1072 72.3325C26.6327 72.9864 26.1172 73.6143 25.7637 74.3608C25.4103 75.1073 25.233 76.0158 25.4859 76.8142C25.7021 77.499 26.2004 78.0119 26.6846 78.4853C26.9833 78.7988 27.3113 79.0736 27.6628 79.3048C28.4756 79.7992 29.4375 79.8263 30.3584 79.8424C30.8664 79.8511 31.4857 79.7856 31.703 79.2603C30.8798 78.8116 30.1216 78.2214 29.4548 77.5101C29.0733 77.1022 28.7134 76.635 28.5588 76.0652C28.2951 75.0937 28.6853 74.0357 29.2376 73.2385C29.7899 72.4413 30.5022 71.8023 31.0415 70.994C31.5808 70.1856 31.9289 69.2574 32.5785 68.5974C33.0281 68.1413 33.5869 67.8558 34.0916 67.4763C34.8288 66.9214 35.4373 66.1748 36.0372 65.4357L39.2257 61.5139C39.3026 61.4389 39.3554 61.3367 39.3759 61.2235C39.3889 61.0764 39.2938 60.9478 39.203 60.8415C38.5091 60.027 37.2012 58.597 36.2479 59.6698C35.3292 60.7031 34.5845 61.9601 33.695 63.033Z" fill="black"/>
<path id="Vector_18" d="M38.2518 55.9035C38.8949 55.7477 39.5878 56.1395 40.2092 55.8961C40.5616 55.7576 40.8307 55.4363 41.0847 55.1248L42.1223 53.8604C42.4153 53.5032 42.7136 53.1386 42.8941 52.6936C43.054 52.3006 43.1102 51.8667 43.1881 51.4416C43.3783 50.3539 43.7036 49.239 44.4181 48.49C45.3087 47.5531 46.6814 47.3776 47.8249 47.8251C48.9684 48.2725 49.899 49.2712 50.5832 50.4132C49.9715 51.2537 49.2862 52.0299 48.6755 52.8704C48.4803 53.1647 48.2509 53.4271 47.9935 53.6503C47.7088 53.8489 47.4024 54.0039 47.0824 54.1113C45.9831 54.5562 44.8126 55.2002 44.3597 56.43C44.2019 56.8576 44.1435 57.3236 44.0571 57.7772C43.8906 58.635 43.5869 59.4841 43.0378 60.0984C42.4888 60.7127 41.6597 61.0489 40.928 60.7831C40.1185 60.489 39.6223 59.5818 39.2051 58.7363C38.7616 57.8539 38.44 56.8983 38.2518 55.9035Z" fill="#A0616A"/>
<path id="Vector_19" opacity="0.1" d="M38.2518 55.9035C38.8949 55.7477 39.5878 56.1395 40.2092 55.8961C40.5616 55.7576 40.8307 55.4363 41.0847 55.1248L42.1223 53.8604C42.4153 53.5032 42.7136 53.1386 42.8941 52.6936C43.054 52.3006 43.1102 51.8667 43.1881 51.4416C43.3783 50.3539 43.7036 49.239 44.4181 48.49C45.3087 47.5531 46.6814 47.3776 47.8249 47.8251C48.9684 48.2725 49.899 49.2712 50.5832 50.4132C49.9715 51.2537 49.2862 52.0299 48.6755 52.8704C48.4803 53.1647 48.2509 53.4271 47.9935 53.6503C47.7088 53.8489 47.4024 54.0039 47.0824 54.1113C45.9831 54.5562 44.8126 55.2002 44.3597 56.43C44.2019 56.8576 44.1435 57.3236 44.0571 57.7772C43.8906 58.635 43.5869 59.4841 43.0378 60.0984C42.4888 60.7127 41.6597 61.0489 40.928 60.7831C40.1185 60.489 39.6223 59.5818 39.2051 58.7363C38.7616 57.8539 38.44 56.8983 38.2518 55.9035Z" fill="black"/>
<path id="Vector_20" d="M66.409 50.9943C70.4708 52.6567 74.5089 54.6256 77.866 57.7304C79.403 59.153 80.7724 60.7944 82.2337 62.3184C82.9989 63.1168 83.789 63.8819 84.5791 64.6482L90.1877 70.0866C90.8816 70.7602 91.5787 71.435 92.3494 71.9986C94.1619 73.331 96.3236 74.0084 98.0984 75.4409C98.0952 76.1806 98.2012 76.9156 98.4118 77.615C98.4923 77.8725 98.6442 78.0927 98.8445 78.2421C99.0448 78.3914 99.2823 78.4616 99.5208 78.4418C102.316 78.2577 105.15 79.8089 107.965 79.4183C108.047 79.4081 108.125 79.3766 108.194 79.3263C108.262 79.2759 108.32 79.208 108.362 79.1278C108.551 78.7496 108.228 78.3961 107.945 78.1699L104.122 75.1096C103.492 74.6053 102.862 74.1011 102.22 73.6178C99.898 71.8726 97.4185 70.3906 95.2666 68.3871C94.8072 67.9594 94.3651 67.5095 93.922 67.0584C91.5787 64.6779 89.2344 62.2949 87.0132 59.7661C83.7847 56.089 80.7313 51.9868 77.5309 48.2775C77.2267 47.9076 76.8987 47.5642 76.5495 47.2504C76.2081 46.9723 75.8502 46.7216 75.4784 46.5002L71.4155 43.9479C70.8005 43.561 70.1185 43.1618 69.4322 43.3138C69.2621 43.2659 69.0843 43.2668 68.9146 43.3164C68.7449 43.366 68.5885 43.4628 68.4594 43.5981C68.1978 43.8737 68.027 44.2383 67.8541 44.5955C67.6283 45.028 67.4504 45.491 67.3245 45.9737C67.1797 46.63 67.2272 47.3333 67.0597 47.9784C66.9516 48.4049 66.7506 48.7942 66.6144 49.2144C66.4358 49.7842 66.3658 50.391 66.409 50.9943Z" fill="#A0616A"/>
<path id="Vector_21" opacity="0.1" d="M66.409 50.9943C70.4708 52.6567 74.5089 54.6256 77.866 57.7304C79.403 59.153 80.7724 60.7944 82.2337 62.3184C82.9989 63.1168 83.789 63.8819 84.5791 64.6482L90.1877 70.0866C90.8816 70.7602 91.5787 71.435 92.3494 71.9986C94.1619 73.331 96.3236 74.0084 98.0984 75.4409C98.0952 76.1806 98.2012 76.9156 98.4118 77.615C98.4923 77.8725 98.6442 78.0927 98.8445 78.2421C99.0448 78.3914 99.2823 78.4616 99.5208 78.4418C102.316 78.2577 105.15 79.8089 107.965 79.4183C108.047 79.4081 108.125 79.3766 108.194 79.3263C108.262 79.2759 108.32 79.208 108.362 79.1278C108.551 78.7496 108.228 78.3961 107.945 78.1699L104.122 75.1096C103.492 74.6053 102.862 74.1011 102.22 73.6178C99.898 71.8726 97.4185 70.3906 95.2666 68.3871C94.8072 67.9594 94.3651 67.5095 93.922 67.0584C91.5787 64.6779 89.2344 62.2949 87.0132 59.7661C83.7847 56.089 80.7313 51.9868 77.5309 48.2775C77.2267 47.9076 76.8987 47.5642 76.5495 47.2504C76.2081 46.9723 75.8502 46.7216 75.4784 46.5002L71.4155 43.9479C70.8005 43.561 70.1185 43.1618 69.4322 43.3138C69.2621 43.2659 69.0843 43.2668 68.9146 43.3164C68.7449 43.366 68.5885 43.4628 68.4594 43.5981C68.1978 43.8737 68.027 44.2383 67.8541 44.5955C67.6283 45.028 67.4504 45.491 67.3245 45.9737C67.1797 46.63 67.2272 47.3333 67.0597 47.9784C66.9516 48.4049 66.7506 48.7942 66.6144 49.2144C66.4358 49.7842 66.3658 50.391 66.409 50.9943Z" fill="black"/>
<path id="Vector_22" d="M38.8496 65.5161C41.3752 65.5161 43.4226 63.1748 43.4226 60.2866C43.4226 57.3984 41.3752 55.0571 38.8496 55.0571C36.3239 55.0571 34.2765 57.3984 34.2765 60.2866C34.2765 63.1748 36.3239 65.5161 38.8496 65.5161Z" fill="#A0616A"/>
<path id="Vector_23" d="M66.6792 41.4028C67.318 41.4152 68.0432 41.472 68.4453 42.0393C68.8474 42.6067 68.7566 43.3841 68.655 44.0837C68.3372 46.2948 68.0065 48.5456 67.1224 50.5454C67.0604 50.7258 66.9504 50.8794 66.8078 50.9842C66.5538 51.1337 66.2523 50.9582 66.0091 50.7864C64.2376 49.5282 62.4661 48.1736 60.4471 47.5729C60.3253 47.555 60.2135 47.4868 60.1325 47.3813C60.1049 47.3149 60.089 47.243 60.0858 47.1696C60.0827 47.0962 60.0923 47.0228 60.1142 46.9536C60.3152 45.929 60.5692 44.9167 60.727 43.881C60.8221 43.263 60.6459 41.7798 61.1247 41.3966C61.6317 40.9888 63.0919 41.3336 63.6917 41.3447L66.6792 41.4028Z" fill="#A0616A"/>
<path id="Vector_24" d="M68.8301 51.6098C72.8919 53.2722 76.93 55.2412 80.2817 58.3447C81.8187 59.7686 83.1881 61.41 84.6494 62.934C85.4146 63.7324 86.2047 64.4975 86.9948 65.2626L92.6033 70.7009C93.2973 71.3733 93.9944 72.0494 94.765 72.6118C96.5852 73.9491 98.7469 74.6239 100.515 76.0503C100.512 76.7904 100.618 77.5258 100.829 78.2256C100.909 78.483 101.061 78.7031 101.261 78.8524C101.462 79.0017 101.699 79.072 101.938 79.0525C104.733 78.8671 107.567 80.4195 110.382 80.0289C110.464 80.0186 110.542 79.9868 110.61 79.9362C110.679 79.8856 110.737 79.8175 110.779 79.7372C110.968 79.3664 110.645 79.0055 110.362 78.7793L106.539 75.7203C105.909 75.216 105.278 74.7117 104.636 74.2284C102.319 72.4832 99.8396 71.0013 97.6877 68.999C97.2283 68.5713 96.7862 68.1202 96.3431 67.6703C93.9998 65.2898 91.6554 62.9068 89.4332 60.3779C86.2058 56.7009 83.1524 52.5986 79.952 48.8832C79.6461 48.5182 79.317 48.1794 78.9674 47.8697C78.6257 47.5924 78.2678 47.3422 77.8963 47.1207L73.8334 44.5684C73.2184 44.1815 72.5363 43.7823 71.85 43.9343C71.68 43.886 71.5022 43.8865 71.3325 43.9359C71.1627 43.9853 71.0063 44.082 70.8772 44.2174C70.6157 44.493 70.4449 44.8588 70.272 45.216C70.0464 45.6482 69.8685 46.1107 69.7424 46.5929C69.5975 47.2493 69.6451 47.9525 69.4775 48.599C69.3695 49.0254 69.1684 49.4147 69.0322 49.8349C68.8553 50.4034 68.7864 51.0085 68.8301 51.6098Z" fill="#A0616A"/>
<path id="Vector_25" d="M70.178 51.9929L70.3066 49.8534C70.3433 49.2551 70.3801 48.6495 70.5411 48.0797C70.7238 47.4333 71.0567 46.8586 71.395 46.2999C71.5755 45.9741 71.7936 45.6777 72.0435 45.4186C72.4121 45.0639 72.8887 44.8711 73.2324 44.4867C73.3308 44.3767 73.4227 44.2148 73.3643 44.0726C73.3373 44.0196 73.3004 43.974 73.2562 43.9392C72.4088 43.1444 71.3928 42.6278 70.3898 42.1198L68.494 41.1606C67.6963 42.3966 66.8846 43.6709 66.4739 45.1368C66.4119 45.3972 66.3342 45.6525 66.2415 45.9007C65.9983 46.4803 65.5368 46.9031 65.2439 47.4518C64.9683 47.9685 64.8537 48.5729 64.7445 49.1649C64.6797 49.5122 64.617 49.883 64.7262 50.2155C64.8472 50.5863 65.1585 50.8261 65.4417 51.0424C66.6965 51.983 68.0217 52.9532 69.5186 53.0867C69.7932 53.1102 70.1585 53.2672 70.2461 52.9631C70.3077 52.7592 70.1639 52.2425 70.178 51.9929Z" fill="#3F3D56"/>
<path id="Vector_26" d="M32.7168 58.005C32.2434 58.7305 32.5612 59.7873 33.0519 60.498C33.5426 61.2086 34.1986 61.8044 34.4732 62.6535C35.1314 64.6842 33.2951 66.7323 33.3577 68.8928C33.414 70.8185 34.9023 72.2139 36.168 73.4931C38.8571 76.2123 41.155 80.0019 40.8523 84.0954C42.0757 83.6857 43.1325 82.7937 43.8355 81.5777C44.246 82.6078 44.4194 83.7409 44.3392 84.8692C47.158 82.6629 48.7631 78.5842 48.3383 74.7094C48.1362 72.8751 47.5179 71.0867 47.6141 69.2426C47.666 68.2427 47.9265 67.2749 48.1146 66.296C48.3541 65.0339 48.4737 63.746 48.4712 62.4545C48.4712 60.9812 48.2324 59.3448 47.2164 58.4388C46.3517 57.6688 45.1628 57.6428 44.0668 57.649C42.9092 57.6577 41.7516 57.6638 40.5962 57.7466C39.417 57.8307 38.201 58.2757 37.0402 58.309C35.7475 58.3461 33.9263 56.151 32.7168 58.005Z" fill="#3F3D56"/>
<path id="Vector_27" d="M50.0007 48.3308C49.2363 48.6192 48.5481 49.1239 48 49.7979C47.6552 50.2256 47.3699 50.7138 47.0121 51.1278C46.5863 51.6222 46.0664 51.993 45.5681 52.3886C44.6159 53.1425 43.7242 53.9892 42.8336 54.8346L38.4453 58.9999C37.759 59.6512 37.0726 60.3038 36.4252 61.0059C35.6265 61.8711 34.8893 62.8154 34.0365 63.6126C33.5372 64.0798 33 64.4963 32.5417 65.0167C32.1094 65.511 31.7592 66.0808 31.4047 66.6457C29.9604 68.9382 28.409 71.1398 26.757 73.2409C26.0556 74.1345 25.3303 75.0146 24.4775 75.7129C22.7093 77.1701 21.3668 79.3517 19.8126 81.1006C19.6807 81.2489 19.5359 81.4603 19.6169 81.6518C19.6653 81.7436 19.7427 81.8105 19.8331 81.8385C20.9702 82.323 21.9494 80.2131 23.134 80.5122C23.6744 80.6482 24.0063 81.2328 24.3932 81.679C24.7802 82.1252 25.4438 82.454 25.848 82.0276C25.7096 80.7864 25.8506 79.5254 26.2577 78.3641C26.9202 76.4842 28.2345 75.0022 29.6375 73.7613C31.0404 72.5203 32.5677 71.4623 33.8852 70.104C36.0956 67.8261 37.7103 64.7188 40.3325 63.1108C41.3593 62.4804 42.4942 62.1121 43.5177 61.4669C45.4989 60.2136 46.8846 58.0061 47.9676 55.7356C48.0951 55.4243 48.2676 55.1397 48.4777 54.8939C48.7038 54.6904 48.9552 54.5267 49.2235 54.4082C50.6162 53.6732 51.8658 52.6262 52.8984 51.3293C52.5742 51.0636 52.2704 50.7793 51.9473 50.5123C51.6842 50.3132 51.4435 50.0778 51.2307 49.8115C51.0145 49.5198 50.874 49.17 50.6902 48.8512C50.5065 48.5323 50.3141 48.4458 50.0007 48.3308Z" fill="#A0616A"/>
<path id="Vector_28" d="M61.8089 48.7126C61.5236 48.4506 61.5139 47.971 61.5279 47.5471C61.5747 46.2468 61.6209 44.947 61.6663 43.6475C61.6976 42.7317 61.7743 41.7058 62.3785 41.1051C60.6312 40.7038 58.8694 40.3961 57.0932 40.1818C56.3885 40.0965 55.674 40.0261 54.9715 40.1435C54.1252 40.2844 53.3318 40.6898 52.5515 41.0915C51.6868 41.5365 50.8167 41.9851 50.0417 42.6093C49.7434 42.8729 49.4323 43.1172 49.11 43.341C48.5221 43.7118 47.8465 43.8354 47.2132 44.0826C45.7496 44.6521 44.5259 45.8283 43.7836 47.3789C43.0412 48.9296 42.8342 50.7422 43.2032 52.4589C43.4194 51.8199 43.5707 51.1512 43.8236 50.5295C44.0765 49.9078 44.4494 49.3207 44.9801 49.0031C45.5335 48.6743 46.2015 48.6768 46.8035 48.8659C47.4055 49.055 47.947 49.4196 48.4875 49.7879C49.6915 50.6222 50.9215 51.5962 51.4933 53.0658C52.6822 52.0547 53.8982 51.0882 55.0893 50.0722C55.6059 49.6334 56.1302 49.191 56.7289 48.9252C57.5158 48.5754 58.3794 48.5544 59.2235 48.5359C60.0677 48.5173 60.9832 48.463 61.8089 48.7126Z" fill="#FF6584"/>
</g>
<path id="Vector_29" d="M43.1989 52.3404L43.0551 54.6209L43.5739 54.1314L43.3145 52.1143L43.1989 52.3404Z" fill="#FF6584"/>
<path id="Vector_30" d="M23.7177 23.056L22.0402 24.2722L23.0583 22.1611C22.7698 21.8977 22.4126 21.752 22.0434 21.7471H22.0164C21.8999 21.749 21.7834 21.7391 21.6684 21.7174L21.0998 22.1302L21.3441 21.6235C20.9411 21.4624 20.593 21.1595 20.3497 20.7583L19.3316 21.4999L19.9747 20.1638C19.3791 19.3468 18.5771 18.8462 17.6952 18.8462C16.637 18.8462 15.6945 19.5655 15.086 20.6866C14.9058 21.023 14.6508 21.2987 14.347 21.4856C14.0432 21.6726 13.7014 21.7641 13.3566 21.7508H13.2994C12.131 21.7508 11.1841 23.2649 11.1841 25.1337C11.1841 27.0025 12.131 28.5166 13.2994 28.5166C13.5564 28.5152 13.8093 28.4427 14.0365 28.3052C14.434 28.0842 14.8688 27.9647 15.3108 27.9549C15.7527 27.9451 16.1912 28.0452 16.596 28.2484C16.9384 28.4235 17.3093 28.5141 17.6844 28.5141C18.0595 28.5141 18.4304 28.4235 18.7728 28.2484C19.1746 28.0492 19.6092 27.9511 20.0471 27.9609C20.485 27.9707 20.9159 28.0882 21.3106 28.3052C21.5355 28.4398 21.7853 28.5106 22.0391 28.5116C23.2075 28.5116 24.1543 26.9963 24.1543 25.1287C24.1636 24.4068 24.0134 23.6939 23.7177 23.056Z" fill="#F2F2F2"/>
<path id="Vector_31" opacity="0.03" d="M20.5562 28.006C19.9459 27.8731 19.3148 27.9514 18.7436 28.2309C18.4007 28.4047 18.0297 28.494 17.6546 28.493C17.2796 28.4919 16.9089 28.4005 16.5668 28.2247C16.162 28.0218 15.7234 27.9218 15.2815 27.9319C14.8395 27.9419 14.4048 28.0617 14.0073 28.2828C13.78 28.4198 13.5271 28.4919 13.2702 28.493C12.2326 28.493 11.369 27.2978 11.1896 25.7206C11.3969 25.5479 11.5731 25.3309 11.7084 25.0816C12.3158 23.9606 13.2594 23.24 14.3175 23.24C15.3757 23.24 16.3063 23.9507 16.9116 25.0606C17.0935 25.3965 17.3485 25.6727 17.6515 25.8625C17.9546 26.0522 18.2955 26.149 18.6409 26.1433H18.668C19.4927 26.1433 20.2082 26.901 20.5562 28.006Z" fill="black"/>
<path id="Vector_32" d="M53.6539 30.2111L52.8174 30.813L53.3254 29.7575C53.1817 29.6259 53.0036 29.5532 52.8195 29.5511H52.8109C52.753 29.5517 52.6951 29.5468 52.638 29.5362L52.3537 29.7414L52.4758 29.4942C52.2747 29.4141 52.101 29.263 51.9797 29.0628L51.4717 29.4336L51.796 28.7674C51.6602 28.5663 51.4866 28.4026 51.2882 28.2884C51.0897 28.1742 50.8713 28.1123 50.6492 28.1074C50.1217 28.1074 49.6516 28.4659 49.3522 29.0258C49.2621 29.1938 49.1345 29.3315 48.9826 29.4247C48.8306 29.5178 48.6598 29.5632 48.4875 29.556H48.4594C47.8768 29.556 47.4045 30.3112 47.4045 31.2431C47.4045 32.1751 47.8768 32.9302 48.4594 32.9302C48.5875 32.9296 48.7136 32.8936 48.8269 32.8252C49.025 32.7144 49.2419 32.6544 49.4624 32.6495C49.6829 32.6446 49.9016 32.6948 50.1034 32.7968C50.2734 32.8837 50.4575 32.9291 50.6438 32.9302C50.83 32.9304 51.0141 32.8858 51.1842 32.7992C51.3846 32.6998 51.6014 32.6509 51.8198 32.6558C52.0381 32.6607 52.2531 32.7193 52.4499 32.8277C52.5624 32.8947 52.6873 32.9299 52.8141 32.9302C53.3967 32.9302 53.869 32.1751 53.869 31.2431C53.8742 30.8839 53.8003 30.529 53.6539 30.2111Z" fill="#F2F2F2"/>
<path id="Vector_33" opacity="0.03" d="M52.077 32.6807C51.7727 32.6146 51.4581 32.6538 51.1734 32.7932C51.0031 32.8789 50.8191 32.9235 50.633 32.9242C50.4448 32.9244 50.2588 32.8789 50.0871 32.7907C49.8852 32.6897 49.6665 32.64 49.4461 32.6451C49.2256 32.6502 49.0089 32.71 48.8107 32.8204C48.6974 32.8889 48.5713 32.925 48.4432 32.9255C47.9254 32.9255 47.4953 32.3285 47.4055 31.5424C47.5088 31.4561 47.5965 31.3478 47.6639 31.2235C47.9676 30.6636 48.4378 30.3052 48.9609 30.3052C49.484 30.3052 49.9531 30.6599 50.2579 31.2124C50.3489 31.3803 50.4764 31.5184 50.6279 31.6133C50.7795 31.7081 50.9499 31.7565 51.1226 31.7538H51.1356C51.5463 31.7513 51.9041 32.1295 52.077 32.6807Z" fill="black"/>
<path id="Vector_34" d="M57.6747 11.2027L59.0182 12.1779L58.2021 10.4809C58.4334 10.2704 58.7194 10.1538 59.0149 10.1496H59.0366C59.1299 10.1506 59.2232 10.1428 59.3154 10.1262L59.7715 10.4562L59.5727 10.0483C59.8952 9.91969 60.174 9.67788 60.3692 9.35736L61.1853 9.94817L60.6697 8.8778C61.1464 8.22273 61.7895 7.82227 62.4964 7.82227C63.3448 7.82227 64.0993 8.39824 64.5867 9.2968C64.7309 9.56569 64.9347 9.78613 65.1775 9.93571C65.4204 10.0853 65.6935 10.1587 65.9691 10.1484H66.0145C66.9505 10.1484 67.7093 11.3609 67.7093 12.8589C67.7093 14.3569 66.9527 15.5682 66.0145 15.5682C65.8088 15.5674 65.6064 15.5097 65.4244 15.4001C65.1055 15.2224 64.7566 15.1262 64.402 15.1183C64.0473 15.1104 63.6954 15.191 63.3708 15.3544C63.0949 15.4949 62.7962 15.5677 62.4942 15.5682C62.1963 15.568 61.9018 15.4964 61.6295 15.3581C61.3076 15.1987 60.9594 15.1203 60.6086 15.1282C60.2579 15.136 59.9127 15.2301 59.5964 15.4038C59.4157 15.511 59.2153 15.5673 59.0117 15.5682C58.0757 15.5682 57.3169 14.3557 57.3169 12.8589C57.3129 12.2813 57.436 11.7118 57.6747 11.2027Z" fill="#F2F2F2"/>
<path id="Vector_35" opacity="0.03" d="M60.2039 15.169C60.693 15.0625 61.1988 15.1253 61.6565 15.3495C61.9308 15.4896 62.2278 15.5621 62.5283 15.5621C62.8287 15.5621 63.1257 15.4896 63.3999 15.3495C63.7248 15.1867 64.0766 15.1065 64.4311 15.1144C64.7857 15.1223 65.1345 15.2181 65.4536 15.3952C65.6353 15.5058 65.8379 15.5639 66.0437 15.5646C66.8749 15.5646 67.5666 14.6067 67.7115 13.3398C67.545 13.2013 67.4036 13.027 67.2953 12.8268C66.8079 11.9295 66.0524 11.3523 65.205 11.3523C64.3576 11.3523 63.6107 11.9221 63.1233 12.8108C62.9776 13.0787 62.7739 13.2992 62.5319 13.4507C62.2899 13.6023 62.0178 13.6799 61.7419 13.676H61.7203C61.0567 13.6772 60.4849 14.2841 60.2039 15.169Z" fill="black"/>
<path id="Vector_36" d="M35.3811 38.8978C35.3249 38.8001 35.0493 38.8978 34.7661 39.1091C34.7164 39.1474 34.6688 39.187 34.6256 39.2265C34.4285 39.1096 34.216 39.0302 33.9965 38.9917L34.0084 38.9818C34.2942 38.7676 34.5591 38.519 34.7985 38.2402H34.19L35.073 37.8521C35.1811 37.6556 35.2157 37.4912 35.1563 37.3886C34.9963 37.1142 34.2246 37.3787 33.4269 37.9819C33.0675 38.2439 32.7443 38.566 32.4682 38.9373C31.8197 39.0238 31.3647 39.2414 31.3647 39.4947C31.3647 39.6703 31.5808 39.8285 31.9321 39.9385L31.9116 39.9533C31.1182 40.5552 30.6037 41.2672 30.7637 41.5415C30.9042 41.7887 31.5203 41.6058 32.2099 41.1473L31.7527 40.9001L32.4736 40.9569L32.4887 40.9458C32.5655 40.8877 32.639 40.8284 32.7103 40.769L32.1699 40.4823L32.9622 40.5441C33.1121 40.4021 33.2523 40.2472 33.3815 40.0806C34.1197 40.0361 34.6969 39.8334 34.7974 39.5714C34.8588 39.5395 34.9187 39.504 34.9768 39.4651C35.0785 39.3895 35.1727 39.3017 35.2579 39.2031H35.0417L35.3562 39.0646C35.3908 38.9929 35.4027 38.9348 35.3811 38.8978Z" fill="#F2F2F2"/>
<path id="Vector_37" d="M14.3846 76.442C14.3871 76.865 14.3509 77.2871 14.2765 77.7015C14.2614 77.7793 14.2462 77.856 14.2311 77.9301C13.8279 79.7779 12.6909 81.1301 11.3344 81.2166C11.289 81.2166 11.2436 81.2166 11.1961 81.2166C9.76179 81.2166 8.54907 79.8014 8.14808 77.8523C8.13727 77.8003 8.12754 77.7484 8.11674 77.6965C8.04053 77.2824 8.00249 76.8602 8.00325 76.437C8.00325 73.797 9.43321 71.6575 11.1961 71.6575C12.9589 71.6575 14.3846 73.8019 14.3846 76.442Z" fill="#3F3D56"/>
<path id="Vector_38" opacity="0.1" d="M14.3846 76.4419C14.3871 76.8649 14.3509 77.287 14.2765 77.7014C14.2614 77.7793 14.2462 77.8559 14.2311 77.93C14.1825 77.93 14.136 77.93 14.0873 77.9239C13.736 77.9015 13.3868 77.8465 13.0432 77.7595C12.7385 77.8683 12.4271 77.951 12.1116 78.0067C11.8698 78.0483 11.6263 78.0743 11.382 78.0845C11.2998 78.0845 11.2177 78.0845 11.1355 78.0845C10.8431 78.0848 10.551 78.0625 10.2611 78.0178C9.79273 77.9466 9.3327 77.816 8.88954 77.6285C8.64648 77.7207 8.3989 77.7967 8.14808 77.8559C8.13727 77.804 8.12754 77.7521 8.11674 77.7001C8.04053 77.286 8.00249 76.8639 8.00325 76.4407C8.00325 73.8006 9.43321 71.6611 11.1961 71.6611C12.9589 71.6611 14.3846 73.8019 14.3846 76.4419Z" fill="black"/>
<path id="Vector_39" d="M21.1948 67.5379C21.1952 66.3786 20.9571 65.2354 20.4998 64.2007L16.7438 65.5368L20.0404 63.3195C19.4878 62.4058 18.7628 61.6458 17.9189 61.0956C17.075 60.5454 16.1337 60.219 15.1647 60.1405C15.0099 59.8694 14.8399 59.6101 14.6556 59.3643L9.25787 61.2838L13.6829 58.315C12.8373 57.5722 11.8446 57.0794 10.7927 56.8801C9.74082 56.6807 8.66217 56.781 7.65228 57.1721C6.64239 57.5632 5.7324 58.2331 5.00289 59.1223C4.27338 60.0115 3.74685 61.0927 3.46993 62.2701L8.09055 68.3512L3.07325 64.2082C1.79879 65.2353 0.890279 66.7528 0.513874 68.4831C0.13747 70.2134 0.318332 72.0408 1.02338 73.6311C1.72843 75.2214 2.91055 76.4683 4.35353 77.1437C5.79651 77.8192 7.4039 77.8781 8.88173 77.3096C10.2168 77.8689 11.6752 77.9131 13.0344 77.4357C13.9825 77.674 14.9654 77.6662 15.9106 77.413C16.8558 77.1597 17.7394 76.6674 18.4963 75.9722C19.2533 75.277 19.8643 74.3966 20.2845 73.3958C20.7047 72.3951 20.9234 71.2993 20.9245 70.1891C20.9245 70.0235 20.9191 69.8603 20.9094 69.6947C21.0971 68.9958 21.1932 68.269 21.1948 67.5379Z" fill="#57B894"/>
<path id="Vector_40" opacity="0.1" d="M21.0834 68.915C19.1004 68.4855 17.067 68.4558 15.075 68.8272C12.8204 69.2549 10.516 70.193 8.31106 69.507C7.01404 69.1041 5.89645 68.1734 4.63618 67.653C3.4153 67.167 2.10026 67.0788 0.838082 67.3984C0.356638 68.714 0.216719 70.1603 0.435052 71.5644C0.653385 72.9686 1.22073 74.2711 2.06926 75.3162C2.91779 76.3614 4.01159 77.1049 5.21988 77.4581C6.42818 77.8112 7.69984 77.7588 8.88283 77.3074C10.2177 77.8674 11.6761 77.9125 13.0354 77.4359C13.9836 77.6742 14.9665 77.6664 15.9117 77.4131C16.8569 77.1599 17.7405 76.6675 18.4974 75.9724C19.2543 75.2772 19.8654 74.3968 20.2856 73.396C20.7058 72.3952 20.9245 71.2995 20.9256 70.1893C20.9256 70.0237 20.9202 69.8605 20.9105 69.6949C20.981 69.4389 21.0388 69.1785 21.0834 68.915Z" fill="black"/>
</g>
<defs>
<clipPath id="clip0">
<rect width="114.895" height="88.3831" fill="white" transform="translate(0.335693 0.588135)"/>
</clipPath>
</defs>
</svg>
